<svg xmlns="http://www.w3.org/2000/svg" xmlns:xlink="http://www.w3.org/1999/xlink" width="296.11mm" height="113.7mm" viewBox="0 0 839.37 322.3"><defs><style>.a,.aa,.ac,.ad,.af,.ag,.c,.f,.k,.l,.m,.o,.p,.r,.s,.u,.v,.w,.y{fill:none;}.b{clip-path:url(#a);}.c,.k{stroke:#000;}.aa,.ad,.ag,.c,.f,.k,.l,.m,.p,.s,.v,.w{stroke-linecap:round;stroke-linejoin:round;}.ag,.c,.f,.l,.v{stroke-width:2.12px;}.d,.g{font-size:12.7px;font-weight:700;}.d{font-family:TrebuchetMS-Bold, Trebuchet MS;}.e{letter-spacing:-0.06em;}.ad,.af,.f{stroke:#b34400;}.g{font-family:Trebuchet-BoldItalic, Trebuchet MS;font-style:italic;}.h{letter-spacing:-0.03em;}.i{letter-spacing:0em;}.j{fill:#fff;}.k{stroke-width:1.06px;}.aa,.ac,.l{stroke:#b1001c;}.m,.o{stroke:#8d774b;}.aa,.ac,.ad,.af,.m,.o,.p,.r,.s,.u,.w,.y{stroke-width:1.59px;}.n{fill:#8d774b;}.ac,.af,.o,.r,.u,.y{stroke-miterlimit:10;}.ag,.p,.r{stroke:#003776;}.q{fill:#003776;}.s,.u,.v{stroke:#005c5d;}.t{fill:#005c5d;}.w,.y{stroke:#666;}.x{fill:#666;}.z{letter-spacing:0.03em;}.ab{fill:#b1001c;}.ae{fill:#b34400;}.ah{letter-spacing:-0.05em;}</style><clipPath id="a"><rect class="a" width="839.37" height="322.3"/></clipPath></defs><title>cluster</title><g class="b"><rect class="c" x="255.89" y="83.09" width="167.24" height="222.28" rx="4.76"/><rect class="c" x="476.32" y="160.36" width="131.78" height="28.05" rx="4.76"/><path d="M499.54,171.38a2,2,0,1,1,2-2A2,2,0,0,1,499.54,171.38Zm6.25-1-2.18-1.84,1.16-2.61a.55.55,0,0,0-.06-.55.57.57,0,0,0-.52-.19l-2.81.56-1.31-2.54a.55.55,0,0,0-.94,0l-1.31,2.54L495,165.2a.53.53,0,0,0-.59.74l1.17,2.61-2.18,1.84a.53.53,0,0,0-.18.53.55.55,0,0,0,.38.4l2.77.71.09,2.86a.52.52,0,0,0,.84.4l2.29-1.71,2.28,1.71a.56.56,0,0,0,.32.11.59.59,0,0,0,.23-.05.55.55,0,0,0,.3-.46l.09-2.86,2.76-.71a.56.56,0,0,0,.39-.4A.55.55,0,0,0,505.79,170.39Z"/><path d="M489.07,180a2,2,0,1,1,2-2A2,2,0,0,1,489.07,180Zm7.74-2.94-2.42-1.14,1-2.5a.53.53,0,0,0-.08-.53.56.56,0,0,0-.51-.19l-2.64.51-.66-2.61a.56.56,0,0,0-.38-.38.53.53,0,0,0-.52.15l-1.84,2-2.06-1.72a.51.51,0,0,0-.53-.08.54.54,0,0,0-.34.43l-.34,2.66-2.67-.18a.54.54,0,0,0-.49.25.52.52,0,0,0,0,.54l1.29,2.35L481.33,178a.52.52,0,0,0-.24.47.51.51,0,0,0,.3.45l2.43,1.14-1,2.49a.53.53,0,0,0,.09.54.52.52,0,0,0,.5.18l2.64-.5.66,2.6a.55.55,0,0,0,.38.39h.14a.52.52,0,0,0,.38-.17l1.84-2,2.06,1.72a.55.55,0,0,0,.54.08.53.53,0,0,0,.33-.43l.34-2.66,2.68.18a.53.53,0,0,0,.48-.25.52.52,0,0,0,0-.54l-1.29-2.35,2.27-1.44a.51.51,0,0,0,.25-.48A.52.52,0,0,0,496.81,177.08Z"/><text class="d" transform="translate(512.31 178.88)">Compute Node</text><rect class="c" x="37.58" y="201.11" width="185.23" height="28.05" rx="4.76"/><path d="M60.79,212.13a2,2,0,1,1,2-2A2,2,0,0,1,60.79,212.13Zm6.25-1-2.18-1.85L66,206.69a.55.55,0,0,0-.07-.55.56.56,0,0,0-.52-.19l-2.8.56L61.32,204a.55.55,0,0,0-.94,0l-1.31,2.54L56.26,206a.55.55,0,0,0-.51.19.53.53,0,0,0-.07.55l1.16,2.61-2.18,1.85a.5.5,0,0,0-.17.52.55.55,0,0,0,.38.4l2.76.71.09,2.86a.53.53,0,0,0,.3.46.57.57,0,0,0,.55,0l2.28-1.72,2.29,1.72a.6.6,0,0,0,.32.1.42.42,0,0,0,.22-.05.58.58,0,0,0,.31-.46l.08-2.86,2.77-.71a.52.52,0,0,0,.38-.4A.53.53,0,0,0,67,211.15Z"/><path d="M50.33,220.77a2,2,0,1,1,2-2A2,2,0,0,1,50.33,220.77Zm7.74-2.94-2.43-1.14,1-2.5a.49.49,0,0,0-.08-.53.56.56,0,0,0-.51-.19l-2.63.51-.67-2.61a.52.52,0,0,0-.38-.38.54.54,0,0,0-.52.15l-1.83,2-2.07-1.72a.51.51,0,0,0-.53-.08.51.51,0,0,0-.33.43l-.34,2.66-2.68-.18a.51.51,0,0,0-.48.25.52.52,0,0,0,0,.54l1.29,2.35-2.27,1.44a.52.52,0,0,0-.24.47.53.53,0,0,0,.3.45l2.43,1.14-1,2.49a.51.51,0,0,0,.08.54.52.52,0,0,0,.51.18l2.63-.5.67,2.61a.52.52,0,0,0,.38.38h.13a.56.56,0,0,0,.39-.17l1.83-2,2.07,1.72a.53.53,0,0,0,.53.08.5.5,0,0,0,.33-.42l.34-2.67,2.68.18a.51.51,0,0,0,.48-.25.52.52,0,0,0,0-.54l-1.29-2.35,2.27-1.43a.53.53,0,0,0-.06-.92Z"/><text class="d" transform="translate(75.41 219.63)">Deploy<tspan class="e" x="40.57" y="0"> </tspan><tspan x="43.7" y="0">Admin Interface</tspan></text><rect class="f" x="273.88" y="160.36" width="131.78" height="28.05" rx="4.76"/><text class="g" transform="translate(309.94 178.88)">prm</text><text class="d" transform="translate(333.76 178.88)"><tspan xml:space="preserve"> Sto</tspan><tspan class="h" x="22.54" y="0">r</tspan><tspan class="i" x="27.58" y="0">age</tspan></text><polygon class="j" points="292.89 163.47 286.94 163.47 286.94 178.5 296.56 178.5 296.56 166.99 292.89 166.99 292.89 163.47"/><polygon class="k" points="292.89 163.47 286.94 163.47 286.94 178.5 296.56 178.5 296.56 166.99 292.89 166.99 292.89 163.47"/><polygon class="j" points="292.89 163.47 292.89 166.99 296.56 166.99 292.89 163.47"/><polygon class="k" points="292.89 163.47 292.89 166.99 296.56 166.99 292.89 163.47"/><polygon class="j" points="289.11 166.87 283.16 166.87 283.16 181.9 292.78 181.9 292.78 170.39 289.11 170.39 289.11 166.87"/><polygon class="k" points="289.11 166.87 283.16 166.87 283.16 181.9 292.78 181.9 292.78 170.39 289.11 170.39 289.11 166.87"/><polygon class="j" points="289.11 166.87 289.11 170.39 292.78 170.39 289.11 166.87"/><polygon class="k" points="289.11 166.87 289.11 170.39 292.78 170.39 289.11 166.87"/><polygon class="j" points="285.33 170.26 279.38 170.26 279.38 185.3 289 185.3 289 173.78 285.33 173.78 285.33 170.26"/><polygon class="k" points="285.33 170.26 279.38 170.26 279.38 185.3 289 185.3 289 173.78 285.33 173.78 285.33 170.26"/><polygon class="j" points="285.33 170.26 285.33 173.78 289 173.78 285.33 170.26"/><polygon class="k" points="285.33 170.26 285.33 173.78 289 173.78 285.33 170.26"/><rect class="l" x="273.62" y="201.11" width="131.78" height="28.05" rx="4.76"/><text class="g" transform="translate(309.36 219.63)">tmp</text><text class="d" transform="translate(333.07 219.63)"><tspan xml:space="preserve"> Sto</tspan><tspan class="h" x="22.54" y="0">r</tspan><tspan class="i" x="27.58" y="0">age</tspan></text><polygon class="j" points="292.63 204.22 286.68 204.22 286.68 219.25 296.29 219.25 296.29 207.74 292.63 207.74 292.63 204.22"/><polygon class="k" points="292.63 204.22 286.68 204.22 286.68 219.25 296.29 219.25 296.29 207.74 292.63 207.74 292.63 204.22"/><polygon class="j" points="292.63 204.22 292.63 207.74 296.29 207.74 292.63 204.22"/><polygon class="k" points="292.63 204.22 292.63 207.74 296.29 207.74 292.63 204.22"/><polygon class="j" points="288.85 207.62 282.9 207.62 282.9 222.65 292.51 222.65 292.51 211.14 288.85 211.14 288.85 207.62"/><polygon class="k" points="288.85 207.62 282.9 207.62 282.9 222.65 292.51 222.65 292.51 211.14 288.85 211.14 288.85 207.62"/><polygon class="j" points="288.85 207.62 288.85 211.14 292.51 211.14 288.85 207.62"/><polygon class="k" points="288.85 207.62 288.85 211.14 292.51 211.14 288.85 207.62"/><polygon class="j" points="285.07 211.01 279.12 211.01 279.12 226.05 288.74 226.05 288.74 214.54 285.07 214.54 285.07 211.01"/><polygon class="k" points="285.07 211.01 279.12 211.01 279.12 226.05 288.74 226.05 288.74 214.54 285.07 214.54 285.07 211.01"/><polygon class="j" points="285.07 211.01 285.07 214.54 288.74 214.54 285.07 211.01"/><polygon class="k" points="285.07 211.01 285.07 214.54 288.74 214.54 285.07 211.01"/><rect class="c" x="476.32" y="119.61" width="131.78" height="28.05" rx="4.76"/><path d="M499.54,130.63a2,2,0,1,1,2-2A2,2,0,0,1,499.54,130.63Zm6.25-1-2.18-1.84,1.16-2.61a.52.52,0,0,0-.58-.74l-2.81.56-1.31-2.54a.55.55,0,0,0-.94,0L497.82,125l-2.81-.56a.52.52,0,0,0-.52.19.55.55,0,0,0-.07.55l1.17,2.61-2.18,1.84a.53.53,0,0,0-.18.53.52.52,0,0,0,.38.39l2.77.72.09,2.86a.52.52,0,0,0,.84.4l2.29-1.71,2.28,1.71a.56.56,0,0,0,.32.11.59.59,0,0,0,.23-.05.55.55,0,0,0,.3-.46l.09-2.86,2.76-.72a.53.53,0,0,0,.39-.39A.55.55,0,0,0,505.79,129.64Z"/><path d="M489.07,139.26a2,2,0,1,1,2-2A2,2,0,0,1,489.07,139.26Zm7.74-2.93-2.42-1.15,1-2.49a.53.53,0,0,0-.08-.53.56.56,0,0,0-.51-.19l-2.64.5-.66-2.6a.56.56,0,0,0-.38-.38.53.53,0,0,0-.52.15l-1.84,2-2.06-1.72a.51.51,0,0,0-.53-.08.54.54,0,0,0-.34.43l-.34,2.66-2.67-.18a.54.54,0,0,0-.49.25.52.52,0,0,0,0,.54l1.29,2.35-2.27,1.44a.52.52,0,0,0-.24.47.51.51,0,0,0,.3.45l2.43,1.14-1,2.49a.53.53,0,0,0,.09.54.55.55,0,0,0,.5.18l2.64-.5.66,2.6a.52.52,0,0,0,.38.38l.14,0a.52.52,0,0,0,.38-.17l1.84-2,2.06,1.72a.55.55,0,0,0,.54.08.53.53,0,0,0,.33-.43l.34-2.66,2.68.18a.53.53,0,0,0,.48-.25.52.52,0,0,0,0-.54l-1.29-2.35,2.27-1.44a.51.51,0,0,0,.25-.48A.52.52,0,0,0,496.81,136.33Z"/><text class="d" transform="translate(512.31 138.13)">Compute Node</text><rect class="c" x="476.32" y="201.11" width="131.78" height="28.05" rx="4.76"/><path d="M499.54,212.13a2,2,0,1,1,2-2A2,2,0,0,1,499.54,212.13Zm6.25-1-2.18-1.85,1.16-2.61a.55.55,0,0,0-.06-.55.57.57,0,0,0-.52-.19l-2.81.56L500.07,204a.55.55,0,0,0-.94,0l-1.31,2.54L495,206a.57.57,0,0,0-.52.19.55.55,0,0,0-.07.55l1.17,2.61-2.18,1.85a.51.51,0,0,0-.18.52.55.55,0,0,0,.38.4l2.77.71.09,2.86a.53.53,0,0,0,.3.46.55.55,0,0,0,.54,0l2.29-1.72,2.28,1.72a.63.63,0,0,0,.32.1.46.46,0,0,0,.23-.05.55.55,0,0,0,.3-.46l.09-2.86,2.76-.71a.55.55,0,0,0,.39-.4A.53.53,0,0,0,505.79,211.15Z"/><path d="M489.07,220.77a2,2,0,1,1,2-2A2,2,0,0,1,489.07,220.77Zm7.74-2.94-2.42-1.14,1-2.5a.53.53,0,0,0-.08-.53.56.56,0,0,0-.51-.19l-2.64.51-.66-2.61a.56.56,0,0,0-.38-.38.53.53,0,0,0-.52.15l-1.84,2-2.06-1.72a.51.51,0,0,0-.53-.08.54.54,0,0,0-.34.43l-.34,2.66-2.67-.18a.54.54,0,0,0-.49.25.52.52,0,0,0,0,.54l1.29,2.35-2.27,1.44a.52.52,0,0,0-.24.47.51.51,0,0,0,.3.45l2.43,1.14-1,2.49a.53.53,0,0,0,.09.54.5.5,0,0,0,.5.18l2.64-.5.66,2.61a.56.56,0,0,0,.38.38h.14a.52.52,0,0,0,.38-.17l1.84-2,2.06,1.72a.55.55,0,0,0,.54.08.52.52,0,0,0,.33-.42l.34-2.67,2.68.18a.53.53,0,0,0,.48-.25.52.52,0,0,0,0-.54l-1.29-2.35,2.27-1.43a.54.54,0,0,0,.25-.49A.52.52,0,0,0,496.81,217.83Z"/><text class="d" transform="translate(512.31 219.63)">Compute Node</text><path class="m" d="M340.55,74.74c2.43-8.29,9.49-10.88,26-10.88,21.17,0,26.11-5.64,25.85-18.87"/><polygon class="n" points="339.81 80.62 342.76 75.02 338.35 74.46 339.81 80.62"/><polygon class="o" points="339.81 80.62 342.76 75.02 338.35 74.46 339.81 80.62"/><path class="p" d="M231.15,209.34c10.36-2.88,18.94-12.1,18.52-36.94-.43-25.36,4.87-30.3,15.54-31.4"/><polygon class="q" points="271.13 140.75 265.11 138.78 265.3 143.22 271.13 140.75"/><polygon class="r" points="271.13 140.75 265.11 138.78 265.3 143.22 271.13 140.75"/><polygon class="q" points="225.27 210.13 231.44 211.54 230.85 207.13 225.27 210.13"/><polygon class="r" points="225.27 210.13 231.44 211.54 230.85 207.13 225.27 210.13"/><path class="s" d="M222.81,276.16c8.33-.3,17.46-2.15,24.08,2.35,4.73,3.21,11.55,4.4,18.58,4.69"/><polygon class="t" points="271.39 283.18 265.46 280.97 265.47 285.42 271.39 283.18"/><polygon class="u" points="271.39 283.18 265.46 280.97 265.47 285.42 271.39 283.18"/><rect class="v" x="273.88" y="262.14" width="131.78" height="28.05" rx="4.76"/><text class="g" transform="translate(309.94 280.66)">apps</text><text class="d" transform="translate(338.5 280.66)"><tspan xml:space="preserve"> Sto</tspan><tspan class="h" x="22.54" y="0">r</tspan><tspan class="i" x="27.58" y="0">age</tspan></text><polygon class="j" points="292.89 265.25 286.94 265.25 286.94 280.28 296.56 280.28 296.56 268.77 292.89 268.77 292.89 265.25"/><polygon class="k" points="292.89 265.25 286.94 265.25 286.94 280.28 296.56 280.28 296.56 268.77 292.89 268.77 292.89 265.25"/><polygon class="j" points="292.89 265.25 292.89 268.77 296.56 268.77 292.89 265.25"/><polygon class="k" points="292.89 265.25 292.89 268.77 296.56 268.77 292.89 265.25"/><polygon class="j" points="289.11 268.65 283.16 268.65 283.16 283.68 292.78 283.68 292.78 272.17 289.11 272.17 289.11 268.65"/><polygon class="k" points="289.11 268.65 283.16 268.65 283.16 283.68 292.78 283.68 292.78 272.17 289.11 272.17 289.11 268.65"/><polygon class="j" points="289.11 268.65 289.11 272.17 292.78 272.17 289.11 268.65"/><polygon class="k" points="289.11 268.65 289.11 272.17 292.78 272.17 289.11 268.65"/><polygon class="j" points="285.33 272.04 279.38 272.04 279.38 287.07 289 287.07 289 275.56 285.33 275.56 285.33 272.04"/><polygon class="k" points="285.33 272.04 279.38 272.04 279.38 287.07 289 287.07 289 275.56 285.33 275.56 285.33 272.04"/><polygon class="j" points="285.33 272.04 285.33 275.56 289 275.56 285.33 272.04"/><polygon class="k" points="285.33 272.04 285.33 275.56 289 275.56 285.33 272.04"/><line class="w" x1="130.19" y1="230.22" x2="130.19" y2="252.66"/><polygon class="x" points="130.19 258.59 132.41 252.66 127.97 252.66 130.19 258.59"/><polygon class="y" points="130.19 258.59 132.41 252.66 127.97 252.66 130.19 258.59"/><rect class="c" x="37.58" y="262.14" width="185.23" height="28.05" rx="4.76"/><text class="g" transform="translate(75.41 280.66)">apps</text><text class="d" transform="translate(103.98 280.66)"><tspan xml:space="preserve"> Sto</tspan><tspan class="h" x="22.54" y="0">r</tspan><tspan class="i" x="27.58" y="0">age (local)</tspan></text><polygon class="j" points="56.59 265.25 50.64 265.25 50.64 280.28 60.25 280.28 60.25 268.77 56.59 268.77 56.59 265.25"/><polygon class="k" points="56.59 265.25 50.64 265.25 50.64 280.28 60.25 280.28 60.25 268.77 56.59 268.77 56.59 265.25"/><polygon class="j" points="56.59 265.25 56.59 268.77 60.25 268.77 56.59 265.25"/><polygon class="k" points="56.59 265.25 56.59 268.77 60.25 268.77 56.59 265.25"/><polygon class="j" points="52.81 268.65 46.86 268.65 46.86 283.68 56.48 283.68 56.48 272.17 52.81 272.17 52.81 268.65"/><polygon class="k" points="52.81 268.65 46.86 268.65 46.86 283.68 56.48 283.68 56.48 272.17 52.81 272.17 52.81 268.65"/><polygon class="j" points="52.81 268.65 52.81 272.17 56.48 272.17 52.81 268.65"/><polygon class="k" points="52.81 268.65 52.81 272.17 56.48 272.17 52.81 268.65"/><polygon class="j" points="49.03 272.04 43.08 272.04 43.08 287.07 52.7 287.07 52.7 275.56 49.03 275.56 49.03 272.04"/><polygon class="k" points="49.03 272.04 43.08 272.04 43.08 287.07 52.7 287.07 52.7 275.56 49.03 275.56 49.03 272.04"/><polygon class="j" points="49.03 272.04 49.03 275.56 52.7 275.56 49.03 272.04"/><polygon class="k" points="49.03 272.04 49.03 275.56 52.7 275.56 49.03 272.04"/><rect class="c" x="92.11" y="160.36" width="130.7" height="28.05" rx="4.76"/><path d="M115.32,171.38a2,2,0,1,1,2-2A2,2,0,0,1,115.32,171.38Zm6.25-1-2.18-1.84,1.17-2.61a.55.55,0,0,0-.07-.55.56.56,0,0,0-.52-.19l-2.8.56-1.32-2.54a.55.55,0,0,0-.94,0l-1.31,2.54-2.81-.56a.53.53,0,0,0-.58.74l1.16,2.61-2.18,1.84a.53.53,0,0,0-.17.53.55.55,0,0,0,.38.4l2.76.71.09,2.86a.53.53,0,0,0,.3.46.55.55,0,0,0,.55-.06l2.28-1.71,2.29,1.71a.52.52,0,0,0,.32.11.54.54,0,0,0,.22-.05.58.58,0,0,0,.31-.46l.08-2.86,2.77-.71a.53.53,0,0,0,.38-.4A.55.55,0,0,0,121.57,170.39Z"/><path d="M104.86,180a2,2,0,1,1,2-2A2,2,0,0,1,104.86,180Zm7.74-2.94-2.43-1.14,1-2.5a.49.49,0,0,0-.08-.53.56.56,0,0,0-.51-.19l-2.63.51-.67-2.61a.52.52,0,0,0-.38-.38.54.54,0,0,0-.52.15l-1.83,2-2.07-1.72a.51.51,0,0,0-.53-.08.51.51,0,0,0-.33.43l-.34,2.66-2.68-.18a.51.51,0,0,0-.48.25.52.52,0,0,0,0,.54l1.29,2.35L97.11,178a.52.52,0,0,0-.24.47.53.53,0,0,0,.3.45l2.43,1.14-1,2.49a.51.51,0,0,0,.08.54.54.54,0,0,0,.51.18l2.63-.5.67,2.6a.52.52,0,0,0,.38.39H103a.52.52,0,0,0,.38-.17l1.84-2,2.07,1.72a.53.53,0,0,0,.53.08.51.51,0,0,0,.33-.43l.34-2.66,2.68.18a.51.51,0,0,0,.48-.25.52.52,0,0,0,0-.54l-1.29-2.35,2.27-1.44a.51.51,0,0,0,.24-.48A.53.53,0,0,0,112.6,177.08Z"/><text class="d" transform="translate(129.94 178.88)">User Interface</text><path class="p" d="M231,164.23c7.3-1.87,11.75-5.23,11.75-19.68,0-14.87,12.08-17.47,22.41-17.88"/><polygon class="q" points="271.13 126.63 265.19 124.45 265.21 128.89 271.13 126.63"/><polygon class="r" points="271.13 126.63 265.19 124.45 265.21 128.89 271.13 126.63"/><polygon class="q" points="225.24 165.45 231.5 166.4 230.58 162.05 225.24 165.45"/><polygon class="r" points="225.24 165.45 231.5 166.4 230.58 162.05 225.24 165.45"/><text class="d" transform="translate(265.93 105.92)">Shared Sto<tspan class="h" x="63.43" y="0">r</tspan><tspan class="i" x="68.47" y="0">age De</tspan><tspan class="z" x="108.2" y="0">v</tspan><tspan x="115.29" y="0">ice(s)</tspan></text><rect class="c" x="649.12" y="119.61" width="152.97" height="28.05" rx="4.76"/><text class="g" transform="translate(686.95 138.13)">scr</text><text class="d" transform="translate(704.71 138.13)"><tspan xml:space="preserve"> Sto</tspan><tspan class="h" x="22.54" y="0">r</tspan><tspan class="i" x="27.58" y="0">age (local)</tspan></text><polygon class="j" points="668.13 122.72 662.18 122.72 662.18 137.75 671.8 137.75 671.8 126.24 668.13 126.24 668.13 122.72"/><polygon class="k" points="668.13 122.72 662.18 122.72 662.18 137.75 671.8 137.75 671.8 126.24 668.13 126.24 668.13 122.72"/><polygon class="j" points="668.13 122.72 668.13 126.24 671.8 126.24 668.13 122.72"/><polygon class="k" points="668.13 122.72 668.13 126.24 671.8 126.24 668.13 122.72"/><polygon class="j" points="664.35 126.12 658.4 126.12 658.4 141.15 668.02 141.15 668.02 129.64 664.35 129.64 664.35 126.12"/><polygon class="k" points="664.35 126.12 658.4 126.12 658.4 141.15 668.02 141.15 668.02 129.64 664.35 129.64 664.35 126.12"/><polygon class="j" points="664.35 126.12 664.35 129.64 668.02 129.64 664.35 126.12"/><polygon class="k" points="664.35 126.12 664.35 129.64 668.02 129.64 664.35 126.12"/><polygon class="j" points="660.57 129.51 654.62 129.51 654.62 144.54 664.24 144.54 664.24 133.03 660.57 133.03 660.57 129.51"/><polygon class="k" points="660.57 129.51 654.62 129.51 654.62 144.54 664.24 144.54 664.24 133.03 660.57 133.03 660.57 129.51"/><polygon class="j" points="660.57 129.51 660.57 133.03 664.24 133.03 660.57 129.51"/><polygon class="k" points="660.57 129.51 660.57 133.03 664.24 133.03 660.57 129.51"/><rect class="c" x="649.12" y="160.36" width="152.97" height="28.05" rx="4.76"/><text class="g" transform="translate(686.95 178.88)">scr</text><text class="d" transform="translate(704.71 178.88)"><tspan xml:space="preserve"> Sto</tspan><tspan class="h" x="22.54" y="0">r</tspan><tspan class="i" x="27.58" y="0">age (local)</tspan></text><polygon class="j" points="668.13 163.47 662.18 163.47 662.18 178.5 671.8 178.5 671.8 166.99 668.13 166.99 668.13 163.47"/><polygon class="k" points="668.13 163.47 662.18 163.47 662.18 178.5 671.8 178.5 671.8 166.99 668.13 166.99 668.13 163.47"/><polygon class="j" points="668.13 163.47 668.13 166.99 671.8 166.99 668.13 163.47"/><polygon class="k" points="668.13 163.47 668.13 166.99 671.8 166.99 668.13 163.47"/><polygon class="j" points="664.35 166.87 658.4 166.87 658.4 181.9 668.02 181.9 668.02 170.39 664.35 170.39 664.35 166.87"/><polygon class="k" points="664.35 166.87 658.4 166.87 658.4 181.9 668.02 181.9 668.02 170.39 664.35 170.39 664.35 166.87"/><polygon class="j" points="664.35 166.87 664.35 170.39 668.02 170.39 664.35 166.87"/><polygon class="k" points="664.35 166.87 664.35 170.39 668.02 170.39 664.35 166.87"/><polygon class="j" points="660.57 170.26 654.62 170.26 654.62 185.3 664.24 185.3 664.24 173.78 660.57 173.78 660.57 170.26"/><polygon class="k" points="660.57 170.26 654.62 170.26 654.62 185.3 664.24 185.3 664.24 173.78 660.57 173.78 660.57 170.26"/><polygon class="j" points="660.57 170.26 660.57 173.78 664.24 173.78 660.57 170.26"/><polygon class="k" points="660.57 170.26 660.57 173.78 664.24 173.78 660.57 170.26"/><rect class="c" x="649.12" y="201.11" width="152.97" height="28.05" rx="4.76"/><text class="g" transform="translate(686.95 219.63)">scr</text><text class="d" transform="translate(704.71 219.63)"><tspan xml:space="preserve"> Sto</tspan><tspan class="h" x="22.54" y="0">r</tspan><tspan class="i" x="27.58" y="0">age (local)</tspan></text><polygon class="j" points="668.13 204.22 662.18 204.22 662.18 219.25 671.8 219.25 671.8 207.74 668.13 207.74 668.13 204.22"/><polygon class="k" points="668.13 204.22 662.18 204.22 662.18 219.25 671.8 219.25 671.8 207.74 668.13 207.74 668.13 204.22"/><polygon class="j" points="668.13 204.22 668.13 207.74 671.8 207.74 668.13 204.22"/><polygon class="k" points="668.13 204.22 668.13 207.74 671.8 207.74 668.13 204.22"/><polygon class="j" points="664.35 207.62 658.4 207.62 658.4 222.65 668.02 222.65 668.02 211.14 664.35 211.14 664.35 207.62"/><polygon class="k" points="664.35 207.62 658.4 207.62 658.4 222.65 668.02 222.65 668.02 211.14 664.35 211.14 664.35 207.62"/><polygon class="j" points="664.35 207.62 664.35 211.14 668.02 211.14 664.35 207.62"/><polygon class="k" points="664.35 207.62 664.35 211.14 668.02 211.14 664.35 207.62"/><polygon class="j" points="660.57 211.01 654.62 211.01 654.62 226.05 664.24 226.05 664.24 214.54 660.57 214.54 660.57 211.01"/><polygon class="k" points="660.57 211.01 654.62 211.01 654.62 226.05 664.24 226.05 664.24 214.54 660.57 214.54 660.57 211.01"/><polygon class="j" points="660.57 211.01 660.57 214.54 664.24 214.54 660.57 211.01"/><polygon class="k" points="660.57 211.01 660.57 214.54 664.24 214.54 660.57 211.01"/><line class="w" x1="616.52" y1="215.13" x2="640.7" y2="215.13"/><polygon class="x" points="646.63 215.13 640.7 212.91 640.7 217.36 646.63 215.13"/><polygon class="y" points="646.63 215.13 640.7 212.91 640.7 217.36 646.63 215.13"/><polygon class="x" points="610.59 215.13 616.52 217.36 616.52 212.91 610.59 215.13"/><polygon class="y" points="610.59 215.13 616.52 217.36 616.52 212.91 610.59 215.13"/><line class="w" x1="616.52" y1="174.38" x2="639.64" y2="174.38"/><polygon class="x" points="645.57 174.38 639.64 172.16 639.64 176.61 645.57 174.38"/><polygon class="y" points="645.57 174.38 639.64 172.16 639.64 176.61 645.57 174.38"/><polygon class="x" points="610.59 174.38 616.52 176.61 616.52 172.16 610.59 174.38"/><polygon class="y" points="610.59 174.38 616.52 176.61 616.52 172.16 610.59 174.38"/><line class="w" x1="616.52" y1="133.63" x2="639.64" y2="133.63"/><polygon class="x" points="645.57 133.63 639.64 131.41 639.64 135.85 645.57 133.63"/><polygon class="y" points="645.57 133.63 639.64 131.41 639.64 135.85 645.57 133.63"/><polygon class="x" points="610.59 133.63 616.52 135.85 616.52 131.41 610.59 133.63"/><polygon class="y" points="610.59 133.63 616.52 135.85 616.52 131.41 610.59 133.63"/><path class="s" d="M405.66,269.15c20-.69,30.3-3.87,31.89-64.34,1.36-52,13.71-61.64,30.38-63.64"/><polygon class="t" points="473.84 140.8 467.79 138.95 468.06 143.39 473.84 140.8"/><polygon class="u" points="473.84 140.8 467.79 138.95 468.06 143.39 473.84 140.8"/><path class="aa" d="M231.17,178.14c8,1.51,15.62,5.54,15.72,18.6s9.77,16.89,18.32,18"/><polygon class="ab" points="271.13 215.02 265.32 212.51 265.1 216.96 271.13 215.02"/><polygon class="ac" points="271.13 215.02 265.32 212.51 265.1 216.96 271.13 215.02"/><polygon class="ab" points="225.28 177.47 230.92 180.34 231.42 175.93 225.28 177.47"/><polygon class="ac" points="225.28 177.47 230.92 180.34 231.42 175.93 225.28 177.47"/><path class="ad" d="M231.22,171.46c5.71-.11,10.47-.56,15.67-3.3s12-2.07,18.59-1.39"/><polygon class="ae" points="271.4 167.19 265.64 164.56 265.33 168.99 271.4 167.19"/><polygon class="af" points="271.4 167.19 265.64 164.56 265.33 168.99 271.4 167.19"/><polygon class="ae" points="225.3 171.54 231.25 173.69 231.19 169.24 225.3 171.54"/><polygon class="af" points="225.3 171.54 231.25 173.69 231.19 169.24 225.3 171.54"/><path class="p" d="M413.77,141.47c9.81,1.18,20.5,5.21,20.6,31.19.11,27.8,19.29,33.5,33.55,34.94"/><polygon class="q" points="473.84 207.97 468.06 205.38 467.79 209.82 473.84 207.97"/><polygon class="r" points="473.84 207.97 468.06 205.38 467.79 209.82 473.84 207.97"/><polygon class="q" points="407.87 140.89 413.55 143.68 413.99 139.26 407.87 140.89"/><polygon class="r" points="407.87 140.89 413.55 143.68 413.99 139.26 407.87 140.89"/><path class="p" d="M413.81,133.56c11.9.09,21.29,2.06,24.53,18.46,3.07,15.57,18.35,16.23,29.58,15.74"/><polygon class="q" points="473.84 167.49 467.81 165.54 468.02 169.98 473.84 167.49"/><polygon class="r" points="473.84 167.49 467.81 165.54 468.02 169.98 473.84 167.49"/><polygon class="q" points="407.88 133.61 413.83 135.78 413.79 131.33 407.88 133.61"/><polygon class="r" points="407.88 133.61 413.83 135.78 413.79 131.33 407.88 133.61"/><path class="p" d="M413.81,126.62h54.1"/><polygon class="q" points="473.83 126.62 467.91 124.4 467.91 128.84 473.83 126.62"/><polygon class="r" points="473.83 126.62 467.91 124.4 467.91 128.84 473.83 126.62"/><polygon class="q" points="407.88 126.62 413.81 128.84 413.81 124.4 407.88 126.62"/><polygon class="r" points="407.88 126.62 413.81 128.84 413.81 124.4 407.88 126.62"/><rect class="ag" x="273.62" y="119.61" width="131.78" height="28.05" rx="4.76"/><text class="g" transform="translate(309.67 138.13)">home</text><text class="d" transform="translate(341.6 138.13)"><tspan xml:space="preserve"> Sto</tspan><tspan class="h" x="22.54" y="0">r</tspan><tspan class="i" x="27.58" y="0">age</tspan></text><path class="aa" d="M413.8,222.63c7.55.42,16.8.44,22.16-3.38,5.69-4.05,21.44-4.17,31.94-4.1"/><polygon class="ab" points="473.83 215.14 467.9 212.93 467.91 217.37 473.83 215.14"/><polygon class="ac" points="473.83 215.14 467.9 212.93 467.91 217.37 473.83 215.14"/><polygon class="ab" points="407.88 222.29 413.67 224.85 413.92 220.41 407.88 222.29"/><polygon class="ac" points="407.88 222.29 413.67 224.85 413.92 220.41 407.88 222.29"/><path class="aa" d="M413.8,214.71c8.15.12,18.33-1,20.57-19.82,2.41-20.3,21.61-20.15,33.55-20"/><polygon class="ab" points="473.84 174.53 467.79 172.67 468.06 177.11 473.84 174.53"/><polygon class="ac" points="473.84 174.53 467.79 172.67 468.06 177.11 473.84 174.53"/><polygon class="ab" points="407.88 215.01 413.91 216.93 413.69 212.49 407.88 215.01"/><polygon class="ac" points="407.88 215.01 413.91 216.93 413.69 212.49 407.88 215.01"/><path class="aa" d="M413.8,207.67c8.1.23,17.92-2.41,16.07-37.41-2.13-40.3,23.24-36.41,38.08-35.81"/><polygon class="ab" points="473.85 133.87 467.73 132.23 468.16 136.66 473.85 133.87"/><polygon class="ac" points="473.85 133.87 467.73 132.23 468.16 136.66 473.85 133.87"/><polygon class="ab" points="407.88 207.99 413.92 209.89 413.68 205.45 407.88 207.99"/><polygon class="ac" points="407.88 207.99 413.92 209.89 413.68 205.45 407.88 207.99"/><path class="s" d="M405.66,276.16c12.57,0,35.33,6.58,36.65-44.75,1-39.77,14.76-47.46,25.63-49.28"/><polygon class="t" points="473.84 181.61 467.74 179.92 468.13 184.35 473.84 181.61"/><polygon class="u" points="473.84 181.61 467.74 179.92 468.13 184.35 473.84 181.61"/><path class="s" d="M405.66,283.17c21,1.16,41.68-1.6,41.68-31.44,0-23,10.66-27.79,20.58-29"/><polygon class="t" points="473.84 222.31 467.78 220.47 468.07 224.91 473.84 222.31"/><polygon class="u" points="473.84 222.31 467.78 220.47 468.07 224.91 473.84 222.31"/><path class="s" d="M231,184.86c6.81,2.52,12.41,9.51,11.55,40.59-1.19,43.14,18,43.27,31.36,43.7"/><polygon class="t" points="225.22 183.41 230.42 187.02 231.51 182.71 225.22 183.41"/><polygon class="u" points="225.22 183.41 230.42 187.02 231.51 182.71 225.22 183.41"/><polygon points="287.85 142.63 287.85 136.28 292.09 136.28 292.09 142.63 297.38 142.63 297.38 134.16 300.55 134.16 289.97 124.64 279.38 134.16 282.56 134.16 282.56 142.63 287.85 142.63"/><rect class="c" x="346.12" y="16.94" width="185.23" height="28.05" rx="4.76"/><text class="d" transform="translate(383.95 35.46)">Sys<tspan class="ah" x="18.74" y="0"> </tspan><tspan x="21.87" y="0">Admin Interface</tspan></text><path d="M369.6,28a2,2,0,1,1,2-2A2,2,0,0,1,369.6,28Zm6.25-1-2.18-1.85,1.17-2.6a.54.54,0,0,0-.07-.55.53.53,0,0,0-.52-.19l-2.8.56-1.32-2.55a.56.56,0,0,0-.94,0l-1.31,2.55-2.81-.56a.53.53,0,0,0-.52.19.54.54,0,0,0-.06.55l1.16,2.6L363.47,27a.53.53,0,0,0-.17.53.52.52,0,0,0,.38.39l2.76.72.09,2.85a.51.51,0,0,0,.3.46.52.52,0,0,0,.55-.05l2.28-1.71L372,31.87a.52.52,0,0,0,.32.11.46.46,0,0,0,.22-.06.52.52,0,0,0,.3-.46l.09-2.85,2.77-.72a.52.52,0,0,0,.38-.39A.55.55,0,0,0,375.85,27Z"/><path d="M359.14,36.59a2,2,0,1,1,2-2A2,2,0,0,1,359.14,36.59Zm7.74-2.93-2.43-1.15,1-2.49a.49.49,0,0,0-.08-.53.56.56,0,0,0-.51-.19l-2.63.5-.67-2.6a.51.51,0,0,0-.38-.38.54.54,0,0,0-.52.15l-1.83,2-2.07-1.71a.53.53,0,0,0-.53-.09.53.53,0,0,0-.33.43l-.34,2.67L352.87,30a.53.53,0,0,0-.5.78l1.29,2.36-2.27,1.43a.52.52,0,0,0-.24.48.51.51,0,0,0,.3.44l2.43,1.15-1,2.49a.51.51,0,0,0,.09.53.55.55,0,0,0,.51.19l2.63-.5.66,2.6a.54.54,0,0,0,.39.38l.13,0a.52.52,0,0,0,.38-.17l1.84-2L361.57,42a.55.55,0,0,0,.54.08.51.51,0,0,0,.33-.43l.34-2.66,2.68.17a.53.53,0,0,0,.5-.78L364.67,36l2.27-1.44a.52.52,0,0,0-.06-.91Z"/><path class="m" d="M162.87,119.85c-.31,14.31,3.4,20.13,32.67,20s40.11-13.16,40.32-48.09c.21-34,3.35-59.18,101.85-60.76"/><polygon class="n" points="343.63 30.98 337.69 28.81 337.73 33.26 343.63 30.98"/><polygon class="o" points="343.63 30.98 337.69 28.81 337.73 33.26 343.63 30.98"/><path class="m" d="M130.19,119.85c.53,11.58-2.22,12.28-8.43,18.28-4.44,4.29-4.08,7.86-3.69,13.81"/><polygon class="n" points="118.19 157.87 120.29 151.9 115.85 151.99 118.19 157.87"/><polygon class="o" points="118.19 157.87 120.29 151.9 115.85 151.99 118.19 157.87"/><path class="m" d="M97.52,119.85c.25,16.43-7.36,27.45-19,27.81-10.35.31-11.29,22.79-10.44,45"/><polygon class="n" points="68.33 198.63 70.28 192.6 65.84 192.81 68.33 198.63"/><polygon class="o" points="68.33 198.63 70.28 192.6 65.84 192.81 68.33 198.63"/><path class="m" d="M140.21,60.86c-.32,6-.32,9.88-3.84,13.41a18.84,18.84,0,0,0-5.18,9.17"/><polygon class="n" points="130.49 89.33 133.4 83.7 128.98 83.18 130.49 89.33"/><polygon class="o" points="130.49 89.33 133.4 83.7 128.98 83.18 130.49 89.33"/><rect class="c" x="64.84" y="91.8" width="130.7" height="28.05" rx="4.76"/><text class="d" transform="translate(103.9 110.32)">Jumphost</text><path d="M81.76,102.12V97.88l7.41,7.41-7.41,7.41v-4.34c-5.29,0-9,1.7-11.65,5.4C71.17,108.47,74.35,103.18,81.76,102.12Zm6.35-1.06V97.88l7.41,7.41-7.41,7.41v-3.17l4.23-4.24Z"/><path d="M176.78,110.42,173,106.6l1.34-1.34,2.48,2.46,6.28-6.29,1.35,1.36Zm1.9-15.27L170.1,99v5.72c0,5.3,3.66,10.25,8.58,11.45,4.93-1.2,8.59-6.15,8.59-11.45V99Z"/><rect class="c" x="456.2" y="83.09" width="366.23" height="161.95" rx="4.76"/><text class="d" transform="translate(592.83 105.92)">Compute Nodes</text><path class="m" d="M540.88,74.71c-2.41-8.55-10.88-9.44-28.23-9.44-21.87,0-26.81-.7-27.6-20.28"/><polygon class="n" points="541.38 80.61 543.1 74.52 538.67 74.89 541.38 80.61"/><polygon class="o" points="541.38 80.61 543.1 74.52 538.67 74.89 541.38 80.61"/><path class="m" d="M69.2,60.86c-.1,12.7,2.6,11.65,14.6,12,9.63.28,12.6,1.25,13.43,10.53"/><polygon class="n" points="97.43 89.31 99.45 83.31 95.01 83.46 97.43 89.31"/><polygon class="o" points="97.43 89.31 99.45 83.31 95.01 83.46 97.43 89.31"/><text class="d" transform="translate(116.79 35.46)">User</text><path d="M115.94,54c-2.82,0-8.47,1.42-8.47,4.24v2.11h16.94V58.22C124.41,55.4,118.77,54,115.94,54Zm0-2.11a4.24,4.24,0,1,0-4.23-4.24A4.24,4.24,0,0,0,115.94,51.87Z"/><path d="M140.21,59.8a1.06,1.06,0,1,1,1.06-1A1.06,1.06,0,0,1,140.21,59.8ZM131.74,45h16.94V56.63H131.74Zm16.94,13.76a2.12,2.12,0,0,0,2.1-2.12V45a2.12,2.12,0,0,0-2.11-2.12H131.74A2.13,2.13,0,0,0,129.62,45V56.63a2.13,2.13,0,0,0,2.12,2.12h-4.23a2.12,2.12,0,0,0,2.11,2.11h21.17a2.12,2.12,0,0,0,2.12-2.11Z"/><text class="d" transform="translate(18.52 35.46)">Deploy<tspan class="e" x="40.57" y="0"> </tspan><tspan x="43.7" y="0">Admin</tspan></text><path d="M44.93,54c-2.82,0-8.46,1.42-8.46,4.24v2.11H53.4V58.22C53.4,55.4,47.76,54,44.93,54Zm0-2.11a4.24,4.24,0,1,0-4.23-4.24A4.24,4.24,0,0,0,44.93,51.87Z"/><path d="M69.2,59.8a1.06,1.06,0,1,1,1.06-1A1.06,1.06,0,0,1,69.2,59.8ZM60.73,45H77.67V56.63H60.73ZM77.67,58.75a2.12,2.12,0,0,0,2.1-2.12V45a2.12,2.12,0,0,0-2.11-2.12H60.73A2.13,2.13,0,0,0,58.61,45V56.63a2.13,2.13,0,0,0,2.12,2.12H56.5a2.12,2.12,0,0,0,2.11,2.11H79.78a2.12,2.12,0,0,0,2.12-2.11Z"/><path class="m" d="M211.23,60.86c-.09,12.7-1.83,12.7-24.06,12.7-17.13,0-22.32.63-23.78,8.78"/><polygon class="n" points="163.02 88.26 165.61 82.48 161.17 82.2 163.02 88.26"/><polygon class="o" points="163.02 88.26 165.61 82.48 161.17 82.2 163.02 88.26"/><path d="M187,54c-2.83,0-8.47,1.42-8.47,4.24v2.11h16.94V58.22C195.44,55.4,189.79,54,187,54Zm0-2.11a4.24,4.24,0,1,0-4.24-4.24A4.23,4.23,0,0,0,187,51.87Z"/><path d="M211.23,59.8a1.06,1.06,0,1,1,1.06-1A1.06,1.06,0,0,1,211.23,59.8ZM202.76,45H219.7V56.63H202.76ZM219.7,58.75a2.13,2.13,0,0,0,2.11-2.12V45a2.13,2.13,0,0,0-2.12-2.12H202.76A2.12,2.12,0,0,0,200.65,45V56.63a2.13,2.13,0,0,0,2.11,2.12h-4.23a2.12,2.12,0,0,0,2.12,2.11h21.17a2.12,2.12,0,0,0,2.11-2.11Z"/><text class="d" transform="translate(171.47 35.46)">Sys<tspan class="ah" x="18.74" y="0"> </tspan><tspan x="21.87" y="0">Admin</tspan></text></g></svg>