<svg xmlns="http://www.w3.org/2000/svg" xmlns:xlink="http://www.w3.org/1999/xlink" width="536.57mm" height="193.67mm" viewBox="0 0 1521 549"><defs><style>.a,.ab,.ac,.ae,.af,.c,.f,.j,.k,.l,.n,.o,.q,.r,.t,.u,.v,.x,.z{fill:none;}.b{clip-path:url(#a);}.c,.j{stroke:#000;}.ac,.af,.c,.f,.j,.k,.l,.o,.r,.u,.v,.z{stroke-linecap:round;stroke-linejoin:round;}.af,.c,.f,.k,.u{stroke-width:4px;}.d,.g{font-size:24px;font-weight:700;}.d{font-family:TrebuchetMS-Bold, Trebuchet MS;}.e{letter-spacing:-0.06em;}.ac,.ae,.f{stroke:#b34400;}.g{font-family:Trebuchet-BoldItalic, Trebuchet MS;font-style:italic;}.h{letter-spacing:-0.03em;}.i{fill:#fff;}.j{stroke-width:2px;}.ab,.k,.z{stroke:#b1001c;}.l,.n{stroke:#8d774b;}.ab,.ac,.ae,.l,.n,.o,.q,.r,.t,.v,.x,.z{stroke-width:3px;}.m{fill:#8d774b;}.ab,.ae,.n,.q,.t,.x{stroke-miterlimit:10;}.af,.o,.q{stroke:#003776;}.p{fill:#003776;}.r,.t,.u{stroke:#005c5d;}.s{fill:#005c5d;}.v,.x{stroke:#666;}.w{fill:#666;}.y{letter-spacing:0.03em;}.aa{fill:#b1001c;}.ad{fill:#b34400;}</style><clipPath id="a" transform="translate(-35 -30)"><rect class="a" width="1586" height="609"/></clipPath></defs><title>cluster</title><g class="b"><rect class="c" x="448.5" y="127" width="316" height="420" rx="9"/><rect class="c" x="865.02" y="273" width="249" height="53" rx="9"/><path d="M943.89,323.82a3.85,3.85,0,1,1,3.85-3.85A3.85,3.85,0,0,1,943.89,323.82ZM955.7,322l-4.12-3.49,2.2-4.93a1,1,0,0,0-1.11-1.39l-5.3,1.05-2.48-4.8a1,1,0,0,0-1.78,0l-2.48,4.8-5.3-1.05a1,1,0,0,0-1.11,1.39l2.2,4.93L932.3,322a1,1,0,0,0-.33,1,1,1,0,0,0,.72.75l5.23,1.35.16,5.4a1,1,0,0,0,1.6.77L944,328l4.32,3.24a1,1,0,0,0,.6.2.91.91,0,0,0,.43-.1,1,1,0,0,0,.57-.87l.16-5.4,5.23-1.35A1,1,0,0,0,956,323,1,1,0,0,0,955.7,322Z" transform="translate(-35 -30)"/><path d="M924.11,340.14a3.85,3.85,0,1,1,3.85-3.85A3.85,3.85,0,0,1,924.11,340.14Zm14.63-5.55-4.59-2.16,1.88-4.71a1,1,0,0,0-.16-1,1,1,0,0,0-1-.35l-5,.95-1.25-4.92a1,1,0,0,0-.72-.72,1,1,0,0,0-1,.28l-3.47,3.7-3.9-3.24a1,1,0,0,0-1.64.65l-.64,5-5.06-.33a1,1,0,0,0-.91.46,1,1,0,0,0,0,1l2.44,4.45-4.29,2.71a1,1,0,0,0-.46.9,1,1,0,0,0,.57.84l4.59,2.16L912.3,345a1,1,0,0,0,.16,1,1,1,0,0,0,1,.35l5-.95,1.25,4.92a1,1,0,0,0,.72.72,1.07,1.07,0,0,0,.25,0,1,1,0,0,0,.73-.32l3.47-3.7,3.9,3.24a1,1,0,0,0,1,.16,1,1,0,0,0,.63-.81l.64-5,5.06.33a1,1,0,0,0,.91-.46,1,1,0,0,0,0-1L934.56,339l4.29-2.71a1,1,0,0,0-.11-1.73Z" transform="translate(-35 -30)"/><text class="d" transform="translate(933.02 308)">Compute Node</text><rect class="c" x="36" y="350" width="350" height="53" rx="9"/><path d="M114.87,400.82a3.85,3.85,0,1,1,3.85-3.85A3.85,3.85,0,0,1,114.87,400.82ZM126.68,399l-4.12-3.49,2.2-4.93a1,1,0,0,0-1.11-1.39l-5.3,1.05-2.48-4.8a1,1,0,0,0-1.78,0l-2.48,4.8-5.3-1.05a1,1,0,0,0-1.11,1.39l2.2,4.93L103.28,399a1,1,0,0,0-.33,1,1,1,0,0,0,.72.75l5.23,1.35.16,5.4a1,1,0,0,0,1.6.77L115,405l4.32,3.24a1,1,0,0,0,.6.2.91.91,0,0,0,.43-.1,1,1,0,0,0,.57-.87l.16-5.4,5.23-1.35A1,1,0,0,0,127,400,1,1,0,0,0,126.68,399Z" transform="translate(-35 -30)"/><path d="M95.09,417.14a3.85,3.85,0,1,1,3.85-3.85A3.85,3.85,0,0,1,95.09,417.14Zm14.63-5.55-4.59-2.16,1.88-4.71a1,1,0,0,0-.16-1,1,1,0,0,0-1-.35l-5,.95-1.25-4.92a1,1,0,0,0-.72-.72,1,1,0,0,0-1,.28l-3.47,3.7-3.9-3.24a1,1,0,0,0-1.64.65l-.64,5-5.06-.33a1,1,0,0,0-.91.46,1,1,0,0,0,0,1l2.44,4.45-4.29,2.71a1,1,0,0,0-.46.9,1,1,0,0,0,.57.84l4.59,2.16L83.28,422a1,1,0,0,0,.16,1,1,1,0,0,0,1,.35l5-.95,1.25,4.92a1,1,0,0,0,.72.72,1.07,1.07,0,0,0,.25,0,1,1,0,0,0,.73-.32l3.47-3.7,3.9,3.24a1,1,0,0,0,1,.16,1,1,0,0,0,.63-.81l.64-5L107,422a1,1,0,0,0,.91-.46,1,1,0,0,0,0-1L105.54,416l4.29-2.71a1,1,0,0,0-.11-1.73Z" transform="translate(-35 -30)"/><text class="d" transform="translate(107.49 385)">Deploy<tspan class="e" x="76.66" y="0"> </tspan><tspan x="82.57" y="0">Admin Interface</tspan></text><rect class="f" x="482.5" y="273" width="249" height="53" rx="9"/><text class="g" transform="translate(550.63 308)">prm</text><text class="d" transform="translate(595.64 308)"><tspan xml:space="preserve"> Sto</tspan><tspan class="h" x="42.6" y="0">r</tspan><tspan x="52.11" y="0">age</tspan></text><polygon class="i" points="518.42 278.88 507.18 278.88 507.18 307.28 525.35 307.28 525.35 285.53 518.42 285.53 518.42 278.88"/><polygon class="j" points="518.42 278.88 507.18 278.88 507.18 307.28 525.35 307.28 525.35 285.53 518.42 285.53 518.42 278.88"/><polygon class="i" points="518.42 278.88 518.42 285.53 525.35 285.53 518.42 278.88"/><polygon class="j" points="518.42 278.88 518.42 285.53 525.35 285.53 518.42 278.88"/><polygon class="i" points="511.28 285.3 500.04 285.3 500.04 313.7 518.21 313.7 518.21 291.95 511.28 291.95 511.28 285.3"/><polygon class="j" points="511.28 285.3 500.04 285.3 500.04 313.7 518.21 313.7 518.21 291.95 511.28 291.95 511.28 285.3"/><polygon class="i" points="511.28 285.3 511.28 291.95 518.21 291.95 511.28 285.3"/><polygon class="j" points="511.28 285.3 511.28 291.95 518.21 291.95 511.28 285.3"/><polygon class="i" points="504.14 291.71 492.9 291.71 492.9 320.12 511.07 320.12 511.07 298.37 504.14 298.37 504.14 291.71"/><polygon class="j" points="504.14 291.71 492.9 291.71 492.9 320.12 511.07 320.12 511.07 298.37 504.14 298.37 504.14 291.71"/><polygon class="i" points="504.14 291.71 504.14 298.37 511.07 298.37 504.14 291.71"/><polygon class="j" points="504.14 291.71 504.14 298.37 511.07 298.37 504.14 291.71"/><rect class="k" x="482" y="350" width="249" height="53" rx="9"/><text class="g" transform="translate(549.54 385)">tmp</text><text class="d" transform="translate(594.34 385)"><tspan xml:space="preserve"> Sto</tspan><tspan class="h" x="42.6" y="0">r</tspan><tspan x="52.11" y="0">age</tspan></text><polygon class="i" points="517.92 355.88 506.68 355.88 506.68 384.28 524.85 384.28 524.85 362.53 517.92 362.53 517.92 355.88"/><polygon class="j" points="517.92 355.88 506.68 355.88 506.68 384.28 524.85 384.28 524.85 362.53 517.92 362.53 517.92 355.88"/><polygon class="i" points="517.92 355.88 517.92 362.53 524.85 362.53 517.92 355.88"/><polygon class="j" points="517.92 355.88 517.92 362.53 524.85 362.53 517.92 355.88"/><polygon class="i" points="510.78 362.3 499.54 362.3 499.54 390.7 517.71 390.7 517.71 368.95 510.78 368.95 510.78 362.3"/><polygon class="j" points="510.78 362.3 499.54 362.3 499.54 390.7 517.71 390.7 517.71 368.95 510.78 368.95 510.78 362.3"/><polygon class="i" points="510.78 362.3 510.78 368.95 517.71 368.95 510.78 362.3"/><polygon class="j" points="510.78 362.3 510.78 368.95 517.71 368.95 510.78 362.3"/><polygon class="i" points="503.64 368.71 492.4 368.71 492.4 397.12 510.57 397.12 510.57 375.37 503.64 375.37 503.64 368.71"/><polygon class="j" points="503.64 368.71 492.4 368.71 492.4 397.12 510.57 397.12 510.57 375.37 503.64 375.37 503.64 368.71"/><polygon class="i" points="503.64 368.71 503.64 375.37 510.57 375.37 503.64 368.71"/><polygon class="j" points="503.64 368.71 503.64 375.37 510.57 375.37 503.64 368.71"/><rect class="c" x="865.02" y="196" width="249" height="53" rx="9"/><path d="M943.89,246.82a3.85,3.85,0,1,1,3.85-3.85A3.85,3.85,0,0,1,943.89,246.82ZM955.7,245l-4.12-3.49,2.2-4.93a1,1,0,0,0-1.11-1.39l-5.3,1-2.48-4.8a1,1,0,0,0-1.78,0l-2.48,4.8-5.3-1a1,1,0,0,0-1.11,1.39l2.2,4.93L932.3,245a1,1,0,0,0-.33,1,1,1,0,0,0,.72.75l5.23,1.35.16,5.4a1,1,0,0,0,1.6.77L944,251l4.32,3.24a1,1,0,0,0,.6.2.91.91,0,0,0,.43-.1,1,1,0,0,0,.57-.87l.16-5.4,5.23-1.35A1,1,0,0,0,956,246,1,1,0,0,0,955.7,245Z" transform="translate(-35 -30)"/><path d="M924.11,263.14a3.85,3.85,0,1,1,3.85-3.85A3.85,3.85,0,0,1,924.11,263.14Zm14.63-5.55-4.59-2.16,1.88-4.71a1,1,0,0,0-.16-1,1,1,0,0,0-1-.35l-5,.95-1.25-4.92a1,1,0,0,0-.72-.72,1,1,0,0,0-1,.28l-3.47,3.7-3.9-3.24a1,1,0,0,0-1.64.65l-.64,5-5.06-.33a1,1,0,0,0-.91.46,1,1,0,0,0,0,1l2.44,4.45-4.29,2.71a1,1,0,0,0-.46.9,1,1,0,0,0,.57.84l4.59,2.16L912.3,268a1,1,0,0,0,.16,1,1,1,0,0,0,1,.35l5-.95,1.25,4.92a1,1,0,0,0,.72.72,1.07,1.07,0,0,0,.25,0,1,1,0,0,0,.73-.32l3.47-3.7,3.9,3.24a1,1,0,0,0,1,.16,1,1,0,0,0,.63-.81l.64-5,5.06.33a1,1,0,0,0,.91-.46,1,1,0,0,0,0-1L934.56,262l4.29-2.71a1,1,0,0,0-.11-1.73Z" transform="translate(-35 -30)"/><text class="d" transform="translate(933.02 231)">Compute Node</text><rect class="c" x="865.02" y="350" width="249" height="53" rx="9"/><path d="M943.89,400.82a3.85,3.85,0,1,1,3.85-3.85A3.85,3.85,0,0,1,943.89,400.82ZM955.7,399l-4.12-3.49,2.2-4.93a1,1,0,0,0-1.11-1.39l-5.3,1.05-2.48-4.8a1,1,0,0,0-1.78,0l-2.48,4.8-5.3-1.05a1,1,0,0,0-1.11,1.39l2.2,4.93L932.3,399a1,1,0,0,0-.33,1,1,1,0,0,0,.72.75l5.23,1.35.16,5.4a1,1,0,0,0,1.6.77L944,405l4.32,3.24a1,1,0,0,0,.6.2.91.91,0,0,0,.43-.1,1,1,0,0,0,.57-.87l.16-5.4,5.23-1.35A1,1,0,0,0,956,400,1,1,0,0,0,955.7,399Z" transform="translate(-35 -30)"/><path d="M924.11,417.14a3.85,3.85,0,1,1,3.85-3.85A3.85,3.85,0,0,1,924.11,417.14Zm14.63-5.55-4.59-2.16,1.88-4.71a1,1,0,0,0-.16-1,1,1,0,0,0-1-.35l-5,.95-1.25-4.92a1,1,0,0,0-.72-.72,1,1,0,0,0-1,.28l-3.47,3.7-3.9-3.24a1,1,0,0,0-1.64.65l-.64,5-5.06-.33a1,1,0,0,0-.91.46,1,1,0,0,0,0,1l2.44,4.45-4.29,2.71a1,1,0,0,0-.46.9,1,1,0,0,0,.57.84l4.59,2.16L912.3,422a1,1,0,0,0,.16,1,1,1,0,0,0,1,.35l5-.95,1.25,4.92a1,1,0,0,0,.72.72,1.07,1.07,0,0,0,.25,0,1,1,0,0,0,.73-.32l3.47-3.7,3.9,3.24a1,1,0,0,0,1,.16,1,1,0,0,0,.63-.81l.64-5,5.06.33a1,1,0,0,0,.91-.46,1,1,0,0,0,0-1L934.56,416l4.29-2.71a1,1,0,0,0-.11-1.73Z" transform="translate(-35 -30)"/><text class="d" transform="translate(933.02 385)">Compute Node</text><path class="l" d="M643.48,141.22c4.58-15.67,17.92-20.55,49.19-20.55,40,0,49.33-10.67,48.83-35.67" transform="translate(-35 -30)"/><polygon class="m" points="607.09 122.34 612.65 111.75 604.31 110.7 607.09 122.34"/><polygon class="n" points="607.09 122.34 612.65 111.75 604.31 110.7 607.09 122.34"/><path class="o" d="M436.76,395.54c19.58-5.44,35.78-22.85,35-69.79-.81-47.92,9.2-57.25,29.36-59.33" transform="translate(-35 -30)"/><polygon class="p" points="477.3 235.95 465.94 232.23 466.29 240.62 477.3 235.95"/><polygon class="q" points="477.3 235.95 465.94 232.23 466.29 240.62 477.3 235.95"/><polygon class="p" points="390.66 367.04 402.32 369.7 401.2 361.38 390.66 367.04"/><polygon class="q" points="390.66 367.04 402.32 369.7 401.2 361.38 390.66 367.04"/><path class="r" d="M421,521.81c15.75-.56,33-4.06,45.5,4.44,8.93,6.07,21.82,8.32,35.1,8.85" transform="translate(-35 -30)"/><polygon class="s" points="477.8 505.07 466.59 500.9 466.61 509.3 477.8 505.07"/><polygon class="t" points="477.8 505.07 466.59 500.9 466.61 509.3 477.8 505.07"/><rect class="u" x="482.5" y="465.31" width="249" height="53" rx="9"/><text class="g" transform="translate(550.63 500.31)">apps</text><text class="d" transform="translate(604.61 500.31)"><tspan xml:space="preserve"> Sto</tspan><tspan class="h" x="42.6" y="0">r</tspan><tspan x="52.11" y="0">age</tspan></text><polygon class="i" points="518.42 471.19 507.18 471.19 507.18 499.59 525.35 499.59 525.35 477.84 518.42 477.84 518.42 471.19"/><polygon class="j" points="518.42 471.19 507.18 471.19 507.18 499.59 525.35 499.59 525.35 477.84 518.42 477.84 518.42 471.19"/><polygon class="i" points="518.42 471.19 518.42 477.84 525.35 477.84 518.42 471.19"/><polygon class="j" points="518.42 471.19 518.42 477.84 525.35 477.84 518.42 471.19"/><polygon class="i" points="511.28 477.61 500.04 477.61 500.04 506.01 518.21 506.01 518.21 484.26 511.28 484.26 511.28 477.61"/><polygon class="j" points="511.28 477.61 500.04 477.61 500.04 506.01 518.21 506.01 518.21 484.26 511.28 484.26 511.28 477.61"/><polygon class="i" points="511.28 477.61 511.28 484.26 518.21 484.26 511.28 477.61"/><polygon class="j" points="511.28 477.61 511.28 484.26 518.21 484.26 511.28 477.61"/><polygon class="i" points="504.14 484.02 492.9 484.02 492.9 512.43 511.07 512.43 511.07 490.68 504.14 490.68 504.14 484.02"/><polygon class="j" points="504.14 484.02 492.9 484.02 492.9 512.43 511.07 512.43 511.07 490.68 504.14 490.68 504.14 484.02"/><polygon class="i" points="504.14 484.02 504.14 490.68 511.07 490.68 504.14 484.02"/><polygon class="j" points="504.14 484.02 504.14 490.68 511.07 490.68 504.14 484.02"/><line class="v" x1="211" y1="405" x2="211" y2="447.41"/><polygon class="w" points="211 458.61 215.2 447.41 206.8 447.41 211 458.61"/><polygon class="x" points="211 458.61 215.2 447.41 206.8 447.41 211 458.61"/><rect class="c" x="36" y="465.31" width="350" height="53" rx="9"/><text class="g" transform="translate(107.49 500.31)">apps</text><text class="d" transform="translate(161.46 500.31)"><tspan xml:space="preserve"> Sto</tspan><tspan class="h" x="42.6" y="0">r</tspan><tspan x="52.11" y="0">age (local)</tspan></text><polygon class="i" points="71.92 471.19 60.68 471.19 60.68 499.59 78.85 499.59 78.85 477.84 71.92 477.84 71.92 471.19"/><polygon class="j" points="71.92 471.19 60.68 471.19 60.68 499.59 78.85 499.59 78.85 477.84 71.92 477.84 71.92 471.19"/><polygon class="i" points="71.92 471.19 71.92 477.84 78.85 477.84 71.92 471.19"/><polygon class="j" points="71.92 471.19 71.92 477.84 78.85 477.84 71.92 471.19"/><polygon class="i" points="64.78 477.61 53.54 477.61 53.54 506.01 71.71 506.01 71.71 484.26 64.78 484.26 64.78 477.61"/><polygon class="j" points="64.78 477.61 53.54 477.61 53.54 506.01 71.71 506.01 71.71 484.26 64.78 484.26 64.78 477.61"/><polygon class="i" points="64.78 477.61 64.78 484.26 71.71 484.26 64.78 477.61"/><polygon class="j" points="64.78 477.61 64.78 484.26 71.71 484.26 64.78 477.61"/><polygon class="i" points="57.64 484.02 46.4 484.02 46.4 512.43 64.57 512.43 64.57 490.68 57.64 490.68 57.64 484.02"/><polygon class="j" points="57.64 484.02 46.4 484.02 46.4 512.43 64.57 512.43 64.57 490.68 57.64 490.68 57.64 484.02"/><polygon class="i" points="57.64 484.02 57.64 490.68 64.57 490.68 57.64 484.02"/><polygon class="j" points="57.64 484.02 57.64 490.68 64.57 490.68 57.64 484.02"/><rect class="c" x="139.03" y="273" width="246.97" height="53" rx="9"/><path d="M217.91,323.82a3.85,3.85,0,1,1,3.85-3.85A3.85,3.85,0,0,1,217.91,323.82ZM229.72,322l-4.12-3.49,2.2-4.93a1,1,0,0,0-1.11-1.39l-5.3,1.05-2.48-4.8a1,1,0,0,0-1.78,0l-2.48,4.8-5.3-1.05a1,1,0,0,0-1.11,1.39l2.2,4.93L206.32,322a1,1,0,0,0-.33,1,1,1,0,0,0,.72.75l5.23,1.35.16,5.4a1,1,0,0,0,1.6.77L218,328l4.32,3.24a1,1,0,0,0,.6.2.91.91,0,0,0,.43-.1,1,1,0,0,0,.57-.87l.16-5.4,5.23-1.35a1,1,0,0,0,.72-.75A1,1,0,0,0,229.72,322Z" transform="translate(-35 -30)"/><path d="M198.13,340.14a3.85,3.85,0,1,1,3.85-3.85A3.85,3.85,0,0,1,198.13,340.14Zm14.63-5.55-4.59-2.16,1.88-4.71a1,1,0,0,0-.16-1,1,1,0,0,0-1-.35l-5,.95-1.25-4.92a1,1,0,0,0-.72-.72,1,1,0,0,0-1,.28l-3.47,3.7-3.9-3.24a1,1,0,0,0-1.64.65l-.64,5-5.06-.33a1,1,0,0,0-.91.46,1,1,0,0,0,0,1l2.44,4.45-4.29,2.71a1,1,0,0,0-.46.9,1,1,0,0,0,.57.84l4.59,2.16L186.32,345a1,1,0,0,0,.16,1,1,1,0,0,0,1,.35l5-.95,1.25,4.92a1,1,0,0,0,.72.72,1.07,1.07,0,0,0,.25,0,1,1,0,0,0,.73-.32l3.47-3.7,3.9,3.24a1,1,0,0,0,1,.16,1,1,0,0,0,.63-.81l.64-5,5.06.33a1,1,0,0,0,.91-.46,1,1,0,0,0,0-1L208.58,339l4.29-2.71a1,1,0,0,0-.11-1.73Z" transform="translate(-35 -30)"/><text class="d" transform="translate(210.52 308)">User Interface</text><path class="o" d="M436.56,310.31c13.78-3.54,22.19-9.88,22.19-37.19,0-28.09,22.83-33,42.35-33.78" transform="translate(-35 -30)"/><polygon class="p" points="477.3 209.28 466.07 205.14 466.13 213.54 477.3 209.28"/><polygon class="q" points="477.3 209.28 466.07 205.14 466.13 213.54 477.3 209.28"/><polygon class="p" points="390.6 282.63 402.43 284.42 400.69 276.2 390.6 282.63"/><polygon class="q" points="390.6 282.63 402.43 284.42 400.69 276.2 390.6 282.63"/><text class="d" transform="translate(467.48 170.13)">Shared Sto<tspan class="h" x="119.86" y="0">r</tspan><tspan x="129.37" y="0">age De</tspan><tspan class="y" x="204.44" y="0">v</tspan><tspan x="217.84" y="0">ice(s)</tspan></text><rect class="c" x="1191.52" y="196" width="289.04" height="53" rx="9"/><text class="g" transform="translate(1263 231)">scr</text><text class="d" transform="translate(1296.57 231)"><tspan xml:space="preserve"> Sto</tspan><tspan class="h" x="42.6" y="0">r</tspan><tspan x="52.11" y="0">age (local)</tspan></text><polygon class="i" points="1227.44 201.88 1216.2 201.88 1216.2 230.28 1234.37 230.28 1234.37 208.53 1227.44 208.53 1227.44 201.88"/><polygon class="j" points="1227.44 201.88 1216.2 201.88 1216.2 230.28 1234.37 230.28 1234.37 208.53 1227.44 208.53 1227.44 201.88"/><polygon class="i" points="1227.44 201.88 1227.44 208.53 1234.37 208.53 1227.44 201.88"/><polygon class="j" points="1227.44 201.88 1227.44 208.53 1234.37 208.53 1227.44 201.88"/><polygon class="i" points="1220.3 208.3 1209.06 208.3 1209.06 236.7 1227.23 236.7 1227.23 214.95 1220.3 214.95 1220.3 208.3"/><polygon class="j" points="1220.3 208.3 1209.06 208.3 1209.06 236.7 1227.23 236.7 1227.23 214.95 1220.3 214.95 1220.3 208.3"/><polygon class="i" points="1220.3 208.3 1220.3 214.95 1227.23 214.95 1220.3 208.3"/><polygon class="j" points="1220.3 208.3 1220.3 214.95 1227.23 214.95 1220.3 208.3"/><polygon class="i" points="1213.16 214.71 1201.92 214.71 1201.92 243.12 1220.09 243.12 1220.09 221.37 1213.16 221.37 1213.16 214.71"/><polygon class="j" points="1213.16 214.71 1201.92 214.71 1201.92 243.12 1220.09 243.12 1220.09 221.37 1213.16 221.37 1213.16 214.71"/><polygon class="i" points="1213.16 214.71 1213.16 221.37 1220.09 221.37 1213.16 214.71"/><polygon class="j" points="1213.16 214.71 1213.16 221.37 1220.09 221.37 1213.16 214.71"/><rect class="c" x="1191.52" y="273" width="289.04" height="53" rx="9"/><text class="g" transform="translate(1263 308)">scr</text><text class="d" transform="translate(1296.57 308)"><tspan xml:space="preserve"> Sto</tspan><tspan class="h" x="42.6" y="0">r</tspan><tspan x="52.11" y="0">age (local)</tspan></text><polygon class="i" points="1227.44 278.88 1216.2 278.88 1216.2 307.28 1234.37 307.28 1234.37 285.53 1227.44 285.53 1227.44 278.88"/><polygon class="j" points="1227.44 278.88 1216.2 278.88 1216.2 307.28 1234.37 307.28 1234.37 285.53 1227.44 285.53 1227.44 278.88"/><polygon class="i" points="1227.44 278.88 1227.44 285.53 1234.37 285.53 1227.44 278.88"/><polygon class="j" points="1227.44 278.88 1227.44 285.53 1234.37 285.53 1227.44 278.88"/><polygon class="i" points="1220.3 285.3 1209.06 285.3 1209.06 313.7 1227.23 313.7 1227.23 291.95 1220.3 291.95 1220.3 285.3"/><polygon class="j" points="1220.3 285.3 1209.06 285.3 1209.06 313.7 1227.23 313.7 1227.23 291.95 1220.3 291.95 1220.3 285.3"/><polygon class="i" points="1220.3 285.3 1220.3 291.95 1227.23 291.95 1220.3 285.3"/><polygon class="j" points="1220.3 285.3 1220.3 291.95 1227.23 291.95 1220.3 285.3"/><polygon class="i" points="1213.16 291.71 1201.92 291.71 1201.92 320.12 1220.09 320.12 1220.09 298.37 1213.16 298.37 1213.16 291.71"/><polygon class="j" points="1213.16 291.71 1201.92 291.71 1201.92 320.12 1220.09 320.12 1220.09 298.37 1213.16 298.37 1213.16 291.71"/><polygon class="i" points="1213.16 291.71 1213.16 298.37 1220.09 298.37 1213.16 291.71"/><polygon class="j" points="1213.16 291.71 1213.16 298.37 1220.09 298.37 1213.16 291.71"/><rect class="c" x="1191.52" y="350" width="289.04" height="53" rx="9"/><text class="g" transform="translate(1263 385)">scr</text><text class="d" transform="translate(1296.57 385)"><tspan xml:space="preserve"> Sto</tspan><tspan class="h" x="42.6" y="0">r</tspan><tspan x="52.11" y="0">age (local)</tspan></text><polygon class="i" points="1227.44 355.88 1216.2 355.88 1216.2 384.28 1234.37 384.28 1234.37 362.53 1227.44 362.53 1227.44 355.88"/><polygon class="j" points="1227.44 355.88 1216.2 355.88 1216.2 384.28 1234.37 384.28 1234.37 362.53 1227.44 362.53 1227.44 355.88"/><polygon class="i" points="1227.44 355.88 1227.44 362.53 1234.37 362.53 1227.44 355.88"/><polygon class="j" points="1227.44 355.88 1227.44 362.53 1234.37 362.53 1227.44 355.88"/><polygon class="i" points="1220.3 362.3 1209.06 362.3 1209.06 390.7 1227.23 390.7 1227.23 368.95 1220.3 368.95 1220.3 362.3"/><polygon class="j" points="1220.3 362.3 1209.06 362.3 1209.06 390.7 1227.23 390.7 1227.23 368.95 1220.3 368.95 1220.3 362.3"/><polygon class="i" points="1220.3 362.3 1220.3 368.95 1227.23 368.95 1220.3 362.3"/><polygon class="j" points="1220.3 362.3 1220.3 368.95 1227.23 368.95 1220.3 362.3"/><polygon class="i" points="1213.16 368.71 1201.92 368.71 1201.92 397.12 1220.09 397.12 1220.09 375.37 1213.16 375.37 1213.16 368.71"/><polygon class="j" points="1213.16 368.71 1201.92 368.71 1201.92 397.12 1220.09 397.12 1220.09 375.37 1213.16 375.37 1213.16 368.71"/><polygon class="i" points="1213.16 368.71 1213.16 375.37 1220.09 375.37 1213.16 368.71"/><polygon class="j" points="1213.16 368.71 1213.16 375.37 1220.09 375.37 1213.16 368.71"/><line class="v" x1="1129.92" y1="376.5" x2="1175.62" y2="376.5"/><polygon class="w" points="1186.82 376.5 1175.62 372.3 1175.62 380.7 1186.82 376.5"/><polygon class="x" points="1186.82 376.5 1175.62 372.3 1175.62 380.7 1186.82 376.5"/><polygon class="w" points="1118.72 376.5 1129.92 380.7 1129.92 372.3 1118.72 376.5"/><polygon class="x" points="1118.72 376.5 1129.92 380.7 1129.92 372.3 1118.72 376.5"/><line class="v" x1="1129.92" y1="299.5" x2="1173.62" y2="299.5"/><polygon class="w" points="1184.82 299.5 1173.62 295.3 1173.62 303.7 1184.82 299.5"/><polygon class="x" points="1184.82 299.5 1173.62 295.3 1173.62 303.7 1184.82 299.5"/><polygon class="w" points="1118.72 299.5 1129.92 303.7 1129.92 295.3 1118.72 299.5"/><polygon class="x" points="1118.72 299.5 1129.92 303.7 1129.92 295.3 1118.72 299.5"/><line class="v" x1="1129.92" y1="222.5" x2="1173.62" y2="222.5"/><polygon class="w" points="1184.82 222.5 1173.62 218.3 1173.62 226.7 1184.82 222.5"/><polygon class="x" points="1184.82 222.5 1173.62 218.3 1173.62 226.7 1184.82 222.5"/><polygon class="w" points="1118.72 222.5 1129.92 226.7 1129.92 218.3 1118.72 222.5"/><polygon class="x" points="1118.72 222.5 1129.92 226.7 1129.92 218.3 1118.72 222.5"/><path class="r" d="M766.5,508.56c37.75-1.31,57.25-7.31,60.25-121.56,2.58-98.34,25.92-116.48,57.4-120.26" transform="translate(-35 -30)"/><polygon class="s" points="860.33 236.04 848.89 232.55 849.41 240.93 860.33 236.04"/><polygon class="t" points="860.33 236.04 848.89 232.55 849.41 240.93 860.33 236.04"/><path class="z" d="M436.8,336.59c15.08,2.85,29.52,10.48,29.7,35.16.18,24.53,18.46,31.9,34.62,34" transform="translate(-35 -30)"/><polygon class="aa" points="477.31 376.28 466.32 371.55 465.92 379.94 477.31 376.28"/><polygon class="ab" points="477.31 376.28 466.32 371.55 465.92 379.94 477.31 376.28"/><polygon class="aa" points="390.67 305.33 401.33 310.76 402.27 302.42 390.67 305.33"/><polygon class="ab" points="390.67 305.33 401.33 310.76 402.27 302.42 390.67 305.33"/><path class="ac" d="M436.9,324c10.78-.2,19.78-1.06,29.6-6.23s22.75-3.91,35.13-2.63" transform="translate(-35 -30)"/><polygon class="ad" points="477.81 285.92 466.94 280.93 466.34 289.31 477.81 285.92"/><polygon class="ae" points="477.81 285.92 466.94 280.93 466.34 289.31 477.81 285.92"/><polygon class="ad" points="390.7 294.14 401.96 298.18 401.84 289.78 390.7 294.14"/><polygon class="ae" points="390.7 294.14 401.96 298.18 401.84 289.78 390.7 294.14"/><path class="o" d="M781.83,267.31c18.53,2.24,38.73,9.85,38.92,58.94.2,52.52,36.45,63.29,63.4,66" transform="translate(-35 -30)"/><polygon class="p" points="860.33 362.96 849.41 358.07 848.89 366.45 860.33 362.96"/><polygon class="q" points="860.33 362.96 849.41 358.07 848.89 366.45 860.33 362.96"/><polygon class="p" points="735.68 236.21 746.41 241.49 747.24 233.13 735.68 236.21"/><polygon class="q" points="735.68 236.21 746.41 241.49 747.24 233.13 735.68 236.21"/><path class="o" d="M781.91,252.36c22.47.18,40.22,3.9,46.34,34.89,5.8,29.41,34.67,30.67,55.89,29.73" transform="translate(-35 -30)"/><polygon class="p" points="860.32 286.47 848.94 282.79 849.33 291.18 860.32 286.47"/><polygon class="q" points="860.32 286.47 848.94 282.79 849.33 291.18 860.32 286.47"/><polygon class="p" points="735.7 222.46 746.94 226.56 746.86 218.16 735.7 222.46"/><polygon class="q" points="735.7 222.46 746.94 226.56 746.86 218.16 735.7 222.46"/><path class="o" d="M781.9,239.25H884.12" transform="translate(-35 -30)"/><polygon class="p" points="860.32 209.25 849.12 205.05 849.12 213.45 860.32 209.25"/><polygon class="q" points="860.32 209.25 849.12 205.05 849.12 213.45 860.32 209.25"/><polygon class="p" points="735.7 209.25 746.9 213.45 746.9 205.05 735.7 209.25"/><polygon class="q" points="735.7 209.25 746.9 213.45 746.9 205.05 735.7 209.25"/><rect class="af" x="482" y="196" width="249" height="53" rx="9"/><text class="g" transform="translate(550.13 231)">home</text><text class="d" transform="translate(610.46 231)"><tspan xml:space="preserve"> Sto</tspan><tspan class="h" x="42.6" y="0">r</tspan><tspan x="52.11" y="0">age</tspan></text><path class="z" d="M781.88,420.67c14.28.78,31.75.82,41.87-6.39,10.75-7.66,40.52-7.88,60.36-7.75" transform="translate(-35 -30)"/><polygon class="aa" points="860.32 376.51 849.11 372.33 849.13 380.73 860.32 376.51"/><polygon class="ab" points="860.32 376.51 849.11 372.33 849.13 380.73 860.32 376.51"/><polygon class="aa" points="735.69 390.02 746.63 394.86 747.12 386.47 735.69 390.02"/><polygon class="ab" points="735.69 390.02 746.63 394.86 747.12 386.47 735.69 390.02"/><path class="z" d="M781.88,405.69c15.4.23,34.63-1.78,38.87-37.44,4.56-38.37,40.83-38.07,63.4-37.79" transform="translate(-35 -30)"/><polygon class="aa" points="860.33 299.78 848.89 296.27 849.4 304.65 860.33 299.78"/><polygon class="ab" points="860.33 299.78 848.89 296.27 849.4 304.65 860.33 299.78"/><polygon class="aa" points="735.69 376.26 747.09 379.88 746.66 371.5 735.69 376.26"/><polygon class="ab" points="735.69 376.26 747.09 379.88 746.66 371.5 735.69 376.26"/><path class="z" d="M781.89,392.4c15.29.43,33.86-4.55,30.36-70.69-4-76.14,43.9-68.8,71.94-67.67" transform="translate(-35 -30)"/><polygon class="aa" points="860.34 222.95 848.79 219.86 849.6 228.22 860.34 222.95"/><polygon class="ab" points="860.34 222.95 848.79 219.86 849.6 228.22 860.34 222.95"/><polygon class="aa" points="735.69 363 747.1 366.59 746.65 358.2 735.69 363"/><polygon class="ab" points="735.69 363 747.1 366.59 746.65 358.2 735.69 363"/><path class="r" d="M766.5,521.81c23.75-.06,66.75,12.44,69.25-84.56,1.94-75.14,27.88-89.67,48.43-93.1" transform="translate(-35 -30)"/><polygon class="s" points="860.34 313.16 848.81 309.96 849.55 318.33 860.34 313.16"/><polygon class="t" points="860.34 313.16 848.81 309.96 849.55 318.33 860.34 313.16"/><path class="r" d="M766.5,535.06c39.75,2.19,78.75-3,78.75-59.42,0-43.4,20.16-52.51,38.9-54.86" transform="translate(-35 -30)"/><polygon class="s" points="860.33 390.06 848.88 386.59 849.42 394.97 860.33 390.06"/><polygon class="t" points="860.33 390.06 848.88 386.59 849.42 394.97 860.33 390.06"/><path class="r" d="M436.42,349.3c12.87,4.76,23.45,18,21.83,76.7-2.25,81.5,34,81.75,59.25,82.56" transform="translate(-35 -30)"/><polygon class="s" points="390.56 316.55 400.38 323.37 402.44 315.23 390.56 316.55"/><polygon class="t" points="390.56 316.55 400.38 323.37 402.44 315.23 390.56 316.55"/><polygon points="508.9 239.5 508.9 227.5 516.9 227.5 516.9 239.5 526.9 239.5 526.9 223.5 532.9 223.5 512.9 205.5 492.9 223.5 498.9 223.5 498.9 239.5 508.9 239.5"/><rect class="c" x="619" y="2" width="350" height="53" rx="9"/><text class="d" transform="translate(690.49 37)">Sys<tspan class="e" x="35.41" y="0"> </tspan><tspan x="41.32" y="0">Admin Interface</tspan></text><path d="M698.37,52.82A3.85,3.85,0,1,1,702.22,49,3.85,3.85,0,0,1,698.37,52.82ZM710.18,51l-4.12-3.49,2.2-4.93a1,1,0,0,0-1.11-1.39l-5.3,1.05-2.48-4.8a1,1,0,0,0-1.78,0l-2.48,4.8-5.3-1.05a1,1,0,0,0-1.11,1.39l2.2,4.93L686.78,51a1,1,0,0,0-.33,1,1,1,0,0,0,.72.75l5.23,1.35.16,5.4a1,1,0,0,0,1.6.77L698.48,57l4.32,3.24a1,1,0,0,0,.6.2.91.91,0,0,0,.43-.1,1,1,0,0,0,.57-.87l.16-5.4,5.23-1.35a1,1,0,0,0,.72-.75A1,1,0,0,0,710.18,51Z" transform="translate(-35 -30)"/><path d="M678.59,69.14a3.85,3.85,0,1,1,3.85-3.85A3.85,3.85,0,0,1,678.59,69.14Zm14.63-5.55-4.59-2.16,1.88-4.71a1,1,0,0,0-.16-1,1,1,0,0,0-1-.35l-5,1-1.25-4.92a1,1,0,0,0-.72-.72,1,1,0,0,0-1,.28L678,54.65l-3.9-3.24a1,1,0,0,0-1.64.65l-.64,5-5.06-.33a1,1,0,0,0-.91.46,1,1,0,0,0,0,1l2.44,4.45L664,65.4a1,1,0,0,0-.46.9,1,1,0,0,0,.57.84l4.59,2.16L666.78,74a1,1,0,0,0,.16,1,1,1,0,0,0,1,.35l5-1,1.25,4.92a1,1,0,0,0,.72.72,1.07,1.07,0,0,0,.25,0,1,1,0,0,0,.73-.32l3.47-3.7,3.9,3.24a1,1,0,0,0,1,.16,1,1,0,0,0,.63-.81l.64-5,5.06.33a1,1,0,0,0,.91-.46,1,1,0,0,0,0-1L689,68l4.29-2.71a1,1,0,0,0-.11-1.73Z" transform="translate(-35 -30)"/><path class="l" d="M307.74,226.45c-.57,27.05,6.43,38.05,61.74,37.88s75.78-24.88,76.19-90.88C446.06,109.23,452,61.63,638.1,58.64" transform="translate(-35 -30)"/><polygon class="m" points="614.3 28.54 603.06 24.45 603.14 32.84 614.3 28.54"/><polygon class="n" points="614.3 28.54 603.06 24.45 603.14 32.84 614.3 28.54"/><path class="l" d="M246,226.45c1,21.88-4.19,23.22-15.93,34.55-8.4,8.11-7.71,14.86-7,26.1" transform="translate(-35 -30)"/><polygon class="m" points="188.33 268.3 192.29 257.01 183.89 257.19 188.33 268.3"/><polygon class="n" points="188.33 268.3 192.29 257.01 183.89 257.19 188.33 268.3"/><path class="l" d="M184.26,226.45c.48,31.05-13.89,51.88-35.93,52.55-19.55.59-21.33,43.06-19.74,85.11" transform="translate(-35 -30)"/><polygon class="m" points="94.11 345.31 97.79 333.92 89.4 334.31 94.11 345.31"/><polygon class="n" points="94.11 345.31 97.79 333.92 89.4 334.31 94.11 345.31"/><path class="l" d="M264.92,115c-.59,11.33-.59,18.67-7.25,25.33a35.64,35.64,0,0,0-9.79,17.34" transform="translate(-35 -30)"/><polygon class="m" points="211.56 138.79 217.05 128.16 208.71 127.17 211.56 138.79"/><polygon class="n" points="211.56 138.79 217.05 128.16 208.71 127.17 211.56 138.79"/><rect class="c" x="87.52" y="143.45" width="246.97" height="53" rx="9"/><text class="d" transform="translate(161.33 178.45)">Jumphost</text><path d="M154.48,193v-8l14,14-14,14v-8.2c-10,0-17,3.2-22,10.2C134.48,205,140.48,195,154.48,193Zm12-2v-6l14,14-14,14v-6l8-8Z" transform="translate(-35 -30)"/><path d="M334,208.64l-7.21-7.21,2.54-2.55,4.67,4.66,11.88-11.89,2.54,2.56Zm3.61-28.85L321.4,187v10.82c0,10,6.92,19.36,16.23,21.63,9.3-2.27,16.22-11.62,16.22-21.63V187Z" transform="translate(-35 -30)"/><rect class="c" x="827" y="127" width="692" height="306" rx="9"/><text class="d" transform="translate(1085.16 170.13)">Compute Nodes</text><path class="l" d="M1022,141.16c-4.56-16.15-20.57-17.83-53.34-17.83C927.33,123.33,918,122,916.5,85" transform="translate(-35 -30)"/><polygon class="m" points="987.94 122.32 991.19 110.81 982.82 111.5 987.94 122.32"/><polygon class="n" points="987.94 122.32 991.19 110.81 982.82 111.5 987.94 122.32"/><path class="l" d="M130.75,115c-.18,24,4.92,22,27.58,22.67,18.22.53,23.83,2.36,25.39,19.89" transform="translate(-35 -30)"/><polygon class="m" points="149.1 138.76 152.91 127.42 144.52 127.71 149.1 138.76"/><polygon class="n" points="149.1 138.76 152.91 127.42 144.52 127.71 149.1 138.76"/><text class="d" transform="translate(185.68 37)">User</text><path d="M219.08,102c-5.34,0-16,2.68-16,8v4h32v-4C235.08,104.68,224.42,102,219.08,102Zm0-4a8,8,0,1,0-8-8A8,8,0,0,0,219.08,98Z" transform="translate(-35 -30)"/><path d="M264.92,113a2,2,0,1,1,2-2A2,2,0,0,1,264.92,113Zm-16-28h32v22h-32Zm32,26a4,4,0,0,0,4-4l0-22a4,4,0,0,0-4-4h-32a4,4,0,0,0-4,4v22a4,4,0,0,0,4,4h-8a4,4,0,0,0,4,4h40a4,4,0,0,0,4-4Z" transform="translate(-35 -30)"/><text class="d" transform="translate(0 37)">Deploy<tspan class="e" x="76.66" y="0"> </tspan><tspan x="82.57" y="0">Admin</tspan></text><path d="M84.9,102c-5.34,0-16,2.68-16,8v4h32v-4C100.9,104.68,90.24,102,84.9,102Zm0-4a8,8,0,1,0-8-8A8,8,0,0,0,84.9,98Z" transform="translate(-35 -30)"/><path d="M130.75,113a2,2,0,1,1,2-2A2,2,0,0,1,130.75,113Zm-16-28h32v22h-32Zm32,26a4,4,0,0,0,4-4l0-22a4,4,0,0,0-4-4h-32a4,4,0,0,0-4,4v22a4,4,0,0,0,4,4h-8a4,4,0,0,0,4,4h40a4,4,0,0,0,4-4Z" transform="translate(-35 -30)"/><path class="l" d="M399.13,115c-.19,24-3.46,24-45.46,24-32.37,0-42.19,1.19-44.94,16.58" transform="translate(-35 -30)"/><polygon class="m" points="273.03 136.76 277.92 125.84 269.54 125.32 273.03 136.76"/><polygon class="n" points="273.03 136.76 277.92 125.85 269.54 125.32 273.03 136.76"/><path d="M353.28,102c-5.34,0-16,2.68-16,8v4h32v-4C369.28,104.68,358.62,102,353.28,102Zm0-4a8,8,0,1,0-8-8A8,8,0,0,0,353.28,98Z" transform="translate(-35 -30)"/><path d="M399.13,113a2,2,0,1,1,2-2A2,2,0,0,1,399.13,113Zm-16-28h32v22h-32Zm32,26a4,4,0,0,0,4-4l0-22a4,4,0,0,0-4-4h-32a4,4,0,0,0-4,4v22a4,4,0,0,0,4,4h-8a4,4,0,0,0,4,4h40a4,4,0,0,0,4-4Z" transform="translate(-35 -30)"/><text class="d" transform="translate(289 37)">Sys<tspan class="e" x="35.41" y="0"> </tspan><tspan x="41.32" y="0">Admin</tspan></text></g></svg>