<svg xmlns="http://www.w3.org/2000/svg" xmlns:xlink="http://www.w3.org/1999/xlink" width="425.73mm" height="76.55mm" viewBox="0 0 1206.81 217"><defs><style>.a,.d,.g,.j,.l,.m,.n,.p,.r{fill:none;}.b{clip-path:url(#a);}.c,.h,.i,.t{fill:#fff;}.c{opacity:0.8;}.d{stroke:#000;}.d,.g,.j,.m,.n,.p{stroke-linecap:round;stroke-linejoin:round;}.d,.g{stroke-width:4px;}.e,.t{font-size:24px;font-family:TrebuchetMS-Bold, Trebuchet MS;font-weight:700;}.f{fill:#eed7b5;}.g{stroke:#a5a5a5;}.h{opacity:0.8;}.j,.l,.m,.n{stroke:#003776;}.j,.l,.m,.n,.p,.r{stroke-width:3px;}.k{fill:#003776;}.l,.r{stroke-miterlimit:10;}.m{stroke-dasharray:12 12;}.n{stroke-dasharray:6 6;}.o{font-size:16px;font-family:TrebuchetMS, Trebuchet MS;}.p,.r{stroke:#d88300;}.q{fill:#d88300;}.s{fill:#666;}</style><clipPath id="a" transform="translate(-30.16 -30)"><rect class="a" width="1267" height="277"/></clipPath></defs><title>data-transfers</title><g class="b"><rect class="c" x="957.84" y="77.45" width="246.96" height="108" rx="9"/><rect class="d" x="957.84" y="77.45" width="246.96" height="108" rx="9"/><path d="M1031.87,128.28a3.85,3.85,0,1,1,3.85-3.85A3.85,3.85,0,0,1,1031.87,128.28Zm11.81-1.86-4.12-3.49,2.2-4.93a1,1,0,0,0-1.11-1.39l-5.3,1-2.48-4.8a1,1,0,0,0-1.78,0l-2.48,4.8-5.3-1a1,1,0,0,0-1.11,1.39l2.2,4.93-4.12,3.49a1,1,0,0,0-.33,1,1,1,0,0,0,.72.75l5.23,1.35.16,5.4a1,1,0,0,0,1.6.77l4.32-3.24,4.32,3.24a1,1,0,0,0,.6.2.91.91,0,0,0,.43-.1,1,1,0,0,0,.57-.87l.16-5.4,5.23-1.35a1,1,0,0,0,.72-.75A1,1,0,0,0,1043.68,126.42Z" transform="translate(-30.16 -30)"/><path d="M1012.09,144.6a3.85,3.85,0,1,1,3.85-3.85A3.85,3.85,0,0,1,1012.09,144.6Zm14.63-5.55-4.59-2.16,1.88-4.71a1,1,0,0,0-.16-1,1,1,0,0,0-1-.35l-5,1-1.25-4.92a1,1,0,0,0-.72-.72,1,1,0,0,0-1,.28l-3.47,3.7-3.9-3.24a1,1,0,0,0-1.64.65l-.64,5-5.06-.33a1,1,0,0,0-.91.46,1,1,0,0,0,0,1l2.44,4.45-4.29,2.71a1,1,0,0,0-.46.9,1,1,0,0,0,.57.84l4.59,2.16-1.88,4.71a1,1,0,0,0,.16,1,1,1,0,0,0,1,.35l5-1,1.25,4.92a1,1,0,0,0,.72.72,1.07,1.07,0,0,0,.25,0,1,1,0,0,0,.73-.32l3.47-3.7,3.9,3.24a1,1,0,0,0,1,.16,1,1,0,0,0,.63-.81l.64-5,5.06.33a1,1,0,0,0,.91-.46,1,1,0,0,0,0-1l-2.44-4.45,4.29-2.71a1,1,0,0,0-.11-1.73Z" transform="translate(-30.16 -30)"/><text class="e" transform="translate(1029.33 112.45)">Other Server</text><rect class="c" x="2" y="77.45" width="194.97" height="108" rx="9"/><rect class="d" x="2" y="77.45" width="194.97" height="108" rx="9"/><text class="e" transform="translate(66.16 112.31)">User</text><path d="M63.28,142c-5.34,0-16,2.68-16,8v4h32v-4C79.28,144.68,68.62,142,63.28,142Zm0-4a8,8,0,1,0-8-8A8,8,0,0,0,63.28,138Z" transform="translate(-30.16 -30)"/><path d="M188,151.45a2,2,0,1,1,2-2A2,2,0,0,1,188,151.45Zm-16-28h32v22H172Zm32,26a4,4,0,0,0,4-4l0-22a4,4,0,0,0-4-4H172a4,4,0,0,0-4,4v22a4,4,0,0,0,4,4h-8a4,4,0,0,0,4,4h40a4,4,0,0,0,4-4Z" transform="translate(-30.16 -30)"/><rect class="f" x="270.16" y="2" width="614.49" height="213" rx="9"/><rect class="g" x="270.16" y="2" width="614.49" height="213" rx="9"/><rect class="f" x="507.48" y="17.13" width="139.84" height="39"/><text class="e" transform="translate(512.48 45.13)">HPC cluster</text><rect class="h" x="610.16" y="77.45" width="246.97" height="108" rx="9"/><rect class="d" x="610.16" y="77.45" width="246.96" height="108" rx="9"/><path d="M684.19,128.28a3.85,3.85,0,1,1,3.85-3.85A3.85,3.85,0,0,1,684.19,128.28ZM696,126.42l-4.12-3.49,2.2-4.93a1,1,0,0,0-1.11-1.39l-5.3,1-2.48-4.8a1,1,0,0,0-1.78,0l-2.48,4.8-5.3-1a1,1,0,0,0-1.11,1.39l2.2,4.93-4.12,3.49a1,1,0,0,0-.33,1,1,1,0,0,0,.72.75l5.23,1.35.16,5.4a1,1,0,0,0,1.6.77l4.32-3.24,4.32,3.24a1,1,0,0,0,.6.2.91.91,0,0,0,.43-.1,1,1,0,0,0,.57-.87l.16-5.4,5.23-1.35a1,1,0,0,0,.72-.75A1,1,0,0,0,696,126.42Z" transform="translate(-30.16 -30)"/><path d="M664.41,144.6a3.85,3.85,0,1,1,3.85-3.85A3.85,3.85,0,0,1,664.41,144.6ZM679,139.05l-4.59-2.16,1.88-4.71a1,1,0,0,0-.16-1,1,1,0,0,0-1-.35l-5,1L669,126.85a1,1,0,0,0-.72-.72,1,1,0,0,0-1,.28l-3.47,3.7-3.9-3.24a1,1,0,0,0-1.64.65l-.64,5-5.06-.33a1,1,0,0,0-.91.46,1,1,0,0,0,0,1l2.44,4.45-4.29,2.71a1,1,0,0,0-.46.9,1,1,0,0,0,.57.84l4.59,2.16-1.88,4.71a1,1,0,0,0,.16,1,1,1,0,0,0,1,.35l5-1L660,154.8a1,1,0,0,0,.72.72,1.07,1.07,0,0,0,.25,0,1,1,0,0,0,.73-.32l3.47-3.7,3.9,3.24a1,1,0,0,0,1,.16,1,1,0,0,0,.63-.81l.64-5,5.06.33a1,1,0,0,0,.91-.46,1,1,0,0,0,0-1l-2.44-4.45,4.29-2.71a1,1,0,0,0-.11-1.73Z" transform="translate(-30.16 -30)"/><text class="e" transform="translate(681.65 112.45)">User Interface</text><rect class="i" x="297.68" y="77.45" width="246.97" height="108" rx="9"/><rect class="d" x="297.68" y="77.45" width="246.97" height="108" rx="9"/><text class="e" transform="translate(371.49 112.45)">Jumphost</text><path d="M359.8,127v-8l14,14-14,14v-8.2c-10,0-17,3.2-22,10.2C339.8,139,345.8,129,359.8,127Zm12-2v-6l14,14-14,14v-6l8-8Z" transform="translate(-30.16 -30)"/><path d="M539.34,142.64l-7.21-7.21,2.54-2.55,4.67,4.66,11.88-11.89,2.54,2.56ZM543,113.79,526.72,121v10.82c0,10,6.92,19.36,16.23,21.63,9.3-2.27,16.22-11.62,16.22-21.63V121Z" transform="translate(-30.16 -30)"/><path class="j" d="M574.8,179.45c70.72-.22,45.58,0,45.58,0s19.5-.41,19.45,8.84-19.12,8.34-19.12,8.34,22,.2-30,.71" transform="translate(-30.16 -30)"/><polygon class="k" points="549.34 167.41 560.58 171.51 560.5 163.11 549.34 167.41"/><polygon class="l" points="549.34 167.41 560.58 171.51 560.5 163.11 549.34 167.41"/><line class="m" x1="297.68" y1="131.45" x2="544.64" y2="131.45"/><line class="j" x1="544.64" y1="131.45" x2="592.26" y2="131.45"/><polygon class="k" points="603.46 131.45 592.26 127.25 592.26 135.65 603.46 131.45"/><polygon class="l" points="603.46 131.45 592.26 127.25 592.26 135.65 603.46 131.45"/><line class="n" x1="297.68" y1="149.45" x2="544.64" y2="149.45"/><line class="n" x1="297.68" y1="167.45" x2="544.64" y2="167.45"/><text class="o" transform="translate(217.2 123.24)">push</text><text class="o" transform="translate(220.09 183.88)">pull</text><line class="p" x1="857.13" y1="131.45" x2="941.94" y2="131.45"/><polygon class="q" points="953.14 131.45 941.94 127.25 941.94 135.65 953.14 131.45"/><polygon class="r" points="953.14 131.45 941.94 127.25 941.94 135.65 953.14 131.45"/><path class="p" d="M887.29,179.45c70.71-.22,80.15-.14,80.15-.14S987,178.71,987,188s-19,9-19,9-7.34-.07-64.8.39" transform="translate(-30.16 -30)"/><polygon class="q" points="861.83 167.41 873.06 171.52 872.99 163.12 861.83 167.41"/><polygon class="r" points="861.83 167.41 873.06 171.52 872.99 163.12 861.83 167.41"/><text class="o" transform="translate(904.8 123.24)">push</text><text class="o" transform="translate(907.69 183)">pull</text><line class="j" x1="196.97" y1="131.45" x2="281.78" y2="131.45"/><polygon class="k" points="292.98 131.45 281.78 127.25 281.78 135.65 292.98 131.45"/><polygon class="l" points="292.98 131.45 281.78 127.25 281.78 135.65 292.98 131.45"/><line class="j" x1="196.97" y1="149.45" x2="281.78" y2="149.45"/><polygon class="k" points="292.98 149.45 281.78 145.25 281.78 153.65 292.98 149.45"/><polygon class="l" points="292.98 149.45 281.78 145.25 281.78 153.65 292.98 149.45"/><line class="j" x1="297.68" y1="167.45" x2="212.87" y2="167.45"/><polygon class="k" points="201.66 167.45 212.87 171.65 212.87 163.25 201.66 167.45"/><polygon class="l" points="201.66 167.45 212.87 171.65 212.87 163.25 201.66 167.45"/><path class="s" d="M274.41,108.39a15,15,0,1,1-21.22,0,15,15,0,0,1,21.22,0" transform="translate(-30.16 -30)"/><text class="t" transform="translate(226.61 97.5)">1</text><path class="s" d="M962,108.39a15,15,0,1,1-21.22,0,15,15,0,0,1,21.22,0" transform="translate(-30.16 -30)"/><text class="t" transform="translate(914.21 97.5)">2</text></g></svg>