<?xml version="1.0" encoding="UTF-8" standalone="no"?>
<!DOCTYPE svg PUBLIC "-//W3C//DTD SVG 1.1//EN" "http://www.w3.org/Graphics/SVG/1.1/DTD/svg11.dtd">
<svg xmlns="http://www.w3.org/2000/svg" xmlns:dc="http://purl.org/dc/elements/1.1/" xmlns:xl="http://www.w3.org/1999/xlink" version="1.1" viewBox="433.3417 529 1193.6583 797.5" width="1193.6583" height="797.5">
  <defs>
    <marker orient="auto" overflow="visible" markerUnits="strokeWidth" id="FilledArrow_Marker" stroke-linejoin="miter" stroke-miterlimit="10" viewBox="-1 -3 6 6" markerWidth="6" markerHeight="6" color="#003776">
      <g>
        <path d="M 3.7333333 0 L 0 -1.4 L 0 1.4 Z" fill="currentColor" stroke="currentColor" stroke-width="1"/>
      </g>
    </marker>
    <marker orient="auto" overflow="visible" markerUnits="strokeWidth" id="FilledArrow_Marker_2" stroke-linejoin="miter" stroke-miterlimit="10" viewBox="-1 -3 6 6" markerWidth="6" markerHeight="6" color="#310067">
      <g>
        <path d="M 3.7333333 0 L 0 -1.4 L 0 1.4 Z" fill="currentColor" stroke="currentColor" stroke-width="1"/>
      </g>
    </marker>
    <marker orient="auto" overflow="visible" markerUnits="strokeWidth" id="FilledArrow_Marker_3" stroke-linejoin="miter" stroke-miterlimit="10" viewBox="-1 -3 6 6" markerWidth="6" markerHeight="6" color="#b1001c">
      <g>
        <path d="M 3.7333333 0 L 0 -1.4 L 0 1.4 Z" fill="currentColor" stroke="currentColor" stroke-width="1"/>
      </g>
    </marker>
  </defs>
  <g id="Jupyter" stroke="none" fill="none" fill-opacity="1" stroke-opacity="1" stroke-dasharray="none">
    <title>Jupyter</title>
    <g id="Jupyter_Active">
      <title>Active</title>
      <g id="Graphic_90">
        <path d="M 474.3417 656.6667 L 774.4665 656.6667 C 779.4371 656.6667 783.4665 660.6961 783.4665 665.6667 L 783.4665 1176.7225 C 783.4665 1181.693 779.4371 1185.7225 774.4665 1185.7225 L 474.3417 1185.7225 C 469.37114 1185.7225 465.3417 1181.693 465.3417 1176.7225 L 465.3417 665.6667 C 465.3417 660.6961 469.37114 656.6667 474.3417 656.6667 Z" fill="white"/>
        <path d="M 474.3417 656.6667 L 774.4665 656.6667 C 779.4371 656.6667 783.4665 660.6961 783.4665 665.6667 L 783.4665 1176.7225 C 783.4665 1181.693 779.4371 1185.7225 774.4665 1185.7225 L 474.3417 1185.7225 C 469.37114 1185.7225 465.3417 1181.693 465.3417 1176.7225 L 465.3417 665.6667 C 465.3417 660.6961 469.37114 656.6667 474.3417 656.6667 Z" stroke="black" stroke-linecap="round" stroke-linejoin="round" stroke-width="4"/>
      </g>
      <g id="Graphic_37">
        <path d="M 987 561 L 1586 561 C 1590.9706 561 1595 565.02944 1595 570 L 1595 1282 C 1595 1286.9706 1590.9706 1291 1586 1291 L 987 1291 C 982.0294 1291 978 1286.9706 978 1282 L 978 570 C 978 565.02944 982.0294 561 987 561 Z" fill="#eed7b5"/>
        <path d="M 987 561 L 1586 561 C 1590.9706 561 1595 565.02944 1595 570 L 1595 1282 C 1595 1286.9706 1590.9706 1291 1586 1291 L 987 1291 C 982.0294 1291 978 1286.9706 978 1282 L 978 570 C 978 565.02944 982.0294 561 987 561 Z" stroke="#a5a5a5" stroke-linecap="round" stroke-linejoin="round" stroke-width="4"/>
        <text transform="translate(983 566)" fill="black">
          <tspan font-family="Trebuchet MS" font-weight="bold" font-size="24" fill="black" x="135.91016" y="23">HPC cluster’s private network</tspan>
        </text>
      </g>
      <g id="Graphic_35">
        <path d="M 1180 985 L 1562.3394 985 C 1567.31 985 1571.3394 989.0294 1571.3394 994 L 1571.3394 1261 C 1571.3394 1265.9706 1567.31 1270 1562.3394 1270 L 1180 1270 C 1175.0294 1270 1171 1265.9706 1171 1261 L 1171 994 C 1171 989.0294 1175.0294 985 1180 985 Z" fill="white" fill-opacity=".797519"/>
        <path d="M 1180 985 L 1562.3394 985 C 1567.31 985 1571.3394 989.0294 1571.3394 994 L 1571.3394 1261 C 1571.3394 1265.9706 1567.31 1270 1562.3394 1270 L 1180 1270 C 1175.0294 1270 1171 1265.9706 1171 1261 L 1171 994 C 1171 989.0294 1175.0294 985 1180 985 Z" stroke="black" stroke-linecap="round" stroke-linejoin="round" stroke-width="4"/>
      </g>
      <g id="Group_120">
        <g id="Group_114">
          <g id="Graphic_34">
            <path d="M 1390.2265 1196.5825 L 1386.1065 1193.0925 L 1388.3065 1188.1625 C 1388.4565 1187.8225 1388.4065 1187.4225 1388.1765 1187.1325 C 1387.9465 1186.8425 1387.5665 1186.7025 1387.1965 1186.7725 L 1381.8965 1187.8225 L 1379.4165 1183.0225 C 1379.0765 1182.3625 1377.9865 1182.3625 1377.6365 1183.0225 L 1375.1565 1187.8225 L 1369.8565 1186.7725 C 1369.4865 1186.7025 1369.1165 1186.8325 1368.8765 1187.1325 C 1368.6465 1187.4225 1368.5965 1187.8225 1368.7465 1188.1625 L 1370.9465 1193.0925 L 1366.8265 1196.5825 C 1366.5365 1196.8225 1366.4165 1197.2025 1366.4965 1197.5725 C 1366.5765 1197.9325 1366.8565 1198.2225 1367.2165 1198.3225 L 1372.4465 1199.6725 L 1372.6065 1205.0725 C 1372.6165 1205.4425 1372.8365 1205.7825 1373.1765 1205.9425 C 1373.5165 1206.1025 1373.9165 1206.0625 1374.2065 1205.8425 L 1378.5265 1202.6025 L 1382.8465 1205.8425 C 1383.0265 1205.9725 1383.2365 1206.0425 1383.4465 1206.0425 C 1383.5965 1206.0425 1383.7465 1206.0125 1383.8765 1205.9425 C 1384.2165 1205.7825 1384.4265 1205.4425 1384.4465 1205.0725 L 1384.6065 1199.6725 L 1389.8365 1198.3225 C 1390.1965 1198.2325 1390.4765 1197.9425 1390.5565 1197.5725 C 1390.6365 1197.2025 1390.5065 1196.8225 1390.2265 1196.5825 Z M 1378.4165 1198.4425 C 1376.2865 1198.4425 1374.5665 1196.7125 1374.5665 1194.5925 C 1374.5665 1192.4625 1376.2965 1190.7425 1378.4165 1190.7425 C 1380.5365 1190.7425 1382.2665 1192.4725 1382.2665 1194.5925 C 1382.2665 1196.7125 1380.5465 1198.4425 1378.4165 1198.4425 Z" fill="black"/>
          </g>
          <g id="Graphic_33">
            <path d="M 1373.2665 1209.2125 L 1368.6765 1207.0525 L 1370.5565 1202.3425 C 1370.6965 1202.0025 1370.6365 1201.6125 1370.3965 1201.3325 C 1370.1565 1201.0525 1369.7965 1200.9225 1369.4365 1200.9825 L 1364.4565 1201.9325 L 1363.2065 1197.0125 C 1363.1165 1196.6625 1362.8365 1196.3825 1362.4865 1196.2925 C 1362.1365 1196.2025 1361.7565 1196.3125 1361.5065 1196.5725 L 1358.0365 1200.2725 L 1354.1365 1197.0325 C 1353.8565 1196.8025 1353.4665 1196.7325 1353.1265 1196.8725 C 1352.7865 1197.0025 1352.5465 1197.3125 1352.4965 1197.6825 L 1351.8565 1202.7125 L 1346.7965 1202.3825 C 1346.4265 1202.3625 1346.0865 1202.5325 1345.8865 1202.8425 C 1345.6865 1203.1525 1345.6765 1203.5425 1345.8565 1203.8625 L 1348.2965 1208.3125 L 1344.0065 1211.0225 C 1343.7065 1211.2125 1343.5265 1211.5525 1343.5465 1211.9225 C 1343.5665 1212.2925 1343.7865 1212.6125 1344.1165 1212.7625 L 1348.7065 1214.9225 L 1346.8265 1219.6325 C 1346.6865 1219.9725 1346.7465 1220.3625 1346.9865 1220.6425 C 1347.2165 1220.9225 1347.5865 1221.0525 1347.9465 1220.9925 L 1352.9265 1220.0425 L 1354.1765 1224.9625 C 1354.2665 1225.3125 1354.5465 1225.5925 1354.8965 1225.6825 C 1354.9765 1225.7025 1355.0665 1225.7125 1355.1465 1225.7125 C 1355.4165 1225.7125 1355.6865 1225.6025 1355.8765 1225.3925 L 1359.3465 1221.6925 L 1363.2465 1224.9325 C 1363.5265 1225.1625 1363.9165 1225.2225 1364.2565 1225.0925 C 1364.5965 1224.9625 1364.8365 1224.6525 1364.8865 1224.2825 L 1365.5265 1219.2525 L 1370.5865 1219.5825 C 1370.9565 1219.6025 1371.2965 1219.4325 1371.4965 1219.1225 C 1371.6965 1218.8125 1371.7065 1218.4225 1371.5265 1218.1025 L 1369.0865 1213.6525 L 1373.3765 1210.9425 C 1373.6865 1210.7525 1373.8665 1210.4025 1373.8365 1210.0325 C 1373.8065 1209.6625 1373.5965 1209.3625 1373.2665 1209.2125 Z M 1358.6365 1214.7625 C 1356.5065 1214.7625 1354.7865 1213.0325 1354.7865 1210.9125 C 1354.7865 1208.7925 1356.5165 1207.0625 1358.6365 1207.0625 C 1360.7665 1207.0625 1362.4865 1208.7925 1362.4865 1210.9125 C 1362.4865 1213.0325 1360.7565 1214.7625 1358.6365 1214.7625 Z" fill="black"/>
          </g>
        </g>
        <g id="Graphic_32">
          <text transform="translate(1280 1230.2615)" fill="black">
            <tspan font-family="Trebuchet MS" font-weight="bold" font-size="24" fill="black" x="4.6034164" y="23">Compute Node</tspan>
          </text>
        </g>
      </g>
      <g id="Graphic_31">
        <path d="M 1180.6606 611.63265 L 1563 611.63265 C 1567.9706 611.63265 1572 615.6621 1572 620.63265 L 1572 942 C 1572 946.9706 1567.9706 951 1563 951 L 1180.6606 951 C 1175.69 951 1171.6606 946.9706 1171.6606 942 L 1171.6606 620.63265 C 1171.6606 615.6621 1175.69 611.63265 1180.6606 611.63265 Z" fill="white" fill-opacity=".801801"/>
        <path d="M 1180.6606 611.63265 L 1563 611.63265 C 1567.9706 611.63265 1572 615.6621 1572 620.63265 L 1572 942 C 1572 946.9706 1567.9706 951 1563 951 L 1180.6606 951 C 1175.69 951 1171.6606 946.9706 1171.6606 942 L 1171.6606 620.63265 C 1171.6606 615.6621 1175.69 611.63265 1180.6606 611.63265 Z" stroke="black" stroke-linecap="round" stroke-linejoin="round" stroke-width="4"/>
      </g>
      <g id="Group_110">
        <g id="Graphic_30">
          <path d="M 1394.9944 637.20065 L 1390.8744 633.71065 L 1393.0744 628.78065 C 1393.2244 628.44065 1393.1744 628.04065 1392.9444 627.75065 C 1392.7144 627.46065 1392.3344 627.32065 1391.9644 627.39065 L 1386.6644 628.44065 L 1384.1844 623.64065 C 1383.8444 622.98065 1382.7544 622.98065 1382.4044 623.64065 L 1379.9244 628.44065 L 1374.6244 627.39065 C 1374.2544 627.32065 1373.8844 627.45065 1373.6444 627.75065 C 1373.4144 628.04065 1373.3644 628.44065 1373.5144 628.78065 L 1375.7144 633.71065 L 1371.5944 637.20065 C 1371.3044 637.44065 1371.1844 637.82065 1371.2644 638.19065 C 1371.3444 638.55065 1371.6244 638.84065 1371.9844 638.94065 L 1377.2144 640.29065 L 1377.3744 645.69065 C 1377.3844 646.06065 1377.6044 646.40065 1377.9444 646.56065 C 1378.2844 646.72065 1378.6844 646.68065 1378.9744 646.46065 L 1383.2944 643.22065 L 1387.6144 646.46065 C 1387.7944 646.59065 1388.0044 646.66065 1388.2144 646.66065 C 1388.3644 646.66065 1388.5144 646.63065 1388.6444 646.56065 C 1388.9844 646.40065 1389.1944 646.06065 1389.2144 645.69065 L 1389.3744 640.29065 L 1394.6044 638.94065 C 1394.9644 638.85065 1395.2444 638.56065 1395.3244 638.19065 C 1395.4044 637.82065 1395.2744 637.44065 1394.9944 637.20065 Z M 1383.1844 639.06065 C 1381.0544 639.06065 1379.3344 637.33065 1379.3344 635.21065 C 1379.3344 633.08065 1381.0644 631.36065 1383.1844 631.36065 C 1385.3044 631.36065 1387.0344 633.09065 1387.0344 635.21065 C 1387.0344 637.33065 1385.3144 639.06065 1383.1844 639.06065 Z" fill="black"/>
        </g>
        <g id="Graphic_29">
          <path d="M 1378.0344 649.83065 L 1373.4444 647.67065 L 1375.3244 642.96065 C 1375.4644 642.62065 1375.4044 642.23065 1375.1644 641.95065 C 1374.9244 641.67065 1374.5644 641.54065 1374.2044 641.60065 L 1369.2244 642.55065 L 1367.9744 637.63065 C 1367.8844 637.28065 1367.6044 637.00065 1367.2544 636.91065 C 1366.9044 636.82065 1366.5244 636.93065 1366.2744 637.19065 L 1362.8044 640.89065 L 1358.9044 637.65065 C 1358.6244 637.42065 1358.2344 637.35065 1357.8944 637.49065 C 1357.5544 637.62065 1357.3144 637.93065 1357.2644 638.30065 L 1356.6244 643.33065 L 1351.5644 643.00065 C 1351.1944 642.98065 1350.8544 643.15065 1350.6544 643.46065 C 1350.4544 643.77065 1350.4444 644.16065 1350.6244 644.48065 L 1353.0644 648.93065 L 1348.7744 651.64065 C 1348.4744 651.83065 1348.2944 652.17065 1348.3144 652.54065 C 1348.3344 652.91065 1348.5544 653.23065 1348.8844 653.38065 L 1353.4744 655.54065 L 1351.5944 660.25065 C 1351.4544 660.59065 1351.5144 660.98065 1351.7544 661.26065 C 1351.9844 661.54065 1352.3544 661.67065 1352.7144 661.61065 L 1357.6944 660.66065 L 1358.9444 665.58065 C 1359.0344 665.93065 1359.3144 666.21065 1359.6644 666.30065 C 1359.7444 666.32065 1359.8344 666.33065 1359.9144 666.33065 C 1360.1844 666.33065 1360.4544 666.22065 1360.6444 666.01065 L 1364.1144 662.31065 L 1368.0144 665.55065 C 1368.2944 665.78065 1368.6844 665.84065 1369.0244 665.71065 C 1369.3644 665.58065 1369.6044 665.27065 1369.6544 664.90065 L 1370.2944 659.87065 L 1375.3544 660.20065 C 1375.7244 660.22065 1376.0644 660.05065 1376.2644 659.74065 C 1376.4644 659.43065 1376.4744 659.04065 1376.2944 658.72065 L 1373.8544 654.27065 L 1378.1444 651.56065 C 1378.4544 651.37065 1378.6344 651.02065 1378.6044 650.65065 C 1378.5744 650.28065 1378.3644 649.98065 1378.0344 649.83065 Z M 1363.4044 655.38065 C 1361.2744 655.38065 1359.5544 653.65065 1359.5544 651.53065 C 1359.5544 649.41065 1361.2844 647.68065 1363.4044 647.68065 C 1365.5344 647.68065 1367.2544 649.41065 1367.2544 651.53065 C 1367.2544 653.65065 1365.5244 655.38065 1363.4044 655.38065 Z" fill="black"/>
        </g>
      </g>
      <g id="Graphic_28">
        <text transform="translate(1176.3211 671.1789)" fill="black">
          <tspan font-family="Trebuchet MS" font-weight="bold" font-size="24" fill="black" x="115.32968" y="23">User Interface</tspan>
        </text>
      </g>
      <g id="Group_113">
        <g id="Graphic_23">
          <path d="M 893.2055 670.8544 L 1059.3303 670.8544 C 1064.3008 670.8544 1068.3303 674.8838 1068.3303 679.8544 L 1068.3303 769.8544 C 1068.3303 774.8249 1064.3008 778.8544 1059.3303 778.8544 L 893.2055 778.8544 C 888.2349 778.8544 884.2055 774.8249 884.2055 769.8544 L 884.2055 679.8544 C 884.2055 674.8838 888.2349 670.8544 893.2055 670.8544 Z" fill="white"/>
          <path d="M 893.2055 670.8544 L 1059.3303 670.8544 C 1064.3008 670.8544 1068.3303 674.8838 1068.3303 679.8544 L 1068.3303 769.8544 C 1068.3303 774.8249 1064.3008 778.8544 1059.3303 778.8544 L 893.2055 778.8544 C 888.2349 778.8544 884.2055 774.8249 884.2055 769.8544 L 884.2055 679.8544 C 884.2055 674.8838 888.2349 670.8544 893.2055 670.8544 Z" stroke="black" stroke-linecap="round" stroke-linejoin="round" stroke-width="4"/>
        </g>
        <g id="Graphic_22">
          <text transform="translate(921.6526 729.9006)" fill="black">
            <tspan font-family="Trebuchet MS" font-weight="bold" font-size="24" fill="black" x="0" y="23">Jumphost</tspan>
          </text>
        </g>
        <g id="Group_112">
          <g id="Graphic_21">
            <title>Reply All</title>
            <path d="M 962.0429 688.4006 L 962.0429 682.4006 L 976.0429 696.4006 L 962.0429 710.4006 L 962.0429 704.4006 L 970.0429 696.4006 L 962.0429 688.4006 Z M 950.0429 690.4006 L 950.0429 682.4006 L 964.0429 696.4006 L 950.0429 710.4006 L 950.0429 702.2006 C 940.0429 702.2006 933.0429 705.4006 928.0429 712.4006 C 930.0429 702.4006 936.0429 692.4006 950.0429 690.4006 Z" fill="black"/>
          </g>
          <g id="Graphic_20">
            <title>Verified User</title>
            <path d="M 1008.2679 678.7395 L 992.0429 685.9506 L 992.0429 696.7673 C 992.0429 706.7727 998.9655 716.1291 1008.2679 718.4006 C 1017.5702 716.1291 1024.4929 706.7727 1024.4929 696.7673 L 1024.4929 685.9506 L 1008.2679 678.7395 Z M 1004.6623 707.58395 L 997.4512 700.3728 L 999.9931 697.8309 L 1004.6623 702.4821 L 1016.5426 690.6018 L 1019.0845 693.1617 L 1004.6623 707.58395 Z" fill="black"/>
          </g>
        </g>
        <g id="Line_56">
          <line x1="884.2055" y1="724.8544" x2="1068.3303" y2="724.8544" stroke="#003776" stroke-linecap="round" stroke-linejoin="round" stroke-dasharray="12.0,12.0" stroke-width="3"/>
        </g>
      </g>
      <g id="Line_57">
        <line x1="1068.3303" y1="724.8544" x2="1155.7606" y2="724.7704" marker-end="url(#FilledArrow_Marker)" stroke="#003776" stroke-linecap="round" stroke-linejoin="round" stroke-width="3"/>
      </g>
      <g id="Graphic_62">
        <text transform="translate(790.8577 701.5428)" fill="black">
          <tspan font-family="Trebuchet MS" font-size="16" fill="black" x="25.645306" y="15">login</tspan>
        </text>
      </g>
      <g id="Line_26">
        <line x1="784.3862" y1="724.8544" x2="868.3055" y2="724.8544" marker-end="url(#FilledArrow_Marker)" stroke="#003776" stroke-linecap="round" stroke-linejoin="round" stroke-width="3"/>
      </g>
      <g id="Group_177">
        <g id="Graphic_89">
          <text transform="translate(526.7446 730.1098)" fill="black">
            <tspan font-family="Trebuchet MS" font-weight="bold" font-size="24" fill="black" x="0" y="23">User’s computer</tspan>
          </text>
        </g>
        <g id="Group_86">
          <g id="Graphic_88">
            <title>Person</title>
            <path d="M 592.1885 699.656 C 596.33225 699.656 599.6885 696.2998 599.6885 692.156 C 599.6885 688.0123 596.33225 684.656 592.1885 684.656 C 588.04475 684.656 584.6885 688.0123 584.6885 692.156 C 584.6885 696.2998 588.04475 699.656 592.1885 699.656 Z M 592.1885 703.406 C 587.18225 703.406 577.1885 705.9185 577.1885 710.906 L 577.1885 714.656 L 607.1885 714.656 L 607.1885 710.906 C 607.1885 705.9185 597.19475 703.406 592.1885 703.406 Z" fill="black"/>
          </g>
          <g id="Graphic_87">
            <title>Laptop Mac</title>
            <path d="M 663.6197 712.1098 C 665.8197 712.1098 667.5997 710.3098 667.5997 708.1098 L 667.6197 686.1098 C 667.6197 683.9098 665.8197 682.1098 663.6197 682.1098 L 631.6197 682.1098 C 629.4197 682.1098 627.6197 683.9098 627.6197 686.1098 L 627.6197 708.1098 C 627.6197 710.3098 629.4197 712.1098 631.6197 712.1098 L 623.6197 712.1098 C 623.6197 714.3098 625.4197 716.1098 627.6197 716.1098 L 667.6197 716.1098 C 669.8197 716.1098 671.6197 714.3098 671.6197 712.1098 L 663.6197 712.1098 Z M 631.6197 686.1098 L 663.6197 686.1098 L 663.6197 708.1098 L 631.6197 708.1098 L 631.6197 686.1098 Z M 647.6197 714.1098 C 646.5197 714.1098 645.6197 713.2098 645.6197 712.1098 C 645.6197 711.0098 646.5197 710.1098 647.6197 710.1098 C 648.7197 710.1098 649.6197 711.0098 649.6197 712.1098 C 649.6197 713.2098 648.7197 714.1098 647.6197 714.1098 Z" fill="black"/>
          </g>
        </g>
      </g>
      <g id="Group_108">
        <g id="Graphic_99">
          <path d="M 821.82335 661.1667 L 845.8234 661.1667 C 853.8315 661.1667 860.3234 667.6585 860.3234 675.6667 L 860.3234 675.6667 C 860.3234 683.6748 853.8315 690.1667 845.8234 690.1667 L 821.82335 690.1667 C 813.8152 690.1667 807.32335 683.6748 807.32335 675.6667 L 807.32335 675.6667 C 807.32335 667.6585 813.8152 661.1667 821.82335 661.1667 Z" fill="#686868"/>
        </g>
        <g id="Graphic_70">
          <text transform="translate(826.7921 661.6667)" fill="white">
            <tspan font-family="Trebuchet MS" font-weight="bold" font-size="24" fill="white" x="0" y="23">1</tspan>
          </text>
        </g>
      </g>
      <g id="Graphic_107">
        <text transform="translate(790.9417 729.7401)" fill="black">
          <tspan font-family="Trebuchet MS" font-size="16" fill="black" x="11.94218" y="15">over SSH</tspan>
          <tspan font-family="Trebuchet MS" font-size="16" fill="black" x="6.059368" y="34">on port 22</tspan>
        </text>
      </g>
      <g id="Graphic_127">
        <path d="M 1202 763 L 1542.1248 763 C 1547.0954 763 1551.1248 767.0294 1551.1248 772 L 1551.1248 923 C 1551.1248 927.9706 1547.0954 932 1542.1248 932 L 1202 932 C 1197.0294 932 1193 927.9706 1193 923 L 1193 772 C 1193 767.0294 1197.0294 763 1202 763 Z" fill="white"/>
        <path d="M 1202 763 L 1542.1248 763 C 1547.0954 763 1551.1248 767.0294 1551.1248 772 L 1551.1248 923 C 1551.1248 927.9706 1547.0954 932 1542.1248 932 L 1202 932 C 1197.0294 932 1193 927.9706 1193 923 L 1193 772 C 1193 767.0294 1197.0294 763 1202 763 Z" stroke="#005c5d" stroke-linecap="round" stroke-linejoin="round" stroke-width="4"/>
        <text transform="translate(1208 768)" fill="black">
          <tspan font-family="Trebuchet MS" font-weight="bold" font-size="24" fill="black" x="81.3456" y="23">Screen Session</tspan>
        </text>
      </g>
      <g id="Graphic_126"/>
      <g id="Graphic_128">
        <path d="M 1222 870.998 L 1522.1248 870.998 C 1527.0954 870.998 1531.1248 875.0275 1531.1248 879.998 L 1531.1248 904.002 C 1531.1248 908.9725 1527.0954 913.002 1522.1248 913.002 L 1222 913.002 C 1217.0294 913.002 1213 908.9725 1213 904.002 L 1213 879.998 C 1213 875.0275 1217.0294 870.998 1222 870.998 Z" fill="white"/>
        <path d="M 1222 870.998 L 1522.1248 870.998 C 1527.0954 870.998 1531.1248 875.0275 1531.1248 879.998 L 1531.1248 904.002 C 1531.1248 908.9725 1527.0954 913.002 1522.1248 913.002 L 1222 913.002 C 1217.0294 913.002 1213 908.9725 1213 904.002 L 1213 879.998 C 1213 875.0275 1217.0294 870.998 1222 870.998 Z" stroke="#310067" stroke-linecap="round" stroke-linejoin="round" stroke-width="4"/>
        <text transform="translate(1228 875.998)" fill="black">
          <tspan font-family="Trebuchet MS" font-weight="bold" font-size="24" fill="black" x="67.42177" y="23">Slurm Session</tspan>
        </text>
      </g>
      <g id="Group_141">
        <g id="Graphic_68">
          <text transform="translate(1381.8303 713.99805)" fill="black">
            <tspan font-family="Trebuchet MS" font-size="16" fill="black" x="1.6757812" y="15">start </tspan>
            <tspan font-family="Trebuchet MS" font-style="italic" font-weight="bold" font-size="16" fill="black" y="15">screen session</tspan>
          </text>
        </g>
        <g id="Group_109">
          <g id="Graphic_102">
            <path d="M 1338.3303 708.99805 L 1362.3303 708.99805 C 1370.3384 708.99805 1376.8303 715.4899 1376.8303 723.49805 L 1376.8303 723.49805 C 1376.8303 731.5062 1370.3384 737.99805 1362.3303 737.99805 L 1338.3303 737.99805 C 1330.3221 737.99805 1323.8303 731.5062 1323.8303 723.49805 L 1323.8303 723.49805 C 1323.8303 715.4899 1330.3221 708.99805 1338.3303 708.99805 Z" fill="#686868"/>
          </g>
          <g id="Graphic_101">
            <text transform="translate(1343.299 709.49805)" fill="white">
              <tspan font-family="Trebuchet MS" font-weight="bold" font-size="24" fill="white" x="0" y="23">2</tspan>
            </text>
          </g>
        </g>
        <g id="Graphic_130">
          <text transform="translate(1211.8303 711.9961)" fill="black">
            <tspan font-family="Monaco" font-size="24" fill="black" x="0" y="24">bash&gt; _</tspan>
          </text>
        </g>
      </g>
      <g id="Group_140">
        <g id="Graphic_139">
          <text transform="translate(1406.2519 812.5)" fill="black">
            <tspan font-family="Trebuchet MS" font-size="16" fill="black" x="3.2714844" y="15">start </tspan>
            <tspan font-family="Trebuchet MS" font-style="italic" font-weight="bold" font-size="16" fill="black" y="15">interactive </tspan>
            <tspan font-family="Trebuchet MS" font-style="italic" font-weight="bold" font-size="16" fill="black" x="14.40039" y="34">slurm session</tspan>
          </text>
        </g>
        <g id="Group_136">
          <g id="Graphic_138">
            <path d="M 1362.7519 807.5 L 1386.7519 807.5 C 1394.76 807.5 1401.2519 813.9919 1401.2519 822 L 1401.2519 822 C 1401.2519 830.0081 1394.76 836.5 1386.7519 836.5 L 1362.7519 836.5 C 1354.7437 836.5 1348.2519 830.0081 1348.2519 822 L 1348.2519 822 C 1348.2519 813.9919 1354.7437 807.5 1362.7519 807.5 Z" fill="#686868"/>
          </g>
          <g id="Graphic_137">
            <text transform="translate(1367.7206 808)" fill="white">
              <tspan font-family="Trebuchet MS" font-weight="bold" font-size="24" fill="white" x="0" y="23">3</tspan>
            </text>
          </g>
        </g>
        <g id="Graphic_135">
          <text transform="translate(1208.2519 810)" fill="black">
            <tspan font-family="Monaco" font-size="24" fill="black" x="0" y="24">screen&gt; _</tspan>
          </text>
        </g>
      </g>
      <g id="Graphic_159">
        <path d="M 1202 1017.3683 L 1542.1248 1017.3683 C 1547.0954 1017.3683 1551.1248 1021.3978 1551.1248 1026.3683 L 1551.1248 1161 C 1551.1248 1165.9706 1547.0954 1170 1542.1248 1170 L 1202 1170 C 1197.0294 1170 1193 1165.9706 1193 1161 L 1193 1026.3683 C 1193 1021.3978 1197.0294 1017.3683 1202 1017.3683 Z" fill="white"/>
        <path d="M 1202 1017.3683 L 1542.1248 1017.3683 C 1547.0954 1017.3683 1551.1248 1021.3978 1551.1248 1026.3683 L 1551.1248 1161 C 1551.1248 1165.9706 1547.0954 1170 1542.1248 1170 L 1202 1170 C 1197.0294 1170 1193 1165.9706 1193 1161 L 1193 1026.3683 C 1193 1021.3978 1197.0294 1017.3683 1202 1017.3683 Z" stroke="#310067" stroke-linecap="round" stroke-linejoin="round" stroke-width="4"/>
        <text transform="translate(1208 1022.3683)" fill="black">
          <tspan font-family="Trebuchet MS" font-weight="bold" font-size="24" fill="black" x="87.42177" y="23">Slurm Session</tspan>
        </text>
      </g>
      <g id="Graphic_158">
        <path d="M 1239 1109.8737 L 1505.1248 1109.8737 C 1510.0954 1109.8737 1514.1248 1113.9031 1514.1248 1118.8737 L 1514.1248 1142.8776 C 1514.1248 1147.8482 1510.0954 1151.8776 1505.1248 1151.8776 L 1239 1151.8776 C 1234.0294 1151.8776 1230 1147.8482 1230 1142.8776 L 1230 1118.8737 C 1230 1113.9031 1234.0294 1109.8737 1239 1109.8737 Z" fill="white"/>
        <path d="M 1239 1109.8737 L 1505.1248 1109.8737 C 1510.0954 1109.8737 1514.1248 1113.9031 1514.1248 1118.8737 L 1514.1248 1142.8776 C 1514.1248 1147.8482 1510.0954 1151.8776 1505.1248 1151.8776 L 1239 1151.8776 C 1234.0294 1151.8776 1230 1147.8482 1230 1142.8776 L 1230 1118.8737 C 1230 1113.9031 1234.0294 1109.8737 1239 1109.8737 Z" stroke="#b1001c" stroke-linecap="round" stroke-linejoin="round" stroke-width="4"/>
        <text transform="translate(1245 1114.8737)" fill="black">
          <tspan font-family="Trebuchet MS" font-weight="bold" font-size="24" fill="black" x="38.9667" y="23">Jupyter Session</tspan>
        </text>
      </g>
      <g id="Group_166">
        <g id="Graphic_157">
          <text transform="translate(1399.1476 1066.1183)" fill="black">
            <tspan font-family="Trebuchet MS" font-size="16" fill="black" x="9.164436" y="15">start </tspan>
            <tspan font-family="Trebuchet MS" font-style="italic" font-weight="bold" font-size="16" fill="black" y="15">Jupyter </tspan>
            <tspan font-family="Trebuchet MS" font-style="italic" font-weight="bold" font-size="16" fill="black" x="30.60975" y="34">session</tspan>
          </text>
        </g>
        <g id="Group_154">
          <g id="Graphic_156">
            <path d="M 1355.6476 1061.1183 L 1379.6476 1061.1183 C 1387.6557 1061.1183 1394.1476 1067.6102 1394.1476 1075.6183 L 1394.1476 1075.6183 C 1394.1476 1083.6265 1387.6557 1090.1183 1379.6476 1090.1183 L 1355.6476 1090.1183 C 1347.6395 1090.1183 1341.1476 1083.6265 1341.1476 1075.6183 L 1341.1476 1075.6183 C 1341.1476 1067.6102 1347.6395 1061.1183 1355.6476 1061.1183 Z" fill="#686868"/>
          </g>
          <g id="Graphic_155">
            <text transform="translate(1360.6163 1061.6183)" fill="white">
              <tspan font-family="Trebuchet MS" font-weight="bold" font-size="24" fill="white" x="0" y="23">4</tspan>
            </text>
          </g>
        </g>
        <g id="Graphic_153">
          <text transform="translate(1229.5624 1063.6193)" fill="black">
            <tspan font-family="Monaco" font-size="24" fill="black" x=".09179688" y="24">bash&gt; _</tspan>
          </text>
        </g>
      </g>
      <g id="Line_167">
        <line x1="1372.0624" y1="913.002" x2="1372.0624" y2="1001.4683" marker-end="url(#FilledArrow_Marker_2)" stroke="#310067" stroke-linecap="round" stroke-linejoin="round" stroke-width="3"/>
      </g>
      <g id="Graphic_175">
        <path d="M 492.3417 886.6326 L 754.4665 886.6326 C 759.4371 886.6326 763.4665 890.6621 763.4665 895.6326 L 763.4665 1162.6326 C 763.4665 1167.6032 759.4371 1171.6326 754.4665 1171.6326 L 492.3417 1171.6326 C 487.37114 1171.6326 483.3417 1167.6032 483.3417 1162.6326 L 483.3417 895.6326 C 483.3417 890.6621 487.37114 886.6326 492.3417 886.6326 Z" fill="white"/>
        <path d="M 492.3417 886.6326 L 754.4665 886.6326 C 759.4371 886.6326 763.4665 890.6621 763.4665 895.6326 L 763.4665 1162.6326 C 763.4665 1167.6032 759.4371 1171.6326 754.4665 1171.6326 L 492.3417 1171.6326 C 487.37114 1171.6326 483.3417 1167.6032 483.3417 1162.6326 L 483.3417 895.6326 C 483.3417 890.6621 487.37114 886.6326 492.3417 886.6326 Z" stroke="#b1001c" stroke-linecap="round" stroke-linejoin="round" stroke-width="4"/>
        <text transform="translate(498.3417 891.6326)" fill="black">
          <tspan font-family="Trebuchet MS" font-weight="bold" font-size="24" fill="black" x="51.69131" y="23">Web browser</tspan>
        </text>
      </g>
      <g id="Group_196">
        <g id="Graphic_191">
          <path d="M 893.489 1061 L 1059.6138 1061 C 1064.5843 1061 1068.6138 1065.0294 1068.6138 1070 L 1068.6138 1176.7225 C 1068.6138 1181.693 1064.5843 1185.7225 1059.6138 1185.7225 L 893.489 1185.7225 C 888.5184 1185.7225 884.489 1181.693 884.489 1176.7225 L 884.489 1070 C 884.489 1065.0294 888.5184 1061 893.489 1061 Z" fill="white"/>
          <path d="M 893.489 1061 L 1059.6138 1061 C 1064.5843 1061 1068.6138 1065.0294 1068.6138 1070 L 1068.6138 1176.7225 C 1068.6138 1181.693 1064.5843 1185.7225 1059.6138 1185.7225 L 893.489 1185.7225 C 888.5184 1185.7225 884.489 1181.693 884.489 1176.7225 L 884.489 1070 C 884.489 1065.0294 888.5184 1061 893.489 1061 Z" stroke="black" stroke-linecap="round" stroke-linejoin="round" stroke-width="4"/>
        </g>
        <g id="Graphic_190">
          <text transform="translate(921.9361 1146.7225)" fill="black">
            <tspan font-family="Trebuchet MS" font-weight="bold" font-size="24" fill="black" x="0" y="23">Jumphost</tspan>
          </text>
        </g>
        <g id="Group_187">
          <g id="Graphic_189">
            <title>Reply All</title>
            <path d="M 962.3264 1078.5463 L 962.3264 1072.5463 L 976.3264 1086.5463 L 962.3264 1100.5463 L 962.3264 1094.5463 L 970.3264 1086.5463 L 962.3264 1078.5463 Z M 950.3264 1080.5463 L 950.3264 1072.5463 L 964.3264 1086.5463 L 950.3264 1100.5463 L 950.3264 1092.3462 C 940.3264 1092.3462 933.3264 1095.5463 928.3264 1102.5463 C 930.3264 1092.5463 936.3264 1082.5463 950.3264 1080.5463 Z" fill="black"/>
          </g>
          <g id="Graphic_188">
            <title>Verified User</title>
            <path d="M 1008.5514 1068.8851 L 992.3264 1076.0963 L 992.3264 1086.9129 C 992.3264 1096.9183 999.249 1106.2748 1008.5514 1108.5463 C 1017.8537 1106.2748 1024.7764 1096.9183 1024.7764 1086.9129 L 1024.7764 1076.0963 L 1008.5514 1068.8851 Z M 1004.9458 1097.7296 L 997.7347 1090.5185 L 1000.2766 1087.9766 L 1004.9458 1092.6277 L 1016.8261 1080.7474 L 1019.368 1083.3074 L 1004.9458 1097.7296 Z" fill="black"/>
          </g>
        </g>
      </g>
      <g id="Line_186">
        <line x1="884.489" y1="1123.0123" x2="1068.6138" y2="1123.0123" stroke="#003776" stroke-linecap="round" stroke-linejoin="round" stroke-dasharray="12.0,12.0" stroke-width="3"/>
      </g>
      <g id="Graphic_183">
        <text transform="translate(791.1412 1101.6885)" fill="black">
          <tspan font-family="Trebuchet MS" font-size="16" fill="black" x="19.520306" y="15">Tunnel</tspan>
        </text>
      </g>
      <g id="Group_179">
        <g id="Graphic_181">
          <path d="M 822.1069 1069.3123 L 846.1069 1069.3123 C 854.115 1069.3123 860.6069 1075.8042 860.6069 1083.8123 L 860.6069 1083.8123 C 860.6069 1091.8204 854.115 1098.3123 846.1069 1098.3123 L 822.1069 1098.3123 C 814.0987 1098.3123 807.60685 1091.8204 807.60685 1083.8123 L 807.60685 1083.8123 C 807.60685 1075.8042 814.0987 1069.3123 822.1069 1069.3123 Z" fill="#686868"/>
        </g>
        <g id="Graphic_180">
          <text transform="translate(827.0756 1069.8123)" fill="white">
            <tspan font-family="Trebuchet MS" font-weight="bold" font-size="24" fill="white" x="0" y="23">5</tspan>
          </text>
        </g>
      </g>
      <g id="Graphic_178">
        <text transform="translate(791.2252 1141.8857)" fill="black">
          <tspan font-family="Trebuchet MS" font-size="16" fill="black" x="11.94218" y="15">over SSH</tspan>
          <tspan font-family="Trebuchet MS" font-size="16" fill="black" x="6.059368" y="34">on port 22</tspan>
        </text>
      </g>
      <g id="Line_192">
        <line x1="784" y1="1138.5833" x2="868.839" y2="1138.5833" marker-end="url(#FilledArrow_Marker)" stroke="#003776" stroke-linecap="butt" stroke-linejoin="round" stroke-width="3"/>
      </g>
      <g id="Line_193">
        <line x1="784.1382" y1="1123.3551" x2="868.9772" y2="1123.3551" marker-end="url(#FilledArrow_Marker)" stroke="#003776" stroke-linecap="butt" stroke-linejoin="round" stroke-width="3"/>
      </g>
      <g id="Line_195">
        <line x1="884.489" y1="1139.5833" x2="1068.6138" y2="1139.5833" stroke="#003776" stroke-linecap="round" stroke-linejoin="round" stroke-dasharray="12.0,12.0" stroke-width="3"/>
      </g>
      <g id="Line_198">
        <line x1="1068.6138" y1="1138.5833" x2="1153.627" y2="1138.5833" marker-end="url(#FilledArrow_Marker)" stroke="#003776" stroke-linecap="butt" stroke-linejoin="round" stroke-width="3"/>
      </g>
      <g id="Line_197">
        <line x1="1068.6138" y1="1123.3551" x2="1153.7138" y2="1123.3551" marker-end="url(#FilledArrow_Marker)" stroke="#003776" stroke-linecap="butt" stroke-linejoin="round" stroke-width="3"/>
      </g>
      <g id="Line_199">
        <line x1="763.4665" y1="1130.8757" x2="1214.1" y2="1130.8757" marker-end="url(#FilledArrow_Marker_3)" stroke="#b1001c" stroke-linecap="butt" stroke-linejoin="round" stroke-width="3"/>
      </g>
      <g id="Group_200">
        <g id="Graphic_202">
          <path d="M 1107.2443 1070.2225 L 1131.2443 1070.2225 C 1139.2524 1070.2225 1145.7443 1076.7143 1145.7443 1084.7225 L 1145.7443 1084.7225 C 1145.7443 1092.7306 1139.2524 1099.2225 1131.2443 1099.2225 L 1107.2443 1099.2225 C 1099.2362 1099.2225 1092.7443 1092.7306 1092.7443 1084.7225 L 1092.7443 1084.7225 C 1092.7443 1076.7143 1099.2362 1070.2225 1107.2443 1070.2225 Z" fill="#686868"/>
        </g>
        <g id="Graphic_201">
          <text transform="translate(1112.213 1070.7225)" fill="white">
            <tspan font-family="Trebuchet MS" font-weight="bold" font-size="24" fill="white" x="0" y="23">5</tspan>
          </text>
        </g>
      </g>
      <g id="Group_204">
        <g id="Graphic_206">
          <path d="M 1107.8257 661.1667 L 1131.8257 661.1667 C 1139.8338 661.1667 1146.3257 667.6585 1146.3257 675.6667 L 1146.3257 675.6667 C 1146.3257 683.6748 1139.8338 690.1667 1131.8257 690.1667 L 1107.8257 690.1667 C 1099.8176 690.1667 1093.3257 683.6748 1093.3257 675.6667 L 1093.3257 675.6667 C 1093.3257 667.6585 1099.8176 661.1667 1107.8257 661.1667 Z" fill="#686868"/>
        </g>
        <g id="Graphic_205">
          <text transform="translate(1112.7944 661.6667)" fill="white">
            <tspan font-family="Trebuchet MS" font-weight="bold" font-size="24" fill="white" x="0" y="23">1</tspan>
          </text>
        </g>
      </g>
      <g id="Graphic_218">
        <text transform="translate(557 835.5515)" fill="black">
          <tspan font-family="Trebuchet MS" font-size="16" fill="black" x="34.194183" y="15">paste </tspan>
          <tspan font-family="Trebuchet MS" font-style="italic" font-weight="bold" font-size="16" fill="black" y="15">Jupyter</tspan>
          <tspan font-family="Trebuchet MS" font-size="16" fill="black" y="15"> link</tspan>
          <tspan font-family="Trebuchet MS" font-size="16" fill="black" x="25.057465" y="34">in your </tspan>
          <tspan font-family="Trebuchet MS" font-style="italic" font-weight="bold" font-size="16" fill="black" y="34">web browser</tspan>
        </text>
      </g>
      <g id="Group_215">
        <g id="Graphic_217">
          <path d="M 513.5 833.5 L 537.5 833.5 C 545.5081 833.5 552 839.9919 552 848 L 552 848 C 552 856.0081 545.5081 862.5 537.5 862.5 L 513.5 862.5 C 505.4919 862.5 499 856.0081 499 848 L 499 848 C 499 839.9919 505.4919 833.5 513.5 833.5 Z" fill="#686868"/>
        </g>
        <g id="Graphic_216">
          <text transform="translate(518.46875 834)" fill="white">
            <tspan font-family="Trebuchet MS" font-weight="bold" font-size="24" fill="white" x="0" y="23">6</tspan>
          </text>
        </g>
      </g>
      <g id="Group_223">
        <g id="Graphic_222">
          <text transform="translate(559 1215.5)" fill="black">
            <tspan font-family="Trebuchet MS" font-weight="bold" font-size="16" fill="black" x="22.160667" y="15">cleanup when done!</tspan>
            <tspan font-family="Trebuchet MS" font-size="16" fill="black" x="0" y="34">  • on your own computer</tspan>
            <tspan font-family="Trebuchet MS" font-size="16" fill="black" x="0" y="53">  • on the compute node</tspan>
            <tspan font-family="Trebuchet MS" font-size="16" fill="black" x="0" y="72">  • on the User Interface</tspan>
          </text>
        </g>
        <g id="Group_219">
          <g id="Graphic_221">
            <path d="M 515.5 1210.5 L 539.5 1210.5 C 547.5081 1210.5 554 1216.9919 554 1225 L 554 1225 C 554 1233.0081 547.5081 1239.5 539.5 1239.5 L 515.5 1239.5 C 507.4919 1239.5 501 1233.0081 501 1225 L 501 1225 C 501 1216.9919 507.4919 1210.5 515.5 1210.5 Z" fill="#686868"/>
          </g>
          <g id="Graphic_220">
            <text transform="translate(520.46875 1211)" fill="white">
              <tspan font-family="Trebuchet MS" font-weight="bold" font-size="24" fill="white" x="0" y="23">7</tspan>
            </text>
          </g>
        </g>
      </g>
      <g id="Group_227">
        <title>Canvas</title>
        <g id="Group_228">
          <title>logo</title>
          <g id="Group_245">
            <title>Group</title>
            <g id="Group_246">
              <title>g</title>
              <g id="Group_265">
                <title>path</title>
                <g id="Group_266">
                  <title>path0_fill</title>
                  <g id="Graphic_267">
                    <title>path0_fill-2</title>
                    <path d="M 586.54535 976.8553 C 586.54535 982.0053 586.15535 983.6853 585.10535 984.9253 C 583.96535 985.9853 582.46535 986.5653 580.91535 986.5653 L 581.30535 989.6253 C 583.70535 989.6553 586.03535 988.7853 587.83535 987.1853 C 589.71535 985.2353 590.36535 982.5353 590.36535 978.3853 L 590.36535 958.9253 L 586.52535 958.9253 L 586.52535 976.8753 L 586.52535 976.8453 Z" fill="#4e4e4e"/>
                  </g>
                </g>
              </g>
              <g id="Group_262">
                <title>path-2</title>
                <g id="Group_263">
                  <title>path1_fill</title>
                  <g id="Graphic_264">
                    <title>path1_fill-2</title>
                    <path d="M 615.16535 974.5053 C 615.16535 976.7253 615.16535 978.6753 615.33535 980.3553 L 611.97535 980.3553 L 611.75535 976.8353 L 611.66535 976.8353 C 610.95535 978.0653 609.93535 979.0853 608.71535 979.7853 C 607.48535 980.4853 606.09535 980.8453 604.68535 980.8253 C 601.37535 980.8253 597.41535 978.9653 597.41535 971.4353 L 597.41535 958.8953 L 601.25535 958.8953 L 601.25535 970.7953 C 601.25535 974.8753 602.47535 977.6253 605.95535 977.6253 C 607.04535 977.6053 608.10535 977.2653 609.00535 976.6353 C 609.90535 976.0053 610.59535 975.1253 611.00535 974.1053 C 611.23535 973.4653 611.35535 972.7853 611.35535 972.1053 L 611.35535 958.9053 L 615.19535 958.9053 L 615.19535 974.5153 L 615.16535 974.5153 Z" fill="#4e4e4e"/>
                  </g>
                </g>
              </g>
              <g id="Group_259">
                <title>path-3</title>
                <g id="Group_260">
                  <title>path2_fill</title>
                  <g id="Graphic_261">
                    <title>path2_fill-2</title>
                    <path d="M 622.39535 965.9053 C 622.39535 963.1653 622.30535 960.9453 622.22535 958.8653 L 625.67535 958.8653 L 625.84535 962.5453 L 625.93535 962.5453 C 626.68535 961.2253 627.78535 960.1453 629.10535 959.4053 C 630.42535 958.6753 631.91535 958.3153 633.42535 958.3753 C 638.51535 958.3753 642.35535 962.7753 642.35535 969.2853 C 642.35535 976.9953 637.74535 980.8053 632.76535 980.8053 C 631.48535 980.8553 630.21535 980.5753 629.07535 979.9853 C 627.93535 979.3953 626.97535 978.5153 626.27535 977.4353 L 626.18535 977.4353 L 626.18535 989.0953 L 622.39535 989.0953 L 622.39535 965.8753 L 622.39535 965.9153 Z M 626.18535 971.6253 C 626.19535 972.1553 626.25535 972.6953 626.35535 973.2153 C 626.66535 974.5153 627.40535 975.6753 628.44535 976.4953 C 629.48535 977.3253 630.77535 977.7753 632.10535 977.7753 C 636.16535 977.7753 638.50535 974.4053 638.50535 969.4853 C 638.50535 965.1853 636.28535 961.5053 632.23535 961.5053 C 630.87535 961.5453 629.56535 962.0353 628.51535 962.9153 C 627.46535 963.7953 626.73535 964.9953 626.44535 966.3353 C 626.29535 966.8553 626.20535 967.3853 626.18535 967.9253 L 626.18535 971.6053 Z" fill="#4e4e4e"/>
                  </g>
                </g>
              </g>
              <g id="Group_256">
                <title>path-4</title>
                <g id="Group_257">
                  <title>path3_fill</title>
                  <g id="Graphic_258">
                    <title>path3_fill-2</title>
                    <path d="M 649.14535 958.9053 L 653.75535 971.5853 C 654.23535 973.0053 654.75535 974.6953 655.10535 975.9853 L 655.19535 975.9853 C 655.58535 974.7053 656.02535 973.0553 656.54535 971.5053 L 660.73535 958.9153 L 664.79535 958.9153 L 659.04535 974.2153 C 656.29535 981.5653 654.43535 985.3453 651.81535 987.6453 C 650.49535 988.8853 648.87535 989.7553 647.11535 990.1653 L 646.15535 986.8853 C 647.38535 986.4753 648.52535 985.8253 649.51535 984.9753 C 650.91535 983.7953 652.01535 982.3153 652.74535 980.6253 C 652.90535 980.3353 653.00535 980.0153 653.05535 979.6953 C 653.02535 979.3453 652.93535 978.9953 652.79535 978.6753 L 644.99535 958.9053 L 649.18535 958.9053 L 649.15535 958.9053 Z" fill="#4e4e4e"/>
                  </g>
                </g>
              </g>
              <g id="Group_253">
                <title>path-5</title>
                <g id="Group_254">
                  <title>path4_fill</title>
                  <g id="Graphic_255">
                    <title>path4_fill-2</title>
                    <path d="M 674.86535 952.7353 L 674.86535 958.8953 L 680.35535 958.8953 L 680.35535 961.8653 L 674.86535 961.8653 L 674.86535 973.4253 C 674.86535 976.0653 675.60535 977.5953 677.74535 977.5953 C 678.49535 977.6053 679.24535 977.5153 679.96535 977.3353 L 680.13535 980.2653 C 679.04535 980.6553 677.88535 980.8353 676.73535 980.7953 C 675.96535 980.8453 675.19535 980.7253 674.48535 980.4353 C 673.76535 980.1553 673.12535 979.7153 672.59535 979.1553 C 671.50535 978.0053 671.11535 976.0953 671.11535 973.5653 L 671.11535 961.8653 L 667.84535 961.8653 L 667.84535 958.8953 L 671.11535 958.8953 L 671.11535 953.7453 L 674.86535 952.7353 Z" fill="#4e4e4e"/>
                  </g>
                </g>
              </g>
              <g id="Group_250">
                <title>path-6</title>
                <g id="Group_251">
                  <title>path5_fill</title>
                  <g id="Graphic_252">
                    <title>path5_fill-2</title>
                    <path d="M 687.42535 970.3353 C 687.51535 975.6153 690.82535 977.7853 694.65535 977.7853 C 696.65535 977.8453 698.64535 977.4753 700.49535 976.6753 L 701.14535 979.4653 C 698.93535 980.3953 696.55535 980.8553 694.16535 980.7953 C 687.67535 980.7953 683.79535 976.4453 683.79535 969.9753 C 683.79535 963.5053 687.54535 958.4053 693.68535 958.4053 C 700.56535 958.4053 702.40535 964.5653 702.40535 968.5153 C 702.40535 969.1253 702.35535 969.7353 702.27535 970.3353 L 687.42535 970.3353 Z M 698.66535 967.5453 C 698.70535 965.0653 697.66535 961.2053 693.35535 961.2053 C 689.47535 961.2053 687.78535 964.8353 687.47535 967.5453 L 698.67535 967.5453 Z" fill="#4e4e4e"/>
                  </g>
                </g>
              </g>
              <g id="Group_247">
                <title>path-7</title>
                <g id="Group_248">
                  <title>path6_fill</title>
                  <g id="Graphic_249">
                    <title>path6_fill-2</title>
                    <path d="M 707.98535 965.5953 C 707.98535 963.0753 707.94535 960.8953 707.81535 958.9053 L 711.17535 958.9053 L 711.30535 963.1153 L 711.47535 963.1153 C 712.43535 960.2253 714.74535 958.4153 717.31535 958.4153 C 717.68535 958.4153 718.04535 958.4553 718.40535 958.5453 L 718.40535 962.2253 C 717.97535 962.1353 717.53535 962.0853 717.09535 962.0953 C 714.39535 962.0953 712.48535 964.1753 711.95535 967.1053 C 711.84535 967.7053 711.78535 968.3153 711.78535 968.9253 L 711.78535 980.3653 L 707.99535 980.3653 L 707.99535 965.6053 Z" fill="#4e4e4e"/>
                  </g>
                </g>
              </g>
            </g>
          </g>
          <g id="Group_229">
            <title>g-2</title>
            <g id="Group_242">
              <title>path-8</title>
              <g id="Group_243">
                <title>path7_fill</title>
                <g id="Graphic_244">
                  <title>path7_fill-2</title>
                  <path d="M 567.23535 948.8453 C 567.26535 949.4353 567.11535 950.0153 566.80535 950.5153 C 566.50535 951.0153 566.05535 951.4153 565.52535 951.6653 C 564.99535 951.9153 564.40535 951.9953 563.83535 951.9053 C 563.25535 951.8153 562.72535 951.5553 562.29535 951.1553 C 561.86535 950.7553 561.56535 950.2453 561.42535 949.6653 C 561.28535 949.0953 561.31535 948.4953 561.51535 947.9453 C 561.71535 947.3953 562.07535 946.9153 562.54535 946.5653 C 563.01535 946.2153 563.57535 946.0153 564.16535 945.9953 C 564.94535 945.9653 565.70535 946.2453 566.28535 946.7753 C 566.86535 947.3053 567.20535 948.0453 567.23535 948.8353 Z" fill="#767677"/>
                </g>
              </g>
            </g>
            <g id="Group_239">
              <title>path-9</title>
              <g id="Group_240">
                <title>path8_fill</title>
                <g id="Graphic_241">
                  <title>path8_fill-2</title>
                  <path d="M 550.04535 983.8053 C 542.19535 983.8053 535.33535 980.9253 531.78535 976.6753 C 533.11535 980.4953 535.58535 983.8053 538.85535 986.1453 C 542.12535 988.4853 546.04535 989.7453 550.05535 989.7453 C 554.06535 989.7453 557.98535 988.4853 561.25535 986.1453 C 564.52535 983.8053 566.99535 980.4953 568.32535 976.6753 C 564.75535 980.9353 557.90535 983.8053 550.05535 983.8053 Z" fill="#f37726"/>
                </g>
              </g>
            </g>
            <g id="Group_236">
              <title>path-10</title>
              <g id="Group_237">
                <title>path9_fill</title>
                <g id="Graphic_238">
                  <title>path9_fill-2</title>
                  <path d="M 550.04535 956.1153 C 557.89535 956.1153 564.75535 958.9953 568.30535 963.2453 C 566.97535 959.4253 564.50535 956.1153 561.23535 953.7753 C 557.96535 951.4353 554.04535 950.1753 550.03535 950.1753 C 546.02535 950.1753 542.10535 951.4353 538.83535 953.7753 C 535.56535 956.1153 533.09535 959.4253 531.76535 963.2453 C 535.33535 958.9953 542.18535 956.1153 550.03535 956.1153 Z" fill="#f37726"/>
                </g>
              </g>
            </g>
            <g id="Group_233">
              <title>path-11</title>
              <g id="Group_234">
                <title>path10_fill</title>
                <g id="Graphic_235">
                  <title>path10_fill-2</title>
                  <path d="M 539.27535 992.0853 C 539.30535 992.8253 539.12535 993.5553 538.73535 994.1953 C 538.35535 994.8253 537.79535 995.3353 537.12535 995.6453 C 536.45535 995.9553 535.71535 996.0653 534.98535 995.9553 C 534.25535 995.8453 533.58535 995.5153 533.03535 995.0153 C 532.49535 994.5153 532.11535 993.8653 531.93535 993.1453 C 531.76535 992.4253 531.80535 991.6653 532.05535 990.9753 C 532.30535 990.2753 532.76535 989.6753 533.35535 989.2353 C 533.94535 988.7953 534.65535 988.5453 535.39535 988.5153 C 536.37535 988.4753 537.33535 988.8253 538.06535 989.4953 C 538.78535 990.1653 539.22535 991.0953 539.26535 992.0953 Z" fill="#989798"/>
                </g>
              </g>
            </g>
            <g id="Group_230">
              <title>path-12</title>
              <g id="Group_231">
                <title>path11_fill</title>
                <g id="Graphic_232">
                  <title>path11_fill-2</title>
                  <path d="M 532.67535 955.1553 C 532.24535 955.1753 531.81535 955.0653 531.44535 954.8353 C 531.07535 954.6053 530.78535 954.2753 530.60535 953.8853 C 530.42535 953.4953 530.36535 953.0553 530.42535 952.6253 C 530.49535 952.1953 530.68535 951.7953 530.97535 951.4753 C 531.26535 951.1553 531.64535 950.9253 532.06535 950.8253 C 532.48535 950.7253 532.92535 950.7453 533.32535 950.8953 C 533.73535 951.0453 534.08535 951.3153 534.33535 951.6653 C 534.58535 952.0153 534.73535 952.4353 534.75535 952.8753 C 534.77535 953.4553 534.57535 954.0253 534.18535 954.4553 C 533.79535 954.8853 533.25535 955.1353 532.67535 955.1653 Z" fill="#6f7070"/>
                </g>
              </g>
            </g>
          </g>
        </g>
      </g>
    </g>
  </g>
</svg>
