<?xml version="1.0" encoding="UTF-8" standalone="no"?>
<!DOCTYPE svg PUBLIC "-//W3C//DTD SVG 1.1//EN" "http://www.w3.org/Graphics/SVG/1.1/DTD/svg11.dtd">
<svg xmlns:xl="http://www.w3.org/1999/xlink" xmlns:dc="http://purl.org/dc/elements/1.1/" xmlns="http://www.w3.org/2000/svg" version="1.1" viewBox="433.3417 529 1193.6583 868" width="1193.6583" height="868">
  <defs>
    <marker orient="auto" overflow="visible" markerUnits="strokeWidth" id="FilledArrow_Marker" stroke-linejoin="miter" stroke-miterlimit="10" viewBox="-1 -3 6 6" markerWidth="6" markerHeight="6" color="#003776">
      <g>
        <path d="M 3.7333333 0 L 0 -1.4 L 0 1.4 Z" fill="currentColor" stroke="currentColor" stroke-width="1"/>
      </g>
    </marker>
    <marker orient="auto" overflow="visible" markerUnits="strokeWidth" id="FilledArrow_Marker_2" stroke-linejoin="miter" stroke-miterlimit="10" viewBox="-1 -3 6 6" markerWidth="6" markerHeight="6" color="#310067">
      <g>
        <path d="M 3.7333333 0 L 0 -1.4 L 0 1.4 Z" fill="currentColor" stroke="currentColor" stroke-width="1"/>
      </g>
    </marker>
    <marker orient="auto" overflow="visible" markerUnits="strokeWidth" id="FilledArrow_Marker_3" stroke-linejoin="miter" stroke-miterlimit="10" viewBox="-1 -3 6 6" markerWidth="6" markerHeight="6" color="#b1001c">
      <g>
        <path d="M 3.7333333 0 L 0 -1.4 L 0 1.4 Z" fill="currentColor" stroke="currentColor" stroke-width="1"/>
      </g>
    </marker>
  </defs>
  <g id="RStudio" stroke="none" stroke-dasharray="none" fill-opacity="1" fill="none" stroke-opacity="1">
    <title>RStudio</title>
    <g id="RStudio_Active">
      <title>Active</title>
      <g id="Graphic_90">
        <path d="M 474.3417 656.6667 L 774.4665 656.6667 C 779.4371 656.6667 783.4665 660.6961 783.4665 665.6667 L 783.4665 1233 C 783.4665 1237.9706 779.4371 1242 774.4665 1242 L 474.3417 1242 C 469.37114 1242 465.3417 1237.9706 465.3417 1233 L 465.3417 665.6667 C 465.3417 660.6961 469.37114 656.6667 474.3417 656.6667 Z" fill="white"/>
        <path d="M 474.3417 656.6667 L 774.4665 656.6667 C 779.4371 656.6667 783.4665 660.6961 783.4665 665.6667 L 783.4665 1233 C 783.4665 1237.9706 779.4371 1242 774.4665 1242 L 474.3417 1242 C 469.37114 1242 465.3417 1237.9706 465.3417 1233 L 465.3417 665.6667 C 465.3417 660.6961 469.37114 656.6667 474.3417 656.6667 Z" stroke="black" stroke-linecap="round" stroke-linejoin="round" stroke-width="4"/>
      </g>
      <g id="Graphic_37">
        <path d="M 987 561 L 1586 561 C 1590.9706 561 1595 565.02944 1595 570 L 1595 1356 C 1595 1360.9706 1590.9706 1365 1586 1365 L 987 1365 C 982.0294 1365 978 1360.9706 978 1356 L 978 570 C 978 565.02944 982.0294 561 987 561 Z" fill="#eed7b5"/>
        <path d="M 987 561 L 1586 561 C 1590.9706 561 1595 565.02944 1595 570 L 1595 1356 C 1595 1360.9706 1590.9706 1365 1586 1365 L 987 1365 C 982.0294 1365 978 1360.9706 978 1356 L 978 570 C 978 565.02944 982.0294 561 987 561 Z" stroke="#a5a5a5" stroke-linecap="round" stroke-linejoin="round" stroke-width="4"/>
        <text transform="translate(983 566)" fill="black">
          <tspan font-family="Trebuchet MS" font-weight="bold" font-size="24" fill="black" x="135.91016" y="23">HPC cluster’s private network</tspan>
        </text>
      </g>
      <g id="Graphic_35">
        <path d="M 1180 985 L 1562.3394 985 C 1567.31 985 1571.3394 989.0294 1571.3394 994 L 1571.3394 1335 C 1571.3394 1339.9706 1567.31 1344 1562.3394 1344 L 1180 1344 C 1175.0294 1344 1171 1339.9706 1171 1335 L 1171 994 C 1171 989.0294 1175.0294 985 1180 985 Z" fill="white" fill-opacity=".797519"/>
        <path d="M 1180 985 L 1562.3394 985 C 1567.31 985 1571.3394 989.0294 1571.3394 994 L 1571.3394 1335 C 1571.3394 1339.9706 1567.31 1344 1562.3394 1344 L 1180 1344 C 1175.0294 1344 1171 1339.9706 1171 1335 L 1171 994 C 1171 989.0294 1175.0294 985 1180 985 Z" stroke="black" stroke-linecap="round" stroke-linejoin="round" stroke-width="4"/>
      </g>
      <g id="Group_120">
        <g id="Group_114">
          <g id="Graphic_34">
            <path d="M 1389.9054 1271.3112 L 1385.7854 1267.8212 L 1387.9854 1262.8912 C 1388.1354 1262.5512 1388.0854 1262.1512 1387.8554 1261.8612 C 1387.6254 1261.5712 1387.2454 1261.4312 1386.8754 1261.5012 L 1381.5754 1262.5512 L 1379.0954 1257.7512 C 1378.7554 1257.0912 1377.6654 1257.0912 1377.3154 1257.7512 L 1374.8354 1262.5512 L 1369.5354 1261.5012 C 1369.1654 1261.4312 1368.7954 1261.5612 1368.5554 1261.8612 C 1368.3254 1262.1512 1368.2754 1262.5512 1368.4254 1262.8912 L 1370.6254 1267.8212 L 1366.5054 1271.3112 C 1366.2154 1271.5512 1366.0954 1271.9312 1366.1754 1272.3012 C 1366.2554 1272.6612 1366.5354 1272.9512 1366.8954 1273.0512 L 1372.1254 1274.4012 L 1372.2854 1279.8012 C 1372.2954 1280.1712 1372.5154 1280.5112 1372.8554 1280.6712 C 1373.1954 1280.8312 1373.5954 1280.7912 1373.8854 1280.5712 L 1378.2054 1277.3312 L 1382.5254 1280.5712 C 1382.7054 1280.7012 1382.9154 1280.7712 1383.1254 1280.7712 C 1383.2754 1280.7712 1383.4254 1280.7412 1383.5554 1280.6712 C 1383.8954 1280.5112 1384.1054 1280.1712 1384.1254 1279.8012 L 1384.2854 1274.4012 L 1389.5154 1273.0512 C 1389.8754 1272.9612 1390.1554 1272.6712 1390.2354 1272.3012 C 1390.3154 1271.9312 1390.1854 1271.5512 1389.9054 1271.3112 Z M 1378.0954 1273.1712 C 1375.9654 1273.1712 1374.2454 1271.4412 1374.2454 1269.3212 C 1374.2454 1267.1912 1375.9754 1265.4712 1378.0954 1265.4712 C 1380.2154 1265.4712 1381.9454 1267.2012 1381.9454 1269.3212 C 1381.9454 1271.4412 1380.2254 1273.1712 1378.0954 1273.1712 Z" fill="black"/>
          </g>
          <g id="Graphic_33">
            <path d="M 1372.9454 1283.9412 L 1368.3554 1281.7812 L 1370.2354 1277.0712 C 1370.3754 1276.7312 1370.3154 1276.3412 1370.0754 1276.0612 C 1369.8354 1275.7812 1369.4754 1275.6512 1369.1154 1275.7112 L 1364.1354 1276.6612 L 1362.8854 1271.7412 C 1362.7954 1271.3912 1362.5154 1271.1112 1362.1654 1271.0212 C 1361.8154 1270.9312 1361.4354 1271.0412 1361.1854 1271.3012 L 1357.7154 1275.0012 L 1353.8154 1271.7612 C 1353.5354 1271.5312 1353.1454 1271.4612 1352.8054 1271.6012 C 1352.4654 1271.7312 1352.2254 1272.0412 1352.1754 1272.4112 L 1351.5354 1277.4412 L 1346.4754 1277.1112 C 1346.1054 1277.0912 1345.7654 1277.2612 1345.5654 1277.5712 C 1345.3654 1277.8812 1345.3554 1278.2712 1345.5354 1278.5912 L 1347.9754 1283.0412 L 1343.6854 1285.7512 C 1343.3854 1285.9412 1343.2054 1286.2812 1343.2254 1286.6512 C 1343.2454 1287.0212 1343.4654 1287.3412 1343.7954 1287.4912 L 1348.3854 1289.6512 L 1346.5054 1294.3612 C 1346.3654 1294.7012 1346.4254 1295.0912 1346.6654 1295.3712 C 1346.8954 1295.6512 1347.2654 1295.7812 1347.6254 1295.7212 L 1352.6054 1294.7712 L 1353.8554 1299.6912 C 1353.9454 1300.0412 1354.2254 1300.3212 1354.5754 1300.4112 C 1354.6554 1300.4312 1354.7454 1300.4412 1354.8254 1300.4412 C 1355.0954 1300.4412 1355.3654 1300.3312 1355.5554 1300.1212 L 1359.0254 1296.4212 L 1362.9254 1299.6612 C 1363.2054 1299.8912 1363.5954 1299.9512 1363.9354 1299.8212 C 1364.2754 1299.6912 1364.5154 1299.3812 1364.5654 1299.0112 L 1365.2054 1293.9812 L 1370.2654 1294.3112 C 1370.6354 1294.3312 1370.9754 1294.1612 1371.1754 1293.8512 C 1371.3754 1293.5412 1371.3854 1293.1512 1371.2054 1292.8312 L 1368.7654 1288.3812 L 1373.0554 1285.6712 C 1373.3654 1285.4812 1373.5454 1285.1312 1373.5154 1284.7612 C 1373.4854 1284.3912 1373.2754 1284.0912 1372.9454 1283.9412 Z M 1358.3154 1289.4912 C 1356.1854 1289.4912 1354.4654 1287.7612 1354.4654 1285.6412 C 1354.4654 1283.5212 1356.1954 1281.7912 1358.3154 1281.7912 C 1360.4454 1281.7912 1362.1654 1283.5212 1362.1654 1285.6412 C 1362.1654 1287.7612 1360.4354 1289.4912 1358.3154 1289.4912 Z" fill="black"/>
          </g>
        </g>
        <g id="Graphic_32">
          <text transform="translate(1279.6789 1304.9902)" fill="black">
            <tspan font-family="Trebuchet MS" font-weight="bold" font-size="24" fill="black" x="4.6034164" y="23">Compute Node</tspan>
          </text>
        </g>
      </g>
      <g id="Graphic_31">
        <path d="M 1180.6606 611.63265 L 1563 611.63265 C 1567.9706 611.63265 1572 615.6621 1572 620.63265 L 1572 942 C 1572 946.9706 1567.9706 951 1563 951 L 1180.6606 951 C 1175.69 951 1171.6606 946.9706 1171.6606 942 L 1171.6606 620.63265 C 1171.6606 615.6621 1175.69 611.63265 1180.6606 611.63265 Z" fill="white" fill-opacity=".801801"/>
        <path d="M 1180.6606 611.63265 L 1563 611.63265 C 1567.9706 611.63265 1572 615.6621 1572 620.63265 L 1572 942 C 1572 946.9706 1567.9706 951 1563 951 L 1180.6606 951 C 1175.69 951 1171.6606 946.9706 1171.6606 942 L 1171.6606 620.63265 C 1171.6606 615.6621 1175.69 611.63265 1180.6606 611.63265 Z" stroke="black" stroke-linecap="round" stroke-linejoin="round" stroke-width="4"/>
      </g>
      <g id="Group_110">
        <g id="Graphic_30">
          <path d="M 1394.9944 637.20065 L 1390.8744 633.71065 L 1393.0744 628.78065 C 1393.2244 628.44065 1393.1744 628.04065 1392.9444 627.75065 C 1392.7144 627.46065 1392.3344 627.32065 1391.9644 627.39065 L 1386.6644 628.44065 L 1384.1844 623.64065 C 1383.8444 622.98065 1382.7544 622.98065 1382.4044 623.64065 L 1379.9244 628.44065 L 1374.6244 627.39065 C 1374.2544 627.32065 1373.8844 627.45065 1373.6444 627.75065 C 1373.4144 628.04065 1373.3644 628.44065 1373.5144 628.78065 L 1375.7144 633.71065 L 1371.5944 637.20065 C 1371.3044 637.44065 1371.1844 637.82065 1371.2644 638.19065 C 1371.3444 638.55065 1371.6244 638.84065 1371.9844 638.94065 L 1377.2144 640.29065 L 1377.3744 645.69065 C 1377.3844 646.06065 1377.6044 646.40065 1377.9444 646.56065 C 1378.2844 646.72065 1378.6844 646.68065 1378.9744 646.46065 L 1383.2944 643.22065 L 1387.6144 646.46065 C 1387.7944 646.59065 1388.0044 646.66065 1388.2144 646.66065 C 1388.3644 646.66065 1388.5144 646.63065 1388.6444 646.56065 C 1388.9844 646.40065 1389.1944 646.06065 1389.2144 645.69065 L 1389.3744 640.29065 L 1394.6044 638.94065 C 1394.9644 638.85065 1395.2444 638.56065 1395.3244 638.19065 C 1395.4044 637.82065 1395.2744 637.44065 1394.9944 637.20065 Z M 1383.1844 639.06065 C 1381.0544 639.06065 1379.3344 637.33065 1379.3344 635.21065 C 1379.3344 633.08065 1381.0644 631.36065 1383.1844 631.36065 C 1385.3044 631.36065 1387.0344 633.09065 1387.0344 635.21065 C 1387.0344 637.33065 1385.3144 639.06065 1383.1844 639.06065 Z" fill="black"/>
        </g>
        <g id="Graphic_29">
          <path d="M 1378.0344 649.83065 L 1373.4444 647.67065 L 1375.3244 642.96065 C 1375.4644 642.62065 1375.4044 642.23065 1375.1644 641.95065 C 1374.9244 641.67065 1374.5644 641.54065 1374.2044 641.60065 L 1369.2244 642.55065 L 1367.9744 637.63065 C 1367.8844 637.28065 1367.6044 637.00065 1367.2544 636.91065 C 1366.9044 636.82065 1366.5244 636.93065 1366.2744 637.19065 L 1362.8044 640.89065 L 1358.9044 637.65065 C 1358.6244 637.42065 1358.2344 637.35065 1357.8944 637.49065 C 1357.5544 637.62065 1357.3144 637.93065 1357.2644 638.30065 L 1356.6244 643.33065 L 1351.5644 643.00065 C 1351.1944 642.98065 1350.8544 643.15065 1350.6544 643.46065 C 1350.4544 643.77065 1350.4444 644.16065 1350.6244 644.48065 L 1353.0644 648.93065 L 1348.7744 651.64065 C 1348.4744 651.83065 1348.2944 652.17065 1348.3144 652.54065 C 1348.3344 652.91065 1348.5544 653.23065 1348.8844 653.38065 L 1353.4744 655.54065 L 1351.5944 660.25065 C 1351.4544 660.59065 1351.5144 660.98065 1351.7544 661.26065 C 1351.9844 661.54065 1352.3544 661.67065 1352.7144 661.61065 L 1357.6944 660.66065 L 1358.9444 665.58065 C 1359.0344 665.93065 1359.3144 666.21065 1359.6644 666.30065 C 1359.7444 666.32065 1359.8344 666.33065 1359.9144 666.33065 C 1360.1844 666.33065 1360.4544 666.22065 1360.6444 666.01065 L 1364.1144 662.31065 L 1368.0144 665.55065 C 1368.2944 665.78065 1368.6844 665.84065 1369.0244 665.71065 C 1369.3644 665.58065 1369.6044 665.27065 1369.6544 664.90065 L 1370.2944 659.87065 L 1375.3544 660.20065 C 1375.7244 660.22065 1376.0644 660.05065 1376.2644 659.74065 C 1376.4644 659.43065 1376.4744 659.04065 1376.2944 658.72065 L 1373.8544 654.27065 L 1378.1444 651.56065 C 1378.4544 651.37065 1378.6344 651.02065 1378.6044 650.65065 C 1378.5744 650.28065 1378.3644 649.98065 1378.0344 649.83065 Z M 1363.4044 655.38065 C 1361.2744 655.38065 1359.5544 653.65065 1359.5544 651.53065 C 1359.5544 649.41065 1361.2844 647.68065 1363.4044 647.68065 C 1365.5344 647.68065 1367.2544 649.41065 1367.2544 651.53065 C 1367.2544 653.65065 1365.5244 655.38065 1363.4044 655.38065 Z" fill="black"/>
        </g>
      </g>
      <g id="Graphic_28">
        <text transform="translate(1176.3211 671.1789)" fill="black">
          <tspan font-family="Trebuchet MS" font-weight="bold" font-size="24" fill="black" x="115.32968" y="23">User Interface</tspan>
        </text>
      </g>
      <g id="Group_113">
        <g id="Graphic_23">
          <path d="M 893.2055 670.8544 L 1059.3303 670.8544 C 1064.3008 670.8544 1068.3303 674.8838 1068.3303 679.8544 L 1068.3303 769.8544 C 1068.3303 774.8249 1064.3008 778.8544 1059.3303 778.8544 L 893.2055 778.8544 C 888.2349 778.8544 884.2055 774.8249 884.2055 769.8544 L 884.2055 679.8544 C 884.2055 674.8838 888.2349 670.8544 893.2055 670.8544 Z" fill="white"/>
          <path d="M 893.2055 670.8544 L 1059.3303 670.8544 C 1064.3008 670.8544 1068.3303 674.8838 1068.3303 679.8544 L 1068.3303 769.8544 C 1068.3303 774.8249 1064.3008 778.8544 1059.3303 778.8544 L 893.2055 778.8544 C 888.2349 778.8544 884.2055 774.8249 884.2055 769.8544 L 884.2055 679.8544 C 884.2055 674.8838 888.2349 670.8544 893.2055 670.8544 Z" stroke="black" stroke-linecap="round" stroke-linejoin="round" stroke-width="4"/>
        </g>
        <g id="Graphic_22">
          <text transform="translate(921.6526 729.9006)" fill="black">
            <tspan font-family="Trebuchet MS" font-weight="bold" font-size="24" fill="black" x="0" y="23">Jumphost</tspan>
          </text>
        </g>
        <g id="Group_112">
          <g id="Graphic_21">
            <title>Reply All</title>
            <path d="M 962.0429 688.4006 L 962.0429 682.4006 L 976.0429 696.4006 L 962.0429 710.4006 L 962.0429 704.4006 L 970.0429 696.4006 L 962.0429 688.4006 Z M 950.0429 690.4006 L 950.0429 682.4006 L 964.0429 696.4006 L 950.0429 710.4006 L 950.0429 702.2006 C 940.0429 702.2006 933.0429 705.4006 928.0429 712.4006 C 930.0429 702.4006 936.0429 692.4006 950.0429 690.4006 Z" fill="black"/>
          </g>
          <g id="Graphic_20">
            <title>Verified User</title>
            <path d="M 1008.2679 678.7395 L 992.0429 685.9506 L 992.0429 696.7673 C 992.0429 706.7727 998.9655 716.1291 1008.2679 718.4006 C 1017.5702 716.1291 1024.4929 706.7727 1024.4929 696.7673 L 1024.4929 685.9506 L 1008.2679 678.7395 Z M 1004.6623 707.58395 L 997.4512 700.3728 L 999.9931 697.8309 L 1004.6623 702.4821 L 1016.5426 690.6018 L 1019.0845 693.1617 L 1004.6623 707.58395 Z" fill="black"/>
          </g>
        </g>
        <g id="Line_56">
          <line x1="884.2055" y1="724.8544" x2="1068.3303" y2="724.8544" stroke="#003776" stroke-linecap="round" stroke-linejoin="round" stroke-dasharray="12.0,12.0" stroke-width="3"/>
        </g>
      </g>
      <g id="Line_57">
        <line x1="1068.3303" y1="724.8544" x2="1155.7606" y2="724.7704" marker-end="url(#FilledArrow_Marker)" stroke="#003776" stroke-linecap="round" stroke-linejoin="round" stroke-width="3"/>
      </g>
      <g id="Graphic_62">
        <text transform="translate(790.8577 701.5428)" fill="black">
          <tspan font-family="Trebuchet MS" font-size="16" fill="black" x="25.645306" y="15">login</tspan>
        </text>
      </g>
      <g id="Line_26">
        <line x1="784.3862" y1="724.8544" x2="868.3055" y2="724.8544" marker-end="url(#FilledArrow_Marker)" stroke="#003776" stroke-linecap="round" stroke-linejoin="round" stroke-width="3"/>
      </g>
      <g id="Group_177">
        <g id="Graphic_89">
          <text transform="translate(526.7446 730.1098)" fill="black">
            <tspan font-family="Trebuchet MS" font-weight="bold" font-size="24" fill="black" x="0" y="23">User’s computer</tspan>
          </text>
        </g>
        <g id="Group_86">
          <g id="Graphic_88">
            <title>Person</title>
            <path d="M 592.1885 699.656 C 596.33225 699.656 599.6885 696.2998 599.6885 692.156 C 599.6885 688.0123 596.33225 684.656 592.1885 684.656 C 588.04475 684.656 584.6885 688.0123 584.6885 692.156 C 584.6885 696.2998 588.04475 699.656 592.1885 699.656 Z M 592.1885 703.406 C 587.18225 703.406 577.1885 705.9185 577.1885 710.906 L 577.1885 714.656 L 607.1885 714.656 L 607.1885 710.906 C 607.1885 705.9185 597.19475 703.406 592.1885 703.406 Z" fill="black"/>
          </g>
          <g id="Graphic_87">
            <title>Laptop Mac</title>
            <path d="M 663.6197 712.1098 C 665.8197 712.1098 667.5997 710.3098 667.5997 708.1098 L 667.6197 686.1098 C 667.6197 683.9098 665.8197 682.1098 663.6197 682.1098 L 631.6197 682.1098 C 629.4197 682.1098 627.6197 683.9098 627.6197 686.1098 L 627.6197 708.1098 C 627.6197 710.3098 629.4197 712.1098 631.6197 712.1098 L 623.6197 712.1098 C 623.6197 714.3098 625.4197 716.1098 627.6197 716.1098 L 667.6197 716.1098 C 669.8197 716.1098 671.6197 714.3098 671.6197 712.1098 L 663.6197 712.1098 Z M 631.6197 686.1098 L 663.6197 686.1098 L 663.6197 708.1098 L 631.6197 708.1098 L 631.6197 686.1098 Z M 647.6197 714.1098 C 646.5197 714.1098 645.6197 713.2098 645.6197 712.1098 C 645.6197 711.0098 646.5197 710.1098 647.6197 710.1098 C 648.7197 710.1098 649.6197 711.0098 649.6197 712.1098 C 649.6197 713.2098 648.7197 714.1098 647.6197 714.1098 Z" fill="black"/>
          </g>
        </g>
      </g>
      <g id="Group_108">
        <g id="Graphic_99">
          <path d="M 821.82335 661.1667 L 845.8234 661.1667 C 853.8315 661.1667 860.3234 667.6585 860.3234 675.6667 L 860.3234 675.6667 C 860.3234 683.6748 853.8315 690.1667 845.8234 690.1667 L 821.82335 690.1667 C 813.8152 690.1667 807.32335 683.6748 807.32335 675.6667 L 807.32335 675.6667 C 807.32335 667.6585 813.8152 661.1667 821.82335 661.1667 Z" fill="#686868"/>
        </g>
        <g id="Graphic_70">
          <text transform="translate(826.7921 661.6667)" fill="white">
            <tspan font-family="Trebuchet MS" font-weight="bold" font-size="24" fill="white" x="0" y="23">2</tspan>
          </text>
        </g>
      </g>
      <g id="Graphic_107">
        <text transform="translate(790.9417 729.7401)" fill="black">
          <tspan font-family="Trebuchet MS" font-size="16" fill="black" x="11.94218" y="15">over SSH</tspan>
          <tspan font-family="Trebuchet MS" font-size="16" fill="black" x="6.059368" y="34">on port 22</tspan>
        </text>
      </g>
      <g id="Graphic_127">
        <path d="M 1202 763 L 1542.1248 763 C 1547.0954 763 1551.1248 767.0294 1551.1248 772 L 1551.1248 923 C 1551.1248 927.9706 1547.0954 932 1542.1248 932 L 1202 932 C 1197.0294 932 1193 927.9706 1193 923 L 1193 772 C 1193 767.0294 1197.0294 763 1202 763 Z" fill="white"/>
        <path d="M 1202 763 L 1542.1248 763 C 1547.0954 763 1551.1248 767.0294 1551.1248 772 L 1551.1248 923 C 1551.1248 927.9706 1547.0954 932 1542.1248 932 L 1202 932 C 1197.0294 932 1193 927.9706 1193 923 L 1193 772 C 1193 767.0294 1197.0294 763 1202 763 Z" stroke="#005c5d" stroke-linecap="round" stroke-linejoin="round" stroke-width="4"/>
        <text transform="translate(1208 768)" fill="black">
          <tspan font-family="Trebuchet MS" font-weight="bold" font-size="24" fill="black" x="81.3456" y="23">Screen Session</tspan>
        </text>
      </g>
      <g id="Graphic_126"/>
      <g id="Graphic_128">
        <path d="M 1222 870.998 L 1522.1248 870.998 C 1527.0954 870.998 1531.1248 875.0275 1531.1248 879.998 L 1531.1248 904.002 C 1531.1248 908.9725 1527.0954 913.002 1522.1248 913.002 L 1222 913.002 C 1217.0294 913.002 1213 908.9725 1213 904.002 L 1213 879.998 C 1213 875.0275 1217.0294 870.998 1222 870.998 Z" fill="white"/>
        <path d="M 1222 870.998 L 1522.1248 870.998 C 1527.0954 870.998 1531.1248 875.0275 1531.1248 879.998 L 1531.1248 904.002 C 1531.1248 908.9725 1527.0954 913.002 1522.1248 913.002 L 1222 913.002 C 1217.0294 913.002 1213 908.9725 1213 904.002 L 1213 879.998 C 1213 875.0275 1217.0294 870.998 1222 870.998 Z" stroke="#310067" stroke-linecap="round" stroke-linejoin="round" stroke-width="4"/>
        <text transform="translate(1228 875.998)" fill="black">
          <tspan font-family="Trebuchet MS" font-weight="bold" font-size="24" fill="black" x="67.42177" y="23">Slurm Session</tspan>
        </text>
      </g>
      <g id="Group_141">
        <g id="Graphic_68">
          <text transform="translate(1381.8303 713.99805)" fill="black">
            <tspan font-family="Trebuchet MS" font-size="16" fill="black" x="1.6757812" y="15">start </tspan>
            <tspan font-family="Trebuchet MS" font-style="italic" font-weight="bold" font-size="16" fill="black" y="15">screen session</tspan>
          </text>
        </g>
        <g id="Group_109">
          <g id="Graphic_102">
            <path d="M 1338.3303 708.99805 L 1362.3303 708.99805 C 1370.3384 708.99805 1376.8303 715.4899 1376.8303 723.49805 L 1376.8303 723.49805 C 1376.8303 731.5062 1370.3384 737.99805 1362.3303 737.99805 L 1338.3303 737.99805 C 1330.3221 737.99805 1323.8303 731.5062 1323.8303 723.49805 L 1323.8303 723.49805 C 1323.8303 715.4899 1330.3221 708.99805 1338.3303 708.99805 Z" fill="#686868"/>
          </g>
          <g id="Graphic_101">
            <text transform="translate(1343.299 709.49805)" fill="white">
              <tspan font-family="Trebuchet MS" font-weight="bold" font-size="24" fill="white" x="0" y="23">3</tspan>
            </text>
          </g>
        </g>
        <g id="Graphic_130">
          <text transform="translate(1211.8303 711.9961)" fill="black">
            <tspan font-family="Monaco" font-size="24" fill="black" x="0" y="24">bash&gt; _</tspan>
          </text>
        </g>
      </g>
      <g id="Group_140">
        <g id="Graphic_139">
          <text transform="translate(1406.2519 812.5)" fill="black">
            <tspan font-family="Trebuchet MS" font-size="16" fill="black" x="3.2714844" y="15">start </tspan>
            <tspan font-family="Trebuchet MS" font-style="italic" font-weight="bold" font-size="16" fill="black" y="15">interactive </tspan>
            <tspan font-family="Trebuchet MS" font-style="italic" font-weight="bold" font-size="16" fill="black" x="14.40039" y="34">slurm session</tspan>
          </text>
        </g>
        <g id="Group_136">
          <g id="Graphic_138">
            <path d="M 1362.7519 807.5 L 1386.7519 807.5 C 1394.76 807.5 1401.2519 813.9919 1401.2519 822 L 1401.2519 822 C 1401.2519 830.0081 1394.76 836.5 1386.7519 836.5 L 1362.7519 836.5 C 1354.7437 836.5 1348.2519 830.0081 1348.2519 822 L 1348.2519 822 C 1348.2519 813.9919 1354.7437 807.5 1362.7519 807.5 Z" fill="#686868"/>
          </g>
          <g id="Graphic_137">
            <text transform="translate(1367.7206 808)" fill="white">
              <tspan font-family="Trebuchet MS" font-weight="bold" font-size="24" fill="white" x="0" y="23">4</tspan>
            </text>
          </g>
        </g>
        <g id="Graphic_135">
          <text transform="translate(1208.2519 810)" fill="black">
            <tspan font-family="Monaco" font-size="24" fill="black" x="0" y="24">screen&gt; _</tspan>
          </text>
        </g>
      </g>
      <g id="Graphic_159">
        <path d="M 1202 1017.3683 L 1542.1248 1017.3683 C 1547.0954 1017.3683 1551.1248 1021.3978 1551.1248 1026.3683 L 1551.1248 1233 C 1551.1248 1237.9706 1547.0954 1242 1542.1248 1242 L 1202 1242 C 1197.0294 1242 1193 1237.9706 1193 1233 L 1193 1026.3683 C 1193 1021.3978 1197.0294 1017.3683 1202 1017.3683 Z" fill="white"/>
        <path d="M 1202 1017.3683 L 1542.1248 1017.3683 C 1547.0954 1017.3683 1551.1248 1021.3978 1551.1248 1026.3683 L 1551.1248 1233 C 1551.1248 1237.9706 1547.0954 1242 1542.1248 1242 L 1202 1242 C 1197.0294 1242 1193 1237.9706 1193 1233 L 1193 1026.3683 C 1193 1021.3978 1197.0294 1017.3683 1202 1017.3683 Z" stroke="#310067" stroke-linecap="round" stroke-linejoin="round" stroke-width="4"/>
        <text transform="translate(1208 1022.3683)" fill="black">
          <tspan font-family="Trebuchet MS" font-weight="bold" font-size="24" fill="black" x="87.42177" y="23">Slurm Session</tspan>
        </text>
      </g>
      <g id="Graphic_158">
        <path d="M 1239 1110.0054 L 1505.1248 1110.0054 C 1510.0954 1110.0054 1514.1248 1114.0349 1514.1248 1119.0054 L 1514.1248 1214.9095 C 1514.1248 1219.88 1510.0954 1223.9095 1505.1248 1223.9095 L 1239 1223.9095 C 1234.0294 1223.9095 1230 1219.88 1230 1214.9095 L 1230 1119.0054 C 1230 1114.0349 1234.0294 1110.0054 1239 1110.0054 Z" fill="white"/>
        <path d="M 1239 1110.0054 L 1505.1248 1110.0054 C 1510.0954 1110.0054 1514.1248 1114.0349 1514.1248 1119.0054 L 1514.1248 1214.9095 C 1514.1248 1219.88 1510.0954 1223.9095 1505.1248 1223.9095 L 1239 1223.9095 C 1234.0294 1223.9095 1230 1219.88 1230 1214.9095 L 1230 1119.0054 C 1230 1114.0349 1234.0294 1110.0054 1239 1110.0054 Z" stroke="#b1001c" stroke-linecap="round" stroke-linejoin="round" stroke-width="4"/>
        <text transform="translate(1245 1115.0054)" fill="black">
          <tspan font-family="Trebuchet MS" font-weight="bold" font-size="24" fill="black" x="75.29482" y="23">R Session</tspan>
        </text>
      </g>
      <g id="Group_166">
        <g id="Graphic_157">
          <text transform="translate(1399.1476 1066.1183)" fill="black">
            <tspan font-family="Trebuchet MS" font-size="16" fill="black" x="3.906624" y="15">start </tspan>
            <tspan font-family="Trebuchet MS" font-style="italic" font-weight="bold" font-size="16" fill="black" y="15">R session</tspan>
          </text>
        </g>
        <g id="Group_154">
          <g id="Graphic_156">
            <path d="M 1355.6476 1061.1183 L 1379.6476 1061.1183 C 1387.6557 1061.1183 1394.1476 1067.6102 1394.1476 1075.6183 L 1394.1476 1075.6183 C 1394.1476 1083.6265 1387.6557 1090.1183 1379.6476 1090.1183 L 1355.6476 1090.1183 C 1347.6395 1090.1183 1341.1476 1083.6265 1341.1476 1075.6183 L 1341.1476 1075.6183 C 1341.1476 1067.6102 1347.6395 1061.1183 1355.6476 1061.1183 Z" fill="#686868"/>
          </g>
          <g id="Graphic_155">
            <text transform="translate(1360.6163 1061.6183)" fill="white">
              <tspan font-family="Trebuchet MS" font-weight="bold" font-size="24" fill="white" x="0" y="23">5</tspan>
            </text>
          </g>
        </g>
        <g id="Graphic_153">
          <text transform="translate(1229.5624 1063.6193)" fill="black">
            <tspan font-family="Monaco" font-size="24" fill="black" x=".09179688" y="24">bash&gt; _</tspan>
          </text>
        </g>
      </g>
      <g id="Group_165">
        <g id="Graphic_164">
          <text transform="translate(1379.5882 1157.269)" fill="black">
            <tspan font-family="Trebuchet MS" font-size="16" fill="black" x="6.328499" y="15">start </tspan>
            <tspan font-family="Trebuchet MS" font-weight="bold" font-size="16" fill="black" y="15">remoteR</tspan>
            <tspan font-family="Trebuchet MS" font-size="16" fill="black" y="15"> </tspan>
            <tspan font-family="Trebuchet MS" font-style="italic" font-weight="bold" font-size="16" fill="black" x="4.1331863" y="34">server session</tspan>
            <tspan font-family="Trebuchet MS" font-size="16" fill="black" x="7.78553" y="53">on a free port</tspan>
          </text>
        </g>
        <g id="Group_161">
          <g id="Graphic_163">
            <path d="M 1336.0882 1152.269 L 1360.0882 1152.269 C 1368.0964 1152.269 1374.5882 1158.7609 1374.5882 1166.769 L 1374.5882 1166.769 C 1374.5882 1174.7771 1368.0964 1181.269 1360.0882 1181.269 L 1336.0882 1181.269 C 1328.0801 1181.269 1321.5882 1174.7771 1321.5882 1166.769 L 1321.5882 1166.769 C 1321.5882 1158.7609 1328.0801 1152.269 1336.0882 1152.269 Z" fill="#686868"/>
          </g>
          <g id="Graphic_162">
            <text transform="translate(1341.057 1152.769)" fill="white">
              <tspan font-family="Trebuchet MS" font-weight="bold" font-size="24" fill="white" x="0" y="23">6</tspan>
            </text>
          </g>
        </g>
        <g id="Graphic_160">
          <text transform="translate(1249 1154.77)" fill="black">
            <tspan font-family="Monaco" font-size="24" fill="black" x="1.8635082" y="24">R&gt; _</tspan>
          </text>
        </g>
      </g>
      <g id="Line_167">
        <line x1="1372.0624" y1="913.002" x2="1372.0624" y2="1001.4683" marker-end="url(#FilledArrow_Marker_2)" stroke="#310067" stroke-linecap="round" stroke-linejoin="round" stroke-width="3"/>
      </g>
      <g id="Graphic_175">
        <path d="M 492.3417 970 L 754.4665 970 C 759.4371 970 763.4665 974.0294 763.4665 979 L 763.4665 1217 C 763.4665 1221.9706 759.4371 1226 754.4665 1226 L 492.3417 1226 C 487.37114 1226 483.3417 1221.9706 483.3417 1217 L 483.3417 979 C 483.3417 974.0294 487.37114 970 492.3417 970 Z" fill="white"/>
        <path d="M 492.3417 970 L 754.4665 970 C 759.4371 970 763.4665 974.0294 763.4665 979 L 763.4665 1217 C 763.4665 1221.9706 759.4371 1226 754.4665 1226 L 492.3417 1226 C 487.37114 1226 483.3417 1221.9706 483.3417 1217 L 483.3417 979 C 483.3417 974.0294 487.37114 970 492.3417 970 Z" stroke="#b1001c" stroke-linecap="round" stroke-linejoin="round" stroke-width="4"/>
        <text transform="translate(498.3417 975)" fill="black">
          <tspan font-family="Trebuchet MS" font-weight="bold" font-size="24" fill="black" x="37.97451" y="23">RStudio Session</tspan>
        </text>
      </g>
      <g id="Group_169">
        <g id="Graphic_174">
          <text transform="translate(630.58824 1157.269)" fill="black">
            <tspan font-family="Trebuchet MS" font-size="16" fill="black" x="6.3089676" y="15">start </tspan>
            <tspan font-family="Trebuchet MS" font-style="italic" font-weight="bold" font-size="16" fill="black" y="15">remoteR </tspan>
            <tspan font-family="Trebuchet MS" font-style="italic" font-weight="bold" font-size="16" fill="black" x="6.672249" y="34">client session</tspan>
            <tspan font-family="Trebuchet MS" font-size="16" fill="black" x="7.78553" y="53">on a free port</tspan>
          </text>
        </g>
        <g id="Group_171">
          <g id="Graphic_173">
            <path d="M 587.08824 1152.269 L 611.08824 1152.269 C 619.0964 1152.269 625.58824 1158.7609 625.58824 1166.769 L 625.58824 1166.769 C 625.58824 1174.7771 619.0964 1181.269 611.08824 1181.269 L 587.08824 1181.269 C 579.0801 1181.269 572.58824 1174.7771 572.58824 1166.769 L 572.58824 1166.769 C 572.58824 1158.7609 579.0801 1152.269 587.08824 1152.269 Z" fill="#686868"/>
          </g>
          <g id="Graphic_172">
            <text transform="translate(592.057 1152.769)" fill="white">
              <tspan font-family="Trebuchet MS" font-weight="bold" font-size="24" fill="white" x="0" y="23">9</tspan>
            </text>
          </g>
        </g>
        <g id="Graphic_170">
          <text transform="translate(500 1154.77)" fill="black">
            <tspan font-family="Monaco" font-size="24" fill="black" x="1.8635082" y="24">R&gt; _</tspan>
          </text>
        </g>
      </g>
      <g id="Group_196">
        <g id="Graphic_191">
          <path d="M 893.8752 1097.2775 L 1060 1097.2775 C 1064.9706 1097.2775 1069 1101.307 1069 1106.2775 L 1069 1213 C 1069 1217.9706 1064.9706 1222 1060 1222 L 893.8752 1222 C 888.9046 1222 884.8752 1217.9706 884.8752 1213 L 884.8752 1106.2775 C 884.8752 1101.307 888.9046 1097.2775 893.8752 1097.2775 Z" fill="white"/>
          <path d="M 893.8752 1097.2775 L 1060 1097.2775 C 1064.9706 1097.2775 1069 1101.307 1069 1106.2775 L 1069 1213 C 1069 1217.9706 1064.9706 1222 1060 1222 L 893.8752 1222 C 888.9046 1222 884.8752 1217.9706 884.8752 1213 L 884.8752 1106.2775 C 884.8752 1101.307 888.9046 1097.2775 893.8752 1097.2775 Z" stroke="black" stroke-linecap="round" stroke-linejoin="round" stroke-width="4"/>
        </g>
        <g id="Graphic_190">
          <text transform="translate(922.3224 1183)" fill="black">
            <tspan font-family="Trebuchet MS" font-weight="bold" font-size="24" fill="black" x="0" y="23">Jumphost</tspan>
          </text>
        </g>
        <g id="Group_187">
          <g id="Graphic_189">
            <title>Reply All</title>
            <path d="M 962.7126 1114.8238 L 962.7126 1108.8238 L 976.7126 1122.8238 L 962.7126 1136.8238 L 962.7126 1130.8238 L 970.7126 1122.8238 L 962.7126 1114.8238 Z M 950.7126 1116.8238 L 950.7126 1108.8238 L 964.7126 1122.8238 L 950.7126 1136.8238 L 950.7126 1128.6238 C 940.7126 1128.6238 933.7126 1131.8238 928.7126 1138.8238 C 930.7126 1128.8238 936.7126 1118.8238 950.7126 1116.8238 Z" fill="black"/>
          </g>
          <g id="Graphic_188">
            <title>Verified User</title>
            <path d="M 1008.9376 1105.1627 L 992.7126 1112.3738 L 992.7126 1123.1904 C 992.7126 1133.1959 999.6353 1142.5523 1008.9376 1144.8238 C 1018.2399 1142.5523 1025.1626 1133.1959 1025.1626 1123.1904 L 1025.1626 1112.3738 L 1008.9376 1105.1627 Z M 1005.332 1134.0071 L 998.1209 1126.796 L 1000.6629 1124.2541 L 1005.332 1128.9052 L 1017.2124 1117.025 L 1019.7543 1119.5849 L 1005.332 1134.0071 Z" fill="black"/>
          </g>
        </g>
      </g>
      <g id="Line_186">
        <line x1="884.8752" y1="1159.2898" x2="1069" y2="1159.2898" stroke="#003776" stroke-linecap="round" stroke-linejoin="round" stroke-dasharray="12.0,12.0" stroke-width="3"/>
      </g>
      <g id="Graphic_183">
        <text transform="translate(791.5275 1137.966)" fill="black">
          <tspan font-family="Trebuchet MS" font-size="16" fill="black" x="19.520306" y="15">Tunnel</tspan>
        </text>
      </g>
      <g id="Group_179">
        <g id="Graphic_181">
          <path d="M 822.4931 1105.5898 L 846.4931 1105.5898 C 854.5012 1105.5898 860.9931 1112.0817 860.9931 1120.0898 L 860.9931 1120.0898 C 860.9931 1128.098 854.5012 1134.5898 846.4931 1134.5898 L 822.4931 1134.5898 C 814.4849 1134.5898 807.9931 1128.098 807.9931 1120.0898 L 807.9931 1120.0898 C 807.9931 1112.0817 814.4849 1105.5898 822.4931 1105.5898 Z" fill="#686868"/>
        </g>
        <g id="Graphic_180">
          <text transform="translate(827.4618 1106.0898)" fill="white">
            <tspan font-family="Trebuchet MS" font-weight="bold" font-size="24" fill="white" x="0" y="23">7</tspan>
          </text>
        </g>
      </g>
      <g id="Graphic_178">
        <text transform="translate(791.6114 1178.1632)" fill="black">
          <tspan font-family="Trebuchet MS" font-size="16" fill="black" x="11.94218" y="15">over SSH</tspan>
          <tspan font-family="Trebuchet MS" font-size="16" fill="black" x="6.059368" y="34">on port 22</tspan>
        </text>
      </g>
      <g id="Line_192">
        <line x1="784.3862" y1="1174.8609" x2="869.2252" y2="1174.8609" marker-end="url(#FilledArrow_Marker)" stroke="#003776" stroke-linecap="butt" stroke-linejoin="round" stroke-width="3"/>
      </g>
      <g id="Line_193">
        <line x1="784.5244" y1="1159.6326" x2="869.3634" y2="1159.6326" marker-end="url(#FilledArrow_Marker)" stroke="#003776" stroke-linecap="butt" stroke-linejoin="round" stroke-width="3"/>
      </g>
      <g id="Line_195">
        <line x1="884.8752" y1="1175.8609" x2="1069" y2="1175.8609" stroke="#003776" stroke-linecap="round" stroke-linejoin="round" stroke-dasharray="12.0,12.0" stroke-width="3"/>
      </g>
      <g id="Line_198">
        <line x1="1069" y1="1174.8609" x2="1154.0132" y2="1174.8609" marker-end="url(#FilledArrow_Marker)" stroke="#003776" stroke-linecap="butt" stroke-linejoin="round" stroke-width="3"/>
      </g>
      <g id="Line_197">
        <line x1="1069" y1="1159.6326" x2="1154.1" y2="1159.6326" marker-end="url(#FilledArrow_Marker)" stroke="#003776" stroke-linecap="butt" stroke-linejoin="round" stroke-width="3"/>
      </g>
      <g id="Line_199">
        <line x1="763.4665" y1="1166.9575" x2="1214.1" y2="1166.9575" marker-end="url(#FilledArrow_Marker_3)" stroke="#b1001c" stroke-linecap="butt" stroke-linejoin="round" stroke-width="3"/>
      </g>
      <g id="Group_200">
        <g id="Graphic_202">
          <path d="M 1107.6305 1106.5 L 1131.6305 1106.5 C 1139.6386 1106.5 1146.1305 1112.9919 1146.1305 1121 L 1146.1305 1121 C 1146.1305 1129.0081 1139.6386 1135.5 1131.6305 1135.5 L 1107.6305 1135.5 C 1099.6224 1135.5 1093.1305 1129.0081 1093.1305 1121 L 1093.1305 1121 C 1093.1305 1112.9919 1099.6224 1106.5 1107.6305 1106.5 Z" fill="#686868"/>
        </g>
        <g id="Graphic_201">
          <text transform="translate(1112.5993 1107)" fill="white">
            <tspan font-family="Trebuchet MS" font-weight="bold" font-size="24" fill="white" x="0" y="23">7</tspan>
          </text>
        </g>
      </g>
      <g id="Group_204">
        <g id="Graphic_206">
          <path d="M 1107.8257 661.1667 L 1131.8257 661.1667 C 1139.8338 661.1667 1146.3257 667.6585 1146.3257 675.6667 L 1146.3257 675.6667 C 1146.3257 683.6748 1139.8338 690.1667 1131.8257 690.1667 L 1107.8257 690.1667 C 1099.8176 690.1667 1093.3257 683.6748 1093.3257 675.6667 L 1093.3257 675.6667 C 1093.3257 667.6585 1099.8176 661.1667 1107.8257 661.1667 Z" fill="#686868"/>
        </g>
        <g id="Graphic_205">
          <text transform="translate(1112.7944 661.6667)" fill="white">
            <tspan font-family="Trebuchet MS" font-weight="bold" font-size="24" fill="white" x="0" y="23">2</tspan>
          </text>
        </g>
      </g>
      <g id="Group_207">
        <g id="Graphic_212">
          <text transform="translate(631.58824 1050.1164)" fill="black">
            <tspan font-family="Trebuchet MS" font-size="16" fill="black" x="1.2191238" y="15">install </tspan>
            <tspan font-family="Trebuchet MS" font-style="italic" font-weight="bold" font-size="16" fill="black" y="15">remoteR</tspan>
            <tspan font-family="Trebuchet MS" font-size="16" fill="black" y="15"> </tspan>
            <tspan font-family="Trebuchet MS" font-size="16" fill="black" x="44.676155" y="34">and </tspan>
            <tspan font-family="Trebuchet MS" font-style="italic" font-weight="bold" font-size="16" fill="black" x="6.551155" y="53">dependencies</tspan>
          </text>
        </g>
        <g id="Group_209">
          <g id="Graphic_211">
            <path d="M 588.08824 1045.1164 L 612.08824 1045.1164 C 620.0964 1045.1164 626.58824 1051.6082 626.58824 1059.6164 L 626.58824 1059.6164 C 626.58824 1067.6245 620.0964 1074.1164 612.08824 1074.1164 L 588.08824 1074.1164 C 580.0801 1074.1164 573.58824 1067.6245 573.58824 1059.6164 L 573.58824 1059.6164 C 573.58824 1051.6082 580.0801 1045.1164 588.08824 1045.1164 Z" fill="#686868"/>
          </g>
          <g id="Graphic_210">
            <text transform="translate(593.057 1045.6164)" fill="white">
              <tspan font-family="Trebuchet MS" font-weight="bold" font-size="24" fill="white" x="0" y="23">8</tspan>
            </text>
          </g>
        </g>
        <g id="Graphic_208">
          <text transform="translate(501 1047.6174)" fill="black">
            <tspan font-family="Monaco" font-size="24" fill="black" x="1.8635082" y="24">R&gt; _</tspan>
          </text>
        </g>
      </g>
      <g id="Graphic_218">
        <text transform="translate(557 835.5515)" fill="black">
          <tspan font-family="Trebuchet MS" font-size="16" fill="black" x="71.35043" y="15">install </tspan>
          <tspan font-family="Trebuchet MS" font-style="italic" font-weight="bold" font-size="16" fill="black" y="15">R</tspan>
          <tspan font-family="Trebuchet MS" font-size="16" fill="black" x="56.41293" y="34">and </tspan>
          <tspan font-family="Trebuchet MS" font-style="italic" font-weight="bold" font-size="16" fill="black" y="34">RStudio</tspan>
          <tspan font-family="Trebuchet MS" font-size="16" fill="black" x="48.68637" y="53">and </tspan>
          <tspan font-family="Trebuchet MS" font-style="italic" font-weight="bold" font-size="16" fill="black" y="53">libsodium</tspan>
        </text>
      </g>
      <g id="Group_215">
        <g id="Graphic_217">
          <path d="M 560.5 833.5 L 584.5 833.5 C 592.5081 833.5 599 839.9919 599 848 L 599 848 C 599 856.0081 592.5081 862.5 584.5 862.5 L 560.5 862.5 C 552.4919 862.5 546 856.0081 546 848 L 546 848 C 546 839.9919 552.4919 833.5 560.5 833.5 Z" fill="#686868"/>
        </g>
        <g id="Graphic_216">
          <text transform="translate(565.46875 834)" fill="white">
            <tspan font-family="Trebuchet MS" font-weight="bold" font-size="24" fill="white" x="0" y="23">1</tspan>
          </text>
        </g>
      </g>
      <g id="Group_223">
        <g id="Graphic_222">
          <text transform="translate(559 1284)" fill="black">
            <tspan font-family="Trebuchet MS" font-weight="bold" font-size="16" fill="black" x="22.160667" y="15">cleanup when done!</tspan>
            <tspan font-family="Trebuchet MS" font-size="16" fill="black" x="0" y="34">  • on your own computer</tspan>
            <tspan font-family="Trebuchet MS" font-size="16" fill="black" x="0" y="53">  • on the compute node</tspan>
            <tspan font-family="Trebuchet MS" font-size="16" fill="black" x="0" y="72">  • on the User Interface</tspan>
          </text>
        </g>
        <g id="Group_219">
          <g id="Graphic_221">
            <path d="M 515.5 1279 L 539.5 1279 C 547.5081 1279 554 1285.4919 554 1293.5 L 554 1293.5 C 554 1301.5081 547.5081 1308 539.5 1308 L 515.5 1308 C 507.4919 1308 501 1301.5081 501 1293.5 L 501 1293.5 C 501 1285.4919 507.4919 1279 515.5 1279 Z" fill="#686868"/>
          </g>
          <g id="Graphic_220">
            <text transform="translate(513.4375 1279.5)" fill="white">
              <tspan font-family="Trebuchet MS" font-weight="bold" font-size="24" fill="white" x="0" y="23">10</tspan>
            </text>
          </g>
        </g>
      </g>
    </g>
  </g>
</svg>
